<svg width="311" height="59" viewBox="0 0 311 59" fill="none" xmlns="http://www.w3.org/2000/svg">
<g clip-path="url(#clip0_5754_281001)">
<path d="M110.7 22.5L107.2 31.1H114.3L110.7 22.5ZM118.8 42.2L116.4 36.2H105.2L102.8 42.2H96.8L108.2 15.5H113.6L125 42.2H118.8ZM150 29C150 24.3 146.8 21 142 21H137.5V37H142C146.7 37 150 33.7 150 29ZM142 42.2H131.7V15.7H142C150.3 15.7 156.1 21.4 156.1 28.9V29C156.1 36.4 150.3 42.2 142 42.2ZM182.7 29C182.7 24.3 179.5 21 174.7 21H170.2V37H174.7C179.5 37 182.7 33.7 182.7 29ZM174.7 42.2H164.4V15.7H174.7C183 15.7 188.8 21.4 188.8 28.9V29C188.8 36.4 183 42.2 174.7 42.2ZM217.5 42.2H197.3V15.7H217.4V20.9H203.1V26.3H215.6V31.5H203.1V37H217.5V42.2ZM242.4 25C242.4 22.4 240.6 21 237.7 21H233.2V29.1H237.8C240.7 29.1 242.4 27.3 242.4 25ZM237.6 34.3H233.2V42.3H227.4V15.7H238.2C244.5 15.7 248.4 19.5 248.4 24.9V25C248.3 31.1 243.6 34.3 237.6 34.3V34.3ZM265.6 22.5L262.1 31.1H269.2L265.6 22.5V22.5ZM273.6 42.2L271.2 36.2H260L257.6 42.2H251.6L263 15.5H268.4L279.7 42.2H273.6V42.2ZM303 24.8C303 22.3 301.3 21 298.4 21H292.7V28.6H298.6C301.4 28.6 303 27.1 303 24.8V24.8ZM302.9 42.2L297.2 33.7H292.7V42.2H286.9V15.7H299C305.3 15.7 309 19 309 24.5V24.6C309 28.9 306.7 31.6 303.3 32.8L309.8 42.3H302.9V42.2Z" fill="black"/>
<path d="M63.1 0.5L26.6 58.2H0.5L37.1 0.5H63.1Z" fill="#88817F"/>
<path d="M43.7 31.1L60.8 58.2H86.8L69.8 31.1H43.7Z" fill="black"/>
</g>
<defs>
<clipPath id="clip0_5754_281001">
<rect width="310.3" height="58.7" fill="white"/>
</clipPath>
</defs>
</svg>
