<svg width="118" height="24" viewBox="0 0 118 24" fill="none" xmlns="http://www.w3.org/2000/svg">
<path d="M43.198 21.446L39.184 15.493C39.1103 15.3841 39.059 15.2616 39.033 15.1328C39.0069 15.0039 39.0067 14.8711 39.0323 14.7422C39.0578 14.6132 39.1087 14.4906 39.182 14.3814C39.2552 14.2722 39.3494 14.1786 39.459 14.106C41.298 12.875 42.451 10.671 42.451 8.13C42.451 3.778 38.811 0.336 34.324 0.336H24.68C24.505 0.336 24.3371 0.405536 24.2133 0.52931C24.0895 0.653084 24.02 0.820957 24.02 0.996V5.215C24.02 5.389 24.155 5.533 24.329 5.543C27.592 5.719 30.213 8.532 30.213 11.742C30.213 14.982 27.564 17.735 24.329 17.909C24.2454 17.9139 24.1669 17.9506 24.1096 18.0116C24.0523 18.0726 24.0206 18.1533 24.021 18.237V22.329C24.021 22.693 24.316 22.989 24.681 22.989H30.284C30.459 22.989 30.6269 22.9195 30.7507 22.7957C30.8745 22.6719 30.944 22.504 30.944 22.329V20.358C30.944 18.953 32.157 18.612 33.084 19.714L35.436 22.657C35.647 22.871 35.935 22.992 36.236 22.993H42.375C42.5554 22.9938 42.7326 22.9454 42.8874 22.8528C43.0422 22.7603 43.1689 22.6272 43.2536 22.468C43.3383 22.3087 43.3779 22.1294 43.3681 21.9493C43.3583 21.7691 43.2995 21.5951 43.198 21.446V21.446ZM46.272 0.325H51.128C51.2147 0.325 51.3005 0.342071 51.3806 0.37524C51.4606 0.408408 51.5334 0.457023 51.5947 0.51831C51.656 0.579596 51.7046 0.652354 51.7378 0.732429C51.7709 0.812504 51.788 0.898328 51.788 0.985V22.321C51.788 22.496 51.7185 22.6639 51.5947 22.7877C51.4709 22.9115 51.303 22.981 51.128 22.981H46.272C46.097 22.981 45.9291 22.9115 45.8053 22.7877C45.6815 22.6639 45.612 22.496 45.612 22.321V0.985C45.612 0.809957 45.6815 0.642084 45.8053 0.51831C45.9291 0.394536 46.097 0.325 46.272 0.325V0.325ZM59.672 5.916H54.554C54.38 5.91601 54.213 5.8473 54.0894 5.72482C53.9658 5.60234 53.8956 5.436 53.894 5.262V0.985C53.894 0.809957 53.9635 0.642084 54.0873 0.51831C54.2111 0.394536 54.379 0.325 54.554 0.325H71.504C71.6787 0.325529 71.8461 0.395299 71.9694 0.519015C72.0927 0.642732 72.162 0.810303 72.162 0.985V5.262C72.162 5.43687 72.0926 5.60459 71.969 5.72834C71.8455 5.85208 71.6779 5.92173 71.503 5.922H66.511C66.424 5.92354 66.3409 5.9588 66.2794 6.02036C66.2178 6.08192 66.1825 6.16496 66.181 6.252V22.322C66.1807 22.4967 66.1112 22.6642 65.9877 22.7877C65.8642 22.9112 65.6967 22.9807 65.522 22.981H60.666C60.491 22.981 60.3231 22.9115 60.1993 22.7877C60.0755 22.6639 60.006 22.496 60.006 22.321V6.246C60.0044 6.15828 59.9686 6.07464 59.9062 6.01298C59.8438 5.95131 59.7597 5.91651 59.672 5.916V5.916ZM75.023 0.325H90.41C90.4967 0.325 90.5825 0.342071 90.6626 0.37524C90.7426 0.408408 90.8154 0.457023 90.8767 0.51831C90.938 0.579596 90.9866 0.652354 91.0198 0.732429C91.0529 0.812504 91.07 0.898328 91.07 0.985V5.224C91.07 5.31067 91.0529 5.3965 91.0198 5.47657C90.9866 5.55665 90.938 5.6294 90.8767 5.69069C90.8154 5.75198 90.7426 5.80059 90.6626 5.83376C90.5825 5.86693 90.4967 5.884 90.41 5.884H80.87C80.7811 5.884 80.6958 5.91926 80.6328 5.98206C80.5698 6.04485 80.5343 6.13006 80.534 6.219V8.682C80.534 8.72585 80.5427 8.76925 80.5597 8.80969C80.5766 8.85012 80.6015 8.88677 80.6328 8.91749C80.664 8.94822 80.7011 8.9724 80.7419 8.98862C80.7826 9.00485 80.8262 9.0128 80.87 9.012H89.73C89.9049 9.01227 90.0725 9.08192 90.196 9.20566C90.3196 9.32941 90.389 9.49713 90.389 9.672V13.423C90.389 13.598 90.3195 13.7659 90.1957 13.8897C90.0719 14.0135 89.904 14.083 89.729 14.083H80.87C80.7821 14.083 80.6977 14.1174 80.6348 14.1789C80.572 14.2404 80.5358 14.3241 80.534 14.412V17.198C80.538 17.381 80.687 17.528 80.87 17.528H90.672C90.847 17.528 91.0149 17.5975 91.1387 17.7213C91.2625 17.8451 91.332 18.013 91.332 18.188V22.33C91.332 22.505 91.2625 22.6729 91.1387 22.7967C91.0149 22.9205 90.847 22.99 90.672 22.99H75.023C74.848 22.99 74.6801 22.9205 74.5563 22.7967C74.4325 22.6729 74.363 22.505 74.363 22.33V0.985C74.363 0.809957 74.4325 0.642084 74.5563 0.51831C74.6801 0.394536 74.848 0.325 75.023 0.325V0.325ZM105.428 0C98.504 0 92.946 5.262 92.946 11.734C92.946 18.206 98.504 23.437 105.428 23.437C112.383 23.437 117.942 18.203 117.942 11.734C117.942 5.265 112.383 0 105.428 0ZM105.428 17.913C104.616 17.9154 103.812 17.7572 103.062 17.4476C102.311 17.138 101.629 16.6831 101.055 16.109C100.481 15.535 100.026 14.8531 99.717 14.1026C99.4075 13.3521 99.2495 12.5478 99.252 11.736C99.252 8.389 102.015 5.528 105.428 5.528C108.84 5.528 111.637 8.421 111.637 11.736C111.642 15.083 108.82 17.913 105.433 17.913H105.428V17.913ZM12.352 0C15.876 0 19.032 1.505 21.286 3.904C21.3466 3.96971 21.3932 4.04706 21.4231 4.13134C21.4529 4.21562 21.4653 4.30508 21.4595 4.39429C21.4537 4.4835 21.4298 4.5706 21.3893 4.65032C21.3489 4.73003 21.2926 4.80068 21.224 4.858L18.024 7.539C17.8982 7.64298 17.7383 7.69664 17.5752 7.68962C17.4121 7.6826 17.2574 7.6154 17.141 7.501C15.8626 6.24631 14.1462 5.53804 12.355 5.526C8.942 5.526 6.179 8.126 6.179 11.669C6.179 15.211 8.942 17.781 12.355 17.781C14.1461 17.7685 15.8623 17.0603 17.141 15.806C17.2572 15.691 17.412 15.6233 17.5753 15.6159C17.7386 15.6085 17.8989 15.662 18.025 15.766L21.227 18.448C21.2956 18.5053 21.3519 18.576 21.3923 18.6557C21.4328 18.7354 21.4567 18.8225 21.4625 18.9117C21.4683 19.0009 21.4559 19.0904 21.4261 19.1747C21.3962 19.2589 21.3496 19.3363 21.289 19.402C19.034 21.801 15.879 23.306 12.355 23.306C5.526 23.306 0 18.397 0 11.669C0 4.941 5.526 0 12.352 0Z" fill="#FE5000"/>
</svg>
