<svg width="600" height="114" viewBox="0 0 600 114" fill="none" xmlns="http://www.w3.org/2000/svg">
<path d="M102.3 21.9C85.2 21.9 70.8 34.4 68.4 51.3V4.3C68.4 4 68.2 3.8 67.9 3.8C67.8 3.8 67.6 3.9 67.5 4L47.5 24.6C43.3 22.8 38.7 21.9 34.2 21.9C15.3 21.9 0 37.2 0 56C0 74.8 15.3 90.1 34.2 90.1C51.3 90.1 65.7 77.6 68.1 60.7V107.7C68.1 108.2 68.7 108.4 69 108.1L89 87.5C93.2 89.3 97.7 90.2 102.3 90.2C121.2 90.2 136.5 74.9 136.5 56.1C136.5 37.1 121.2 21.9 102.3 21.9ZM265.9 7.6C265.9 11.8 262.5 15.2 258.3 15.2C254.1 15.2 250.7 11.8 250.7 7.6C250.7 3.4 254.1 0 258.3 0C262.5 0 265.9 3.3 265.9 7.6ZM355.9 1V89C355.9 89.5 356.3 89.8 356.7 89.8H367.5C368 89.8 368.3 89.4 368.3 89V1C368.3 0.5 367.9 0.2 367.5 0.2H356.7C356.3 0.2 355.9 0.6 355.9 1ZM225.5 31.9V1.1C225.5 0.6 225.9 0.3 226.3 0.3H237.1C237.6 0.3 237.9 0.7 237.9 1.1V89.1C237.9 89.6 237.5 89.9 237.1 89.9H226.3C225.8 89.9 225.5 89.5 225.5 89.1V81.5C220.3 87.4 213 91 204 91C185.5 91 170.4 75.6 170.4 56.7C170.4 37.8 185.5 22.4 204 22.4C213 22.4 220.3 26 225.5 31.9V31.9ZM184.1 56.7C184.1 68.6 193.1 78.3 204.7 78.3C216.4 78.3 224.3 68.6 224.3 56.7C224.3 44.8 216.4 35.1 204.7 35.1C193 35.1 184.1 44.8 184.1 56.7V56.7ZM394.9 31.9C400.1 26 407.4 22.4 416.4 22.4C434.9 22.4 450 37.8 450 56.7C450 75.6 434.9 91 416.4 91C407.4 91 400.1 87.4 394.9 81.5V113.1C394.9 113.6 394.5 113.9 394.1 113.9H383.3C382.8 113.9 382.5 113.5 382.5 113.1V25.1C382.5 24.6 382.9 24.3 383.3 24.3H394.1C394.6 24.3 394.9 24.7 394.9 25.1V31.9V31.9ZM396.1 56.7C396.1 68.6 404 78.3 415.7 78.3C427.4 78.3 436.3 68.6 436.3 56.7C436.3 44.8 427.3 35.1 415.7 35.1C404 35.1 396.1 44.8 396.1 56.7V56.7ZM329.3 31.9V25.1C329.3 24.6 329.7 24.3 330.1 24.3H340.9C341.4 24.3 341.7 24.7 341.7 25.1V89.1C341.7 89.6 341.3 89.9 340.9 89.9H330.1C329.6 89.9 329.3 89.5 329.3 89.1V81.5C324.1 87.4 316.8 91 307.9 91C289.4 91 274.3 75.6 274.3 56.7C274.3 37.8 289.4 22.4 307.9 22.4C316.9 22.4 324.2 26 329.3 31.9V31.9ZM288 56.7C288 68.6 297 78.3 308.6 78.3C320.3 78.3 328.2 68.6 328.2 56.7C328.2 44.8 320.3 35.1 308.6 35.1C296.9 35.1 288 44.8 288 56.7V56.7ZM511.7 25.1V31.9C506.5 26 499.2 22.4 490.3 22.4C471.8 22.4 456.7 37.8 456.7 56.7C456.7 75.6 471.8 91 490.3 91C499.3 91 506.6 87.4 511.7 81.5V89.1C511.7 89.6 512.1 89.9 512.5 89.9H523.3C523.8 89.9 524.1 89.5 524.1 89.1V25.1C524.1 24.6 523.7 24.3 523.3 24.3H512.5C512.1 24.2 511.7 24.6 511.7 25.1V25.1ZM490.9 78.3C479.2 78.3 470.3 68.6 470.3 56.7C470.3 44.8 479.3 35.1 490.9 35.1C502.6 35.1 510.5 44.8 510.5 56.7C510.5 68.6 502.6 78.3 490.9 78.3ZM587.5 1.1V31.9C582.3 26 575 22.4 566 22.4C547.5 22.4 532.4 37.8 532.4 56.7C532.4 75.6 547.5 91 566 91C575 91 582.3 87.4 587.5 81.5V89.1C587.5 89.6 587.9 89.9 588.3 89.9H599.1C599.6 89.9 599.9 89.5 599.9 89.1V1.1C599.9 0.6 599.5 0.3 599.1 0.3H588.3C587.8 0.2 587.5 0.6 587.5 1.1V1.1ZM566.7 78.3C555 78.3 546.1 68.6 546.1 56.7C546.1 44.8 555.1 35.1 566.7 35.1C578.4 35.1 586.3 44.8 586.3 56.7C586.3 68.6 578.4 78.3 566.7 78.3ZM252 89V25.1C252 24.6 252.4 24.3 252.8 24.3H263.6C264.1 24.3 264.4 24.7 264.4 25.1V89C264.4 89.5 264 89.8 263.6 89.8H252.8C252.4 89.9 252 89.5 252 89Z" fill="#6D3DFF"/>
</svg>
