<svg width="320" height="75" viewBox="0 0 320 75" fill="none" xmlns="http://www.w3.org/2000/svg">
<g clip-path="url(#clip0_5754_281236)">
<path fill-rule="evenodd" clip-rule="evenodd" d="M63.544 73.888H67.967C68.992 73.888 69.855 73.025 69.909 72V23.83C69.9107 22.7032 69.69 21.5871 69.2596 20.5457C68.8292 19.5043 68.1975 18.5581 67.4007 17.7614C66.6039 16.9646 65.6577 16.3329 64.6163 15.9024C63.5749 15.472 62.4588 15.2513 61.332 15.253H55.67C55.1711 15.2471 54.6944 15.0462 54.3416 14.6934C53.9888 14.3407 53.788 13.8639 53.782 13.365V8.99503C53.7835 7.86828 53.5625 6.75233 53.1319 5.71111C52.7013 4.6699 52.0695 3.72389 51.2726 2.9273C50.4757 2.13071 49.5295 1.49919 48.4882 1.06895C47.4468 0.638706 46.3308 0.418187 45.204 0.42003H8.57701C7.45035 0.418319 6.33442 0.638935 5.29317 1.06924C4.25192 1.49954 3.30581 2.13107 2.50904 2.92765C1.71228 3.72423 1.08053 4.67019 0.649981 5.71134C0.219435 6.75249 -0.00144136 7.86837 7.0778e-06 8.99503V57.382C7.0778e-06 62.075 3.83001 65.905 8.57701 65.959H51.029C51.407 65.959 51.785 66.066 52.109 66.282L62.465 73.564C62.789 73.78 63.166 73.888 63.545 73.888H63.544ZM53.241 59.108H8.68501C7.60501 59.108 6.79701 58.298 6.79701 57.22V9.10303C6.79701 8.07803 7.66001 7.21503 8.68501 7.21503H45.095C46.121 7.21503 46.984 8.07803 46.984 9.10303V13.365C46.978 13.8639 46.7772 14.3407 46.4244 14.6934C46.0716 15.0462 45.5949 15.2471 45.096 15.253H17.963C17.4641 15.259 16.9874 15.4598 16.6346 15.8126C16.2818 16.1654 16.081 16.6422 16.075 17.141V49.236C16.075 50.261 16.938 51.124 17.963 51.124H51.839C52.3379 51.1181 52.8146 50.9172 53.1674 50.5644C53.5202 50.2117 53.721 49.7349 53.727 49.236V23.937C53.727 22.913 54.59 22.049 55.615 22.049H61.171C62.196 22.049 63.059 22.913 63.059 23.937V63.315C63.059 64.286 61.979 64.825 61.225 64.286L54.32 59.431C54.0001 59.2193 53.6247 59.1069 53.241 59.108V59.108ZM46.013 44.274H23.789C23.6682 44.2751 23.5485 44.2521 23.4367 44.2064C23.3249 44.1607 23.2233 44.0932 23.1379 44.0079C23.0524 43.9225 22.9848 43.821 22.939 43.7093C22.8932 43.5975 22.8701 43.4778 22.871 43.357V22.967C22.8699 22.8462 22.893 22.7263 22.9387 22.6145C22.9845 22.5026 23.052 22.401 23.1375 22.3155C23.223 22.2301 23.3246 22.1625 23.4364 22.1167C23.5483 22.071 23.6682 22.048 23.789 22.049H46.013C46.1338 22.0481 46.2535 22.0712 46.3653 22.117C46.477 22.1628 46.5785 22.2304 46.6639 22.3159C46.7492 22.4013 46.8167 22.5029 46.8624 22.6147C46.9081 22.7265 46.9311 22.8463 46.93 22.967V43.357C46.9309 43.4777 46.9079 43.5974 46.8621 43.709C46.8163 43.8207 46.7488 43.9222 46.6635 44.0075C46.5782 44.0929 46.4767 44.1604 46.365 44.2061C46.2534 44.2519 46.1337 44.275 46.013 44.274V44.274ZM241.728 10.675C243.088 10.6752 244.393 10.135 245.355 9.17328C246.316 8.21159 246.857 6.90719 246.857 5.54703C246.857 4.18687 246.317 2.88236 245.355 1.92049C244.394 0.958612 243.089 0.418162 241.729 0.41803C241.056 0.417964 240.389 0.550552 239.766 0.808222C239.144 1.06589 238.579 1.4436 238.102 1.91978C237.626 2.39596 237.248 2.96128 236.991 3.58348C236.733 4.20567 236.6 4.87255 236.6 5.54603C236.6 6.21951 236.733 6.88642 236.99 7.50866C237.248 8.1309 237.626 8.6963 238.102 9.17257C238.578 9.64884 239.143 10.0267 239.765 10.2845C240.388 10.5422 241.055 10.675 241.728 10.675V10.675ZM183.224 18.173V15.323H174.962V50.843H183.224V26.578L192.864 22.589V14.279H192.769L183.224 18.173V18.173ZM151.212 15.292C145.846 15.292 141.477 17.049 138.153 20.61C136.609 22.2975 135.4 24.2639 134.592 26.404C133.772 28.6231 133.354 30.9704 133.357 33.336C133.357 38.322 134.782 42.454 137.679 45.636C140.86 49.149 145.229 50.858 150.785 50.858C156.198 50.858 160.519 49.102 163.796 45.54C166.882 42.169 168.449 37.943 168.449 32.814C168.449 27.686 166.93 23.554 163.938 20.325C160.756 16.954 156.53 15.292 151.212 15.292V15.292ZM157.67 40.554C156.103 42.501 153.919 43.498 151.164 43.498C148.22 43.498 145.799 42.501 143.994 40.507C143.139 39.605 142.475 38.465 142 37.183C141.522 35.8912 141.28 34.5236 141.287 33.146C141.287 30.297 142.047 27.923 143.614 25.929C145.324 23.792 147.65 22.699 150.642 22.699C153.586 22.699 155.913 23.697 157.575 25.739C159.142 27.639 159.949 30.107 159.949 33.194C159.997 36.185 159.237 38.654 157.67 40.554V40.554ZM237.543 15.33H245.758V50.896H237.543V15.33V15.33ZM112.185 15.292C107.484 15.292 103.638 16.669 100.646 19.423C97.844 22.035 96.42 25.311 96.42 29.253C96.42 32.767 97.654 35.663 100.124 37.99C97.987 39.7 96.942 41.741 96.942 44.163C96.942 45.635 97.132 46.917 97.465 48.009C97.797 49.149 98.462 50.099 99.506 50.953C95.802 52.995 93.998 56.319 94.141 60.878C94.235 64.819 95.945 67.953 99.269 70.328C102.593 72.702 107.009 73.889 112.422 73.889C117.836 73.889 121.872 72.844 124.626 70.755C127.38 68.665 128.757 65.674 128.757 61.733C128.757 57.839 127.665 54.8 125.481 52.663C124.294 51.523 122.774 50.621 120.922 49.813C119.023 49.054 116.459 48.389 113.135 47.867C109.811 47.345 107.436 46.775 106.012 46.063C105.347 45.778 104.92 45.445 104.73 45.113C104.54 44.78 104.445 44.306 104.445 43.688C104.445 43.071 104.872 42.216 105.679 41.124C107.531 41.741 109.573 42.074 111.758 42.074C116.221 42.074 119.878 40.744 122.774 38.037C124.055 36.7969 125.072 35.3113 125.766 33.669C126.478 32.007 126.811 30.155 126.811 28.113C126.819 26.0944 126.329 24.1048 125.386 22.32C125.386 22.32 125.386 22.272 125.338 22.272H128.805V15.292H112.185V15.292ZM106.439 53.708L108.149 53.993C112.945 54.705 116.364 55.654 118.311 56.937C120.068 58.029 120.922 59.501 120.922 61.305C120.922 65.105 118.216 66.956 112.802 66.956C109.621 66.956 107.057 66.291 105.062 65.009C104.16 64.439 103.448 63.727 102.973 62.919C102.45 62.113 102.213 61.21 102.213 60.119C102.213 59.026 102.545 57.886 103.21 56.699C103.923 55.465 105.015 54.515 106.439 53.708ZM116.791 33.336C115.461 34.524 113.894 35.141 112.138 35.141C109.763 35.141 107.864 34.476 106.392 33.146C105.727 32.576 105.252 31.864 104.872 31.152C104.54 30.392 104.35 29.632 104.35 28.825C104.35 28.018 104.492 27.211 104.825 26.404C105.869 23.697 108.196 22.367 111.853 22.367C114.037 22.367 115.794 22.937 117.029 24.077C118.263 25.217 118.928 26.736 118.928 28.587C118.88 30.392 118.168 32.007 116.791 33.337V33.336ZM282.035 23.032C282.653 24.646 282.985 26.546 282.985 28.588V50.763H274.913V49.102C272.491 50.194 270.259 50.764 268.217 50.764C265.653 50.764 263.516 50.526 261.712 50.051C259.907 49.576 258.388 48.864 257.153 47.961C254.636 46.063 253.354 43.356 253.354 39.841C253.354 36.708 254.874 34.049 258.008 31.959C261.379 29.68 265.985 28.54 271.779 28.54L273.108 28.588C273.245 28.588 273.382 28.598 273.524 28.61C273.678 28.622 273.838 28.635 274.01 28.635C274.17 28.658 274.318 28.67 274.461 28.681C274.616 28.694 274.764 28.705 274.913 28.731C274.723 25.216 273.203 23.127 270.354 22.557C269.452 22.367 268.407 22.272 267.362 22.272C266.27 22.272 265.226 22.367 264.228 22.557C263.184 22.747 262.186 23.032 261.237 23.317C259.147 23.982 257.58 24.789 256.678 25.644L256.583 25.596L255.586 18.331C259.432 16.289 263.706 15.291 268.312 15.291C275.482 15.291 280.041 17.856 282.035 23.032V23.032ZM274.913 42.359V34.713C274.3 34.6186 273.681 34.5712 273.061 34.571H271.731C266.888 34.571 263.801 35.663 262.471 37.8C262.097 38.3979 261.9 39.0891 261.902 39.794C261.902 40.507 262.044 41.124 262.281 41.646C262.566 42.169 262.994 42.644 263.564 42.976C264.703 43.641 266.413 43.973 268.645 43.973C270.876 43.973 272.966 43.403 274.913 42.359V42.359ZM313.334 31.009C314.711 31.674 315.851 32.482 316.706 33.431C318.273 35.141 319.08 37.421 319.08 40.364C319.08 43.451 317.845 45.968 315.376 47.914C312.812 49.956 309.203 50.954 304.55 50.954C298.946 50.954 294.578 50.004 291.491 48.152V39.414C291.491 39.367 291.681 39.557 292.013 39.937C292.346 40.317 293.011 40.744 293.913 41.314C294.815 41.884 295.907 42.359 297.094 42.786C299.706 43.688 302.413 44.116 305.262 44.116C309.061 44.116 310.96 42.834 310.96 40.316C310.96 39.51 310.58 38.892 309.868 38.512C308.586 37.847 306.686 37.325 304.17 36.992C301.653 36.612 299.611 36.138 297.997 35.473C296.382 34.808 295.052 34.001 294.055 33.099C292.203 31.342 291.254 29.063 291.254 26.261C291.254 22.842 292.583 20.135 295.195 18.189C297.807 16.242 301.415 15.292 306.022 15.292C310.58 15.292 314.474 16.574 317.703 19.186C317.561 19.756 317.418 20.326 317.228 20.848C316.86 21.897 316.48 22.9417 316.089 23.982L315.329 25.929C315.281 26.119 315.234 26.214 315.234 26.214C315.186 26.214 314.996 25.976 314.711 25.501C313.334 23.887 311.15 22.842 308.253 22.32C307.347 22.1289 306.424 22.0334 305.499 22.035C301.51 22.035 299.516 23.222 299.516 25.644C299.516 26.451 299.896 27.116 300.751 27.544C302.318 28.398 304.455 29.015 307.161 29.395C309.868 29.822 311.91 30.345 313.334 31.01V31.009ZM213.372 15.292C208.671 15.292 204.824 16.669 201.833 19.423C199.031 22.035 197.607 25.311 197.607 29.253C197.607 32.767 198.841 35.663 201.311 37.99C199.174 39.7 198.129 41.741 198.129 44.163C198.129 45.635 198.319 46.917 198.651 48.009C198.984 49.149 199.649 50.099 200.693 50.953C196.989 52.995 195.185 56.319 195.327 60.878C195.422 64.819 197.132 67.953 200.456 70.328C203.78 72.702 208.196 73.889 213.609 73.889C219.023 73.889 223.059 72.844 225.813 70.755C228.567 68.665 229.944 65.674 229.944 61.733C229.944 57.839 228.852 54.8 226.668 52.663C225.481 51.523 223.961 50.621 222.109 49.813C220.21 49.054 217.646 48.389 214.322 47.867C210.998 47.345 208.623 46.775 207.199 46.063C206.534 45.778 206.107 45.445 205.917 45.113C205.727 44.78 205.632 44.306 205.632 43.688C205.632 43.071 206.059 42.216 206.866 41.124C208.718 41.741 210.76 42.074 212.944 42.074C217.408 42.074 221.064 40.744 223.961 38.037C225.241 36.7966 226.259 35.3111 226.953 33.669C227.665 32.007 227.997 30.155 227.997 28.113C227.997 26.071 227.523 24.124 226.573 22.32C226.573 22.32 226.573 22.272 226.525 22.272H229.992V15.292H213.372V15.292ZM207.626 53.708L209.336 53.993C214.132 54.705 217.551 55.654 219.497 56.937C221.254 58.029 222.109 59.501 222.109 61.305C222.109 65.105 219.403 66.956 213.989 66.956C210.808 66.956 208.243 66.291 206.249 65.009C205.347 64.439 204.635 63.727 204.16 62.919C203.637 62.113 203.4 61.21 203.4 60.119C203.4 59.026 203.732 57.886 204.397 56.699C205.109 55.465 206.202 54.515 207.626 53.708V53.708ZM217.978 33.336C216.648 34.524 215.081 35.141 213.324 35.141C210.95 35.141 209.051 34.476 207.579 33.146C206.914 32.576 206.439 31.864 206.059 31.152C205.727 30.392 205.537 29.632 205.537 28.825C205.537 28.018 205.679 27.211 206.012 26.404C207.056 23.697 209.383 22.367 213.039 22.367C215.224 22.367 216.981 22.937 218.215 24.077C219.45 25.217 220.115 26.736 220.115 28.587C220.067 30.392 219.355 32.007 217.978 33.337V33.336Z" fill="#161616"/>
</g>
<defs>
<clipPath id="clip0_5754_281236">
<rect width="320" height="75" fill="white"/>
</clipPath>
</defs>
</svg>
