<svg width="95" height="37" viewBox="0 0 95 37" fill="none" xmlns="http://www.w3.org/2000/svg">
<g clip-path="url(#clip0_7006_46)">
<path d="M83.9626 5.25674C78.1207 5.25674 73.3669 10.0311 73.3669 15.9004C73.3669 21.7697 78.1207 26.5441 83.9626 26.5441C89.8031 26.5441 94.5556 21.7697 94.5556 15.9004C94.5556 10.0311 89.8031 5.25674 83.9626 5.25674ZM83.9626 21.4997C80.8902 21.4997 78.3879 18.9851 78.3879 15.9004C78.3879 12.8143 80.8902 10.3011 83.9626 10.3011C87.0322 10.3011 89.5359 12.8143 89.5359 15.9004C89.5359 18.9865 87.035 21.4997 83.9626 21.4997ZM52.762 13.7448L50.9093 12.8157C50.1049 12.4156 49.6006 12.1059 49.3977 11.877C49.2044 11.6742 49.0943 11.4062 49.0894 11.126C49.0894 10.767 49.2511 10.4641 49.569 10.2284C49.8842 9.98178 50.3323 9.86941 50.901 9.86941C51.9412 9.86941 53.0936 10.497 54.3626 11.7619L57.4898 8.61963C56.7214 7.57327 55.7165 6.72337 54.5572 6.13926C53.4131 5.56359 52.1489 5.26683 50.8681 5.27319C48.9592 5.27319 47.3833 5.83641 46.1554 6.97107C44.929 8.10574 44.3123 9.46926 44.3123 11.0685C44.3123 13.5489 45.9362 15.6154 49.1949 17.2557L50.901 18.1122C52.3714 18.8563 53.1032 19.6141 53.1032 20.398C53.1032 20.8228 52.899 21.19 52.4934 21.5162C52.0878 21.8437 51.5506 21.9986 50.8846 21.9986C50.2679 21.9986 49.5608 21.7861 48.7646 21.3545C47.9713 20.9298 47.2654 20.3588 46.6844 19.6717L43.5737 23.0757C45.3277 25.3779 47.667 26.5372 50.6078 26.5372C52.8182 26.5372 54.5819 25.9329 55.8892 24.7324C57.2047 23.5334 57.8625 22.0314 57.8625 20.2349C57.8625 18.8878 57.498 17.7052 56.7744 16.7007C56.044 15.6962 54.7038 14.7178 52.762 13.7462V13.7448ZM21.3038 24.2254V5.68019H16.2745V6.92174C14.5799 5.83253 12.6074 5.25448 10.593 5.25674C4.75244 5.25674 0 10.0311 0 15.9004C0 21.7697 4.75244 26.5441 10.5943 26.5441C12.5846 26.5471 14.5347 25.9839 16.217 24.9202C16.217 25.0833 16.2087 25.2299 16.2087 25.3286C16.2087 28.4133 13.7064 30.9279 10.6354 30.9279C9.59125 30.9254 8.56897 30.6281 7.68641 30.07L5.19919 34.4456C6.83926 35.446 8.72254 35.977 10.6437 35.9804C16.4856 35.9804 21.3038 31.2047 21.3038 25.3354C21.3038 25.1079 21.3189 24.4378 21.3038 24.2254ZM10.5943 21.4984C7.5247 21.4984 5.02104 18.9851 5.02104 15.9004C5.02104 12.8143 7.52333 10.3011 10.5943 10.3011C13.6653 10.3011 16.1676 12.8143 16.1676 15.9004C16.1676 18.9851 13.6653 21.4997 10.5943 21.4997V21.4984ZM41.3372 5.67333H36.2833V15.7921C36.2915 17.2297 36.2915 19.7114 35.2363 20.7721C34.732 21.2777 34.1798 21.7354 33.0177 21.7354C31.8474 21.7354 31.2951 21.2777 30.7922 20.7721C29.7357 19.71 29.7439 17.2214 29.7507 15.7921V5.67333H24.6982V15.762C24.6817 17.8422 24.6571 21.7039 27.1923 24.2665C28.6791 25.7684 30.451 26.5359 33.0095 26.5359C35.5693 26.5359 37.3399 25.7767 38.8267 24.2665C41.3619 21.7039 41.3372 17.834 41.3208 15.762L41.3372 5.67333ZM69.9766 20.5939C69.571 20.9036 68.587 21.5902 67.4743 21.4353C66.5644 21.312 65.8257 20.6433 65.712 18.4068V10.016H71.6512V5.65689H65.712V0H60.6745V1.11H60.6663V17.7463C60.6663 20.3911 61.3323 26.5359 67.4661 26.5359C70.57 26.4879 72.4542 24.7982 73.2436 24.1377L73.3491 24.0555L70.326 20.3171C70.3178 20.324 70.1068 20.4953 69.9766 20.5939Z" fill="#F45D48"/>
</g>
<defs>
<clipPath id="clip0_7006_46">
<rect width="94.5556" height="37" fill="white"/>
</clipPath>
</defs>
</svg>
