<svg width="600" height="138" viewBox="0 0 600 138" fill="none" xmlns="http://www.w3.org/2000/svg">
<path fill-rule="evenodd" clip-rule="evenodd" d="M1 8.8002C2.3 5.40017 4.7 3.00018 8.1 1.70018C10.6 0.700178 14.8 0.700178 225.4 0.700178C432.8 0.600187 440.4 0.700193 442.4 1.60019C446.3 3.40019 448.9 8.00018 448.1 11.4002C447 15.8002 408.2 128.3 407.1 130.2C405.5 132.8 403.2 134.8 400.1 136.3L397.8 137.4L204.5 137.6C26.9 137.7 11 137.7 8.6 136.9C5 135.7 2.3 133 1 129.6C0 126.8 0 125.9 0 69.2002C0 12.9002 0 11.6002 1 8.8002ZM48.3 63.5002V47.7002V31.8002H36.9V106H48.3V73.9002H77.9V106H89.3V31.9002H77.9V63.5002H48.3ZM122.7 91.1002C119.5 86.9002 119.4 86.3002 119.4 57.7002V31.8002H107.9L108.1 59.4002L108.3 87.1002L109.5 90.2002C113.6 100.5 122.9 106.5 134.6 106.5C147.1 106.5 156.9 99.5002 160.3 88.1002C160.9 86.0002 161.1 80.6002 161.3 58.6002L161.6 31.8002H150V57.3002C150 86.6002 150 87.1002 146.1 91.4002C143 94.9002 139.6 96.3002 134.3 96.3002C130.9 96.3002 129.8 96.0002 127.3 94.8002C125.6 93.9002 123.7 92.4002 122.7 91.1002ZM212.5 76.6002C212 77.3002 209.7 72.8002 201.2 54.8002L190.6 32.1002L184.8 31.9002L179.1 31.7002V106H190.5V81.8002L190.7 57.6002L199.1 75.0002L207.3 92.2002L211.7 92.4002L216.1 92.6002L224.4 75.1002L232.7 57.6002L232.9 81.8002L233 106H244.5V31.7002L238.8 31.9002L233 32.1002L223 53.9002C217.5 65.9002 212.8 76.1002 212.5 76.6002ZM304.758 67.8016C298.599 50.9827 292.58 34.5453 292.1 33.2002C291.6 31.8002 291.5 31.8002 286.9 31.8002C283.6 31.8002 282.2 32.0002 282 32.4002C281.882 32.6371 279.729 38.5566 276.476 47.4995C274.237 53.6561 271.476 61.2455 268.5 69.4002C264.9 79.3495 261.6 88.4239 259.201 95.0237C256.8 101.625 255.3 105.75 255.3 105.8C255.3 105.9 257.9 106 261.2 106H267.2L269.7 98.5002L272.1 91.0002H301.3L303.7 98.5002L306.2 106H312.5C318.2 106 318.8 106 318.4 105.1C318.244 104.633 311.419 85.994 304.758 67.8016ZM373.2 83.4002L356.2 57.6002L339.2 31.8002H328.6V106H340V80.3002C340 63.3002 340.1 54.6002 340.5 55.0002C340.8 55.2002 348.5 66.8002 357.6 80.6002L374.2 105.8L379.4 106L384.6 106.2V31.9002H373.2V83.4002ZM275.7 80.9002C275.8 80.5002 278.3 73.2002 281.3 64.6002C284.3 56.1002 286.8 49.1002 286.9 49.1002C286.9 49.1375 287.262 50.1755 287.87 51.9242C288.894 54.8658 290.619 59.8183 292.5 65.4002L297.9 81.6002H286.7C277.7 81.6002 275.5 81.4002 275.7 80.9002ZM454.339 90.0309C456.569 83.9093 459.284 76.461 462.2 68.5002L475.5 31.7002H484.4L497.9 68.6002C505.4 88.9002 511.5 105.7 511.6 106C511.7 106.3 509.4 106.5 505.8 106.5H499.8L497.3 99.0002L494.9 91.5002H465L462.5 99.0002L460.1 106.5H454.2C449.7 106.5 448.3 106.4 448.5 105.9C448.621 105.718 450.909 99.4425 454.339 90.0309ZM491.5 81.5002C491.5 81.2002 489.1 73.9002 486.2 65.3002C483.4 56.7002 480.8 49.6002 480.5 49.4002C480.2 49.0002 469.1 80.5002 469.1 81.7002C469.1 82.0002 473 82.2002 480.3 82.2002C488.9 82.2002 491.5 82.0002 491.5 81.5002ZM523.2 106V68.9002V31.7002H539.4C557.2 31.7002 558.5 31.9002 564.3 35.0002C568 36.9002 572 41.2002 573.2 44.5002C573.6 45.9002 574.1 49.4002 574.3 52.5002C574.6 57.2002 574.5 58.6002 573.5 61.7002C571.6 68.3002 567 72.9002 560 75.4002C557 76.4002 555.5 76.6002 545.4 76.8002L534.1 77.0002V106H523.2ZM563.3 54.5002C563.2 49.2002 561 45.7002 556.2 43.5002C553.7 42.3002 553 42.2002 543.6 42.2002H533.6V67.2002H542.8C553.7 67.2002 556.2 66.7002 559.7 63.6002C562.5 61.1002 563.3 59.0002 563.3 54.5002ZM588.6 106.6V69.2002V31.8002H600V106.6H588.6Z" fill="black"/>
</svg>
