<svg width="289" height="52" viewBox="0 0 289 52" fill="none" xmlns="http://www.w3.org/2000/svg">
<path d="M0.299805 41.1898L20.7498 0.299805H28.6098L8.0998 41.1898H0.299805ZM40.4298 34.0798H60.2398V41.2098H32.5498V0.299805H40.4298V34.0798ZM64.9898 7.3698V0.299805H72.8098V7.3698H64.9898ZM65.0498 41.2098V11.1998H72.8098V41.2098H65.0498ZM97.1498 11.1998H105.49L94.5998 41.2098H86.9498L76.2898 11.1998H84.8598L90.9398 30.3198L97.1498 11.1998ZM135.21 28.4598H113.95C114.3 32.7998 116.96 35.4098 121.08 35.4098C124.61 35.4098 126.87 33.5598 127.86 30.7198L134.64 32.9198C132.79 38.5998 127.51 41.8398 120.91 41.8398C111.93 41.8398 106.14 35.8698 106.14 26.3098C106.14 16.8698 111.53 10.5498 121.15 10.5498C130.81 10.5598 136.02 17.2198 135.21 28.4598ZM114.06 22.7798H127.56C127.1 18.9598 124.9 16.8098 121.01 16.8098C117.02 16.8198 114.59 19.1298 114.06 22.7798ZM163.72 41.1998L155.78 25.1498H149V41.1998H141.12V0.299805H156.53C166.61 0.299805 171.59 5.04981 171.59 12.5798C171.59 18.1398 168.81 21.7898 163.83 23.7598L172.81 41.1998H163.72ZM149 7.4198V18.0798H156.76C161.45 18.0798 163.54 15.9898 163.54 12.5798C163.54 9.09981 161.57 7.4198 156.82 7.4198H149ZM196.83 41.1998C196.48 40.6798 196.13 39.6898 195.9 38.4198C193.81 40.7398 190.63 41.8398 187.09 41.8398C179.09 41.8398 173.71 36.2198 173.71 26.3098C173.71 16.0598 179.5 10.5498 187.27 10.5498C190.63 10.5498 193.35 11.5898 195.38 13.8498V11.1798H202.97V32.4398C202.97 35.3898 203.32 38.6398 203.9 41.1898H196.83V41.1998ZM195.38 26.2498C195.38 20.2198 192.54 16.9798 188.43 16.9798C183.74 16.9798 181.25 20.8598 181.25 26.3098C181.25 32.0998 183.97 35.4098 188.49 35.4098C192.83 35.3998 195.38 32.0398 195.38 26.2498ZM252.79 25.0898V41.1998H245.03V25.1498C245.03 22.1998 245.03 17.3298 240.51 17.3298C237.03 17.3298 235.06 20.0498 235.06 25.2098V41.1998H227.3V25.1498C227.3 22.1398 227.3 17.3298 222.72 17.3298C219.36 17.3298 217.33 20.0498 217.33 25.0898V41.1998H209.57V11.1798H217.33V13.6098C219.59 11.4698 221.91 10.5398 224.8 10.5398C228.74 10.5398 231.64 12.0998 233.32 14.7098C235.46 12.2198 238.36 10.5998 242.71 10.5998C252.79 10.5998 252.79 19.1798 252.79 25.0898ZM288.3 26.0198C288.3 35.9798 282.8 41.8398 275.21 41.8398C271.91 41.8398 269.01 40.7398 267.04 38.8898V51.6398H259.28V11.1798H267.04V14.2498C269.01 11.9298 271.85 10.5398 275.32 10.5398C283.32 10.5498 288.3 16.7998 288.3 26.0198ZM280.77 26.1298C280.77 20.3898 278.16 16.9798 273.88 16.9798C269.53 16.9798 266.87 20.4598 266.87 26.2498C266.87 31.9898 269.53 35.3998 273.82 35.3998C278.16 35.3998 280.77 31.8098 280.77 26.1298Z" fill="#32DB86"/>
</svg>
