<svg width="134" height="40" viewBox="0 0 134 40" fill="none" xmlns="http://www.w3.org/2000/svg">
<g clip-path="url(#clip0_5754_281369)">
<path fill-rule="evenodd" clip-rule="evenodd" d="M86.807 2.83299C85.689 3.90499 85.689 5.74299 86.807 6.85299C87.925 7.96299 89.777 7.96299 90.895 6.85299C92.013 5.74299 92.013 3.90499 90.895 2.83299C89.777 1.72299 87.925 1.72299 86.807 2.83299ZM109.278 10.345L106.655 10.765C101.653 11.898 98.402 13.519 98.402 18.97V29.908L102.953 30.826V19.653C102.953 17.106 104.402 15.955 106.655 15.53L109.278 15.053V10.345V10.345ZM74.64 29.953L79.191 30.871V18.506C79.191 12.572 74.563 10.428 71.362 10.428C69.202 10.428 67.506 10.964 65.963 12.457C64.383 10.964 62.493 10.39 60.95 10.39C58.752 10.39 56.823 11.347 55.55 12.878V10.811L51 11.691V29.953L55.55 30.871V18.314C55.55 16.324 57.016 14.907 59.215 14.907C61.375 14.907 62.84 16.323 62.84 18.314V29.953L67.39 30.871V18.314C67.39 16.324 68.855 14.907 71.015 14.907C73.175 14.907 74.64 16.323 74.64 18.314V29.953V29.953ZM133.469 20.676C133.469 26.37 128.804 31 123.107 31C117.372 31 112.707 26.37 112.707 20.676C112.707 15.02 117.372 10.39 123.107 10.39C128.804 10.39 133.469 15.02 133.469 20.676ZM123.107 26.711C119.781 26.711 117.066 24.016 117.066 20.676C117.066 17.374 119.781 14.716 123.107 14.716C126.434 14.716 129.11 17.374 129.11 20.676C129.11 24.016 126.434 26.711 123.107 26.711V26.711ZM91.087 31L86.537 29.953V11.56L91.087 10.642V31Z" fill="#050038"/>
<path d="M31.333 0H8.667C6.36837 0 4.16388 0.913128 2.53851 2.53851C0.913128 4.16388 0 6.36837 0 8.667L0 31.333C0 32.4712 0.224179 33.5982 0.659736 34.6497C1.09529 35.7012 1.7337 36.6567 2.53851 37.4615C4.16388 39.0869 6.36837 40 8.667 40H31.333C33.6316 39.9997 35.8359 39.0865 37.4612 37.4612C39.0865 35.8359 39.9997 33.6316 40 31.333V8.667C39.9997 6.36845 39.0865 4.16412 37.4612 2.5388C35.8359 0.913478 33.6316 0.000265161 31.333 0V0Z" fill="#FFD02F"/>
<path fill-rule="evenodd" clip-rule="evenodd" d="M27.784 5H23.394L27.053 11.429L19.002 5H14.612L18.637 12.857L10.223 5H5.83301L10.223 15L5.83301 35H10.223L18.638 13.571L14.613 35H19.003L27.053 12.143L23.393 35H27.783L35.832 10L27.783 5H27.784V5Z" fill="#050038"/>
</g>
<defs>
<clipPath id="clip0_5754_281369">
<rect width="134" height="40" fill="white"/>
</clipPath>
</defs>
</svg>
