<svg width="239" height="20" viewBox="0 0 239 20" fill="none" xmlns="http://www.w3.org/2000/svg">
<g clip-path="url(#clip0_5754_281390)">
<path fill-rule="evenodd" clip-rule="evenodd" d="M0.464 5.9859C0.411439 5.96803 0.355388 5.96288 0.300449 5.97087C0.245511 5.97886 0.193251 5.99977 0.147963 6.03188C0.102675 6.064 0.0656503 6.10639 0.0399289 6.15559C0.0142074 6.20479 0.000523191 6.25939 0 6.3149V19.1669C0 19.6269 0.378 19.9999 0.845 19.9999H3.945C4.16744 20.0012 4.38132 19.9143 4.53974 19.7581C4.69815 19.602 4.78815 19.3893 4.79 19.1669V8.2079C4.79 7.7299 4.48 7.3049 4.02 7.1539L0.464 5.9859ZM7.749 8.8609C7.749 8.6239 7.985 8.4569 8.213 8.5319L10.144 9.1669L12.076 8.5319C12.1286 8.5142 12.1846 8.50921 12.2395 8.51735C12.2944 8.52549 12.3466 8.54652 12.3917 8.57872C12.4369 8.61093 12.4738 8.65338 12.4994 8.70261C12.525 8.75183 12.5386 8.80642 12.539 8.86191V19.1669C12.5371 19.3893 12.4471 19.602 12.2887 19.7581C12.1303 19.9143 11.9164 20.0012 11.694 19.9999H8.594C8.37156 20.0012 8.15768 19.9143 7.99926 19.7581C7.84085 19.602 7.75085 19.3893 7.749 19.1669V8.8599V8.8609ZM16.269 7.1539C15.809 7.3049 15.498 7.7299 15.498 8.2079V19.1669C15.498 19.6269 15.877 19.9999 16.343 19.9999H19.443C19.6654 20.0012 19.8793 19.9143 20.0377 19.7581C20.1961 19.602 20.2862 19.3893 20.288 19.1669V6.3149C20.2876 6.25942 20.274 6.20483 20.2484 6.15561C20.2228 6.10638 20.1859 6.06393 20.1407 6.03172C20.0956 5.99952 20.0434 5.97849 19.9885 5.97035C19.9336 5.96221 19.8776 5.9672 19.825 5.9849L16.269 7.1549V7.1539Z" fill="#1BA778"/>
<path d="M10.144 6.38902L0.385 3.18202C0.273469 3.14597 0.176183 3.0756 0.10704 2.98096C0.0378965 2.88631 0.000432643 2.77223 0 2.65502V1.11102C0.00237839 0.814326 0.122389 0.530697 0.333686 0.322399C0.544984 0.114101 0.8303 -0.00184181 1.127 2.21311e-05H19.161C19.4577 -0.00184181 19.743 0.114101 19.9543 0.322399C20.1656 0.530697 20.2856 0.814326 20.288 1.11102V2.65502C20.288 2.89502 20.133 3.10702 19.903 3.18202L10.144 6.39002V6.38902Z" fill="#1BA778"/>
<path fill-rule="evenodd" clip-rule="evenodd" d="M190.929 5.34501C192.236 5.34501 192.681 6.11001 192.871 6.77701L192.867 6.78101C192.997 7.16101 193.187 7.34901 193.567 7.31901H195.225C195.575 7.31901 195.86 7.03301 195.86 6.68301C195.86 4.64901 194.173 2.73901 190.989 2.73901C187.484 2.73901 185.862 4.33301 185.862 6.71701C185.862 9.87701 188.311 10.6 190.364 11.206C191.846 11.643 193.122 12.02 193.122 13.208C193.122 14.446 192.491 14.861 190.899 14.861C188.859 14.861 188.574 13.543 188.468 13.049L188.458 13.003C188.453 12.9858 188.449 12.9685 188.446 12.951C188.371 12.729 188.19 12.413 187.84 12.413H186.183C186.014 12.4133 185.852 12.4805 185.733 12.5999C185.614 12.7194 185.547 12.8812 185.547 13.05C185.547 14.99 187.169 17.437 190.864 17.437C193.477 17.437 196.056 16.357 196.056 13.237C196.056 9.88701 193.486 9.15001 191.405 8.55301C189.987 8.14601 188.796 7.80501 188.796 6.74701C188.796 5.63201 189.592 5.34501 190.929 5.34501ZM209.779 3.62801C209.779 3.45932 209.712 3.29761 209.592 3.17823C209.473 3.05886 209.312 2.99154 209.143 2.99101H207.451C207.282 2.99128 207.12 3.05851 207.001 3.17794C206.882 3.29737 206.815 3.45924 206.815 3.62801V11.678C206.815 13.78 205.804 14.668 204.362 14.668C202.92 14.668 201.943 13.775 201.943 11.678V3.62801C201.943 3.45942 201.876 3.2977 201.757 3.17829C201.638 3.05889 201.477 2.99154 201.308 2.99101H199.621C199.452 2.99128 199.29 3.05851 199.171 3.17794C199.052 3.29737 198.985 3.45924 198.985 3.62801V11.678C198.985 15.241 201.153 17.438 204.367 17.438C207.581 17.438 209.779 15.241 209.779 11.678V3.62801ZM62.608 2.76801C65.858 2.76801 68.305 5.15301 68.305 8.72601V11.446C68.305 15.009 65.887 17.427 62.608 17.427C59.328 17.427 56.97 15.009 56.97 11.446V8.72001C56.97 5.15701 59.358 2.76301 62.608 2.76301V2.76801ZM62.608 14.664C64.105 14.664 65.347 13.554 65.347 11.48V8.77501C65.347 6.67801 64.105 5.56201 62.607 5.56201C61.111 5.56201 59.944 6.67201 59.944 8.77501V11.48C59.944 13.583 61.156 14.664 62.608 14.664ZM71.78 16.604V3.62701C71.78 3.27701 72.065 2.99001 72.416 2.99001H76.876C80.186 2.99001 82.609 5.37401 82.609 8.94701V11.301C82.609 14.865 80.156 17.283 76.877 17.283H72.416C72.066 17.253 71.78 16.967 71.78 16.617V16.602V16.604ZM74.709 14.442H76.842C78.339 14.442 79.581 13.331 79.581 11.258V8.96801C79.581 6.90001 78.339 5.78501 76.841 5.78501H74.71V14.442H74.709ZM53.5 3.62701V16.607C53.5 16.957 53.214 17.244 52.864 17.244H51.302C51.1332 17.2437 50.9715 17.1765 50.8522 17.0571C50.733 16.9377 50.666 16.7758 50.666 16.607V7.63501L47.482 16.83C47.357 17.146 47.162 17.245 46.951 17.245H45.384C45.099 17.245 44.968 17.117 44.874 16.865L41.584 7.60001V16.602C41.584 16.952 41.299 17.239 40.948 17.239H39.421C39.2523 17.2385 39.0907 17.1712 38.9715 17.0518C38.8523 16.9324 38.7853 16.7707 38.785 16.602V3.62801C38.785 3.27801 39.071 2.99101 39.421 2.99101H42.265C42.368 2.98379 42.4704 3.01088 42.5564 3.06805C42.6423 3.12522 42.7069 3.20925 42.74 3.30701L46.18 13.104L49.65 3.33601C49.715 3.20801 49.84 2.98601 50.095 2.98601H52.904C53.224 2.98601 53.51 3.27201 53.51 3.62301L53.5 3.62801V3.62701ZM89.013 5.76001H94.425C94.775 5.76001 95.061 5.47401 95.061 5.12301V3.62801C95.0607 3.45932 94.9937 3.29761 94.8745 3.17823C94.7553 3.05886 94.5937 2.99154 94.425 2.99101H86.685C86.5163 2.99154 86.3547 3.05886 86.2355 3.17823C86.1163 3.29761 86.0493 3.45932 86.049 3.62801V16.613C86.049 16.963 86.334 17.25 86.685 17.25H94.425C94.775 17.25 95.061 16.964 95.061 16.613V15.088C95.061 14.728 94.776 14.476 94.425 14.476H89.013V11.391H93.213C93.3816 11.3907 93.5432 11.3237 93.6624 11.2044C93.7816 11.0852 93.8487 10.9236 93.849 10.755V9.25901C93.8487 9.09032 93.7817 8.92861 93.6625 8.80923C93.5433 8.68986 93.3817 8.62254 93.213 8.62201H89.013V5.76001ZM100.763 17.24H99.076C98.9073 17.2395 98.7457 17.1722 98.6265 17.0528C98.5073 16.9334 98.4403 16.7717 98.44 16.603V3.62801C98.44 3.27801 98.726 2.99101 99.076 2.99101H104.554C107.067 2.99101 108.949 4.42201 108.949 7.25501V7.86701C108.949 9.77701 108.249 11.145 106.436 11.781L108.759 16.233L108.766 16.247C108.859 16.435 108.949 16.617 108.949 16.806C108.949 17.057 108.759 17.25 108.504 17.25H106.431C106.081 17.25 105.89 16.998 105.76 16.771L103.562 12.319H101.399V16.613C101.399 16.963 101.114 17.25 100.763 17.25V17.24ZM104.298 9.54501C105.254 9.54501 105.986 9.06701 105.986 7.82801V7.54201C105.986 6.26801 105.254 5.76001 104.298 5.76001H101.369V9.54501H104.298ZM123.499 16.608V3.62801C123.499 3.45932 123.432 3.29761 123.312 3.17823C123.193 3.05886 123.032 2.99154 122.863 2.99101H121.241C121.072 2.99128 120.91 3.05851 120.791 3.17794C120.672 3.29737 120.605 3.45924 120.605 3.62801V11.964L115.893 3.47001C115.798 3.30701 115.513 2.99101 115.162 2.99101H112.94C112.771 2.99128 112.609 3.05851 112.49 3.17794C112.371 3.29737 112.304 3.45924 112.304 3.62801V16.613C112.304 16.963 112.589 17.25 112.94 17.25H114.562C114.912 17.25 115.198 16.964 115.198 16.613V7.54701L120.264 16.515C120.694 17.247 120.998 17.246 121.217 17.245H122.863C123.213 17.245 123.499 16.959 123.499 16.608ZM133.117 2.99101C132.948 2.99128 132.786 3.05851 132.667 3.17794C132.548 3.29737 132.481 3.45924 132.481 3.62801L132.486 5.11301C132.486 5.46301 132.771 5.75001 133.121 5.75001H136.496V16.608C136.496 16.958 136.781 17.245 137.132 17.245H138.819C139.169 17.245 139.455 16.959 139.455 16.608V5.76001H142.829C142.998 5.75975 143.16 5.69252 143.279 5.57309C143.398 5.45366 143.465 5.29178 143.465 5.12301V3.62801C143.465 3.45924 143.398 3.29737 143.279 3.17794C143.16 3.05851 142.998 2.99128 142.829 2.99101H133.117ZM148.622 17.24H146.935C146.766 17.2397 146.604 17.1725 146.485 17.0531C146.366 16.9337 146.299 16.7718 146.299 16.603V3.62801C146.299 3.27801 146.584 2.99101 146.935 2.99101H152.412C154.925 2.99101 156.808 4.42201 156.808 7.25501V7.86701C156.808 9.77701 156.107 11.145 154.294 11.781L156.618 16.233L156.625 16.247C156.717 16.435 156.808 16.617 156.808 16.806C156.808 17.057 156.618 17.25 156.362 17.25H154.29C153.939 17.25 153.749 16.998 153.619 16.771L151.421 12.319H149.258V16.613C149.258 16.963 148.972 17.25 148.622 17.25V17.24ZM152.157 9.54501C153.113 9.54501 153.844 9.06701 153.844 7.82801V7.54201C153.844 6.26801 153.113 5.76001 152.157 5.76001H149.228V9.54501H152.157ZM163.146 5.76001H168.559C168.909 5.76001 169.194 5.47401 169.194 5.12301V3.62801C169.194 3.45942 169.127 3.2977 169.008 3.17829C168.889 3.05889 168.728 2.99154 168.559 2.99101H160.818C160.649 2.99154 160.488 3.05886 160.369 3.17823C160.249 3.29761 160.182 3.45932 160.182 3.62801V16.613C160.182 16.963 160.468 17.25 160.818 17.25H168.559C168.909 17.25 169.194 16.964 169.194 16.613V15.088C169.194 14.728 168.909 14.476 168.559 14.476H163.146V11.391H167.347C167.697 11.391 167.983 11.105 167.983 10.755V9.25901C167.983 9.09032 167.916 8.92861 167.796 8.80923C167.677 8.68986 167.516 8.62254 167.347 8.62201H163.146V5.76001ZM184.102 16.796C184.102 17.048 183.912 17.24 183.627 17.24H181.589C181.474 17.2461 181.359 17.2155 181.262 17.1526C181.165 17.0898 181.091 16.9978 181.049 16.89L180.222 14.441H174.935L174.109 16.89C174.014 17.176 173.789 17.27 173.634 17.27H171.696C171.441 17.27 171.22 17.077 171.22 16.825C171.22 16.743 171.247 16.662 171.275 16.581C171.29 16.536 171.305 16.491 171.316 16.445L175.932 3.46501C175.973 3.33616 176.053 3.22363 176.162 3.14378C176.271 3.06394 176.403 3.02093 176.538 3.02101H178.83C179.181 3.02101 179.371 3.27201 179.436 3.46501L183.912 16.287C183.977 16.287 184.102 16.637 184.102 16.796ZM179.391 11.766L177.674 6.42101L175.857 11.766H179.391ZM215.767 17.24H214.079C213.91 17.2395 213.749 17.1721 213.63 17.0527C213.511 16.9333 213.444 16.7716 213.444 16.603V3.62801C213.444 3.27801 213.729 2.99101 214.079 2.99101H219.557C222.07 2.99101 223.953 4.42201 223.953 7.25501V7.86701C223.953 9.77701 223.252 11.145 221.439 11.781L223.762 16.233L223.769 16.247C223.862 16.435 223.953 16.617 223.953 16.806C223.954 16.8648 223.943 16.9232 223.921 16.9777C223.899 17.0322 223.866 17.0816 223.825 17.1231C223.783 17.1646 223.733 17.1972 223.679 17.219C223.624 17.2408 223.566 17.2514 223.507 17.25H221.434C221.084 17.25 220.894 16.998 220.763 16.771L218.565 12.319H216.403V16.613C216.403 16.963 216.117 17.25 215.767 17.25V17.24ZM219.337 9.54501C220.293 9.54501 221.024 9.06701 221.024 7.82801V7.54201C221.024 6.26801 220.293 5.76001 219.337 5.76001H216.407V9.54501H219.337ZM237.739 4.18701C237.867 3.96401 238.035 3.67301 238.035 3.46501V3.46001C238.038 3.39515 238.028 3.33035 238.005 3.26943C237.983 3.2085 237.949 3.15269 237.904 3.10526C237.86 3.05784 237.806 3.01976 237.747 2.99327C237.688 2.96678 237.624 2.95241 237.559 2.95101H235.552C235.248 2.95101 235.136 3.11801 235.05 3.24601C235.038 3.26511 235.025 3.28378 235.011 3.30201L231.922 9.15601L228.928 3.33601C228.803 3.05601 228.612 2.95601 228.452 2.95601H226.269C226.145 2.95994 226.028 3.01256 225.943 3.10244C225.858 3.19232 225.811 3.3122 225.814 3.43601C225.814 3.60501 225.962 3.84901 226.062 4.01201C226.093 4.06201 226.119 4.10601 226.134 4.13601L230.4 11.929V16.603C230.4 16.953 230.685 17.24 231.036 17.24H232.723C233.073 17.24 233.359 16.954 233.359 16.603V11.988L237.715 4.23001L237.739 4.18701Z" fill="#1BA778"/>
</g>
<defs>
<clipPath id="clip0_5754_281390">
<rect width="239" height="20" fill="white"/>
</clipPath>
</defs>
</svg>
