<svg width="140" height="42" viewBox="0 0 140 42" fill="none" xmlns="http://www.w3.org/2000/svg">
<g clip-path="url(#clip0_1_137)">
<mask id="mask0_1_137" style="mask-type:luminance" maskUnits="userSpaceOnUse" x="0" y="0" width="140" height="42">
<path d="M140 0H0V42H140V0Z" fill="white"/>
</mask>
<g mask="url(#mask0_1_137)">
<path d="M2.90243 28.5404C2.38663 28.5416 1.87977 28.4057 1.43365 28.1468C0.98752 27.888 0.618109 27.5153 0.363152 27.067C0.112099 26.6217 -0.0131085 26.1166 0.000943041 25.6057C0.0149946 25.0947 0.167775 24.5973 0.44292 24.1665L5.67213 15.9548C5.93977 15.5135 6.31976 15.1512 6.77329 14.9048C7.22681 14.6583 7.73761 14.5367 8.25351 14.5523C8.76902 14.5646 9.272 14.7137 9.71097 14.9843C10.1499 15.2549 10.5091 15.6373 10.7518 16.0923C11.2393 17.014 11.1783 18.123 10.5945 18.9883L5.36857 27.1999C5.10357 27.6129 4.7386 27.9522 4.30748 28.1866C3.87638 28.421 3.3931 28.5426 2.90243 28.5404Z" fill="#F62B54"/>
<path d="M11.872 28.5403C10.8173 28.5403 9.84679 27.9763 9.33717 27.0701C9.08666 26.626 8.96176 26.1223 8.9758 25.6127C8.98985 25.1031 9.14236 24.607 9.41692 24.1774L14.6362 15.9846C14.8999 15.5371 15.2785 15.1682 15.7328 14.9163C16.1871 14.6644 16.7005 14.5387 17.2197 14.552C18.2833 14.5754 19.2472 15.1703 19.7347 16.1008C20.2188 17.0316 20.148 18.1472 19.5464 19.0102L14.3282 27.203C14.064 27.6142 13.7005 27.9522 13.2712 28.1859C12.842 28.4197 12.3608 28.5415 11.872 28.5403Z" fill="#FFCC00"/>
<path d="M20.6409 28.6089C22.1277 28.6089 23.3331 27.4289 23.3331 25.9732C23.3331 24.5176 22.1277 23.3376 20.6409 23.3376C19.1541 23.3376 17.9487 24.5176 17.9487 25.9732C17.9487 27.4289 19.1541 28.6089 20.6409 28.6089Z" fill="#00CA72"/>
<path d="M137.596 23.4905C138.409 23.4905 138.895 24.0688 138.895 25.016V28.2622H140V24.9418C140 23.331 139.241 22.3971 137.814 22.3971C137.256 22.3971 136.37 22.5499 135.841 23.577C135.718 23.274 135.516 23.01 135.255 22.813C134.994 22.616 134.685 22.4932 134.36 22.458C134.155 22.4204 133.947 22.4083 133.739 22.4214C133.285 22.458 132.476 22.7405 132.174 23.3808V22.52H131.068V28.2622H132.174V25.1635C132.174 23.9581 132.963 23.4905 133.753 23.4905C134.493 23.4905 134.979 24.0566 134.979 25.0039V28.2622H136.078V25.1635C136.078 24.204 136.654 23.4794 137.596 23.4905ZM127.01 27.3028C127.515 27.3139 128.003 27.1121 128.356 26.7466C128.711 26.381 128.899 25.8835 128.88 25.3728C128.88 24.2162 128.029 23.4905 127.01 23.4905C125.99 23.4905 125.14 24.2162 125.14 25.3728C125.12 25.8825 125.308 26.3788 125.661 26.7432C126.013 27.1089 126.498 27.3116 127.001 27.3028H127.01ZM127.01 28.3795C125.395 28.3795 124.046 27.1865 124.046 25.3662C124.046 23.5459 125.395 22.3903 127.01 22.3903C128.625 22.3903 129.985 23.5459 129.985 25.3662C129.985 27.1865 128.618 28.3851 127.002 28.3851L127.01 28.3795ZM118.357 25.3662L118.346 25.3728C118.346 23.5525 119.73 22.3971 121.356 22.3903C121.765 22.3825 122.171 22.4605 122.547 22.6192C122.924 22.778 123.263 23.014 123.542 23.3121L122.705 24.0257C122.527 23.851 122.316 23.7132 122.085 23.6204C121.853 23.5276 121.606 23.4816 121.356 23.485C120.337 23.485 119.451 24.2106 119.451 25.3662C119.451 26.1472 119.915 26.8507 120.627 27.1499C121.34 27.449 122.16 27.2828 122.705 26.731L123.555 27.4445C123.274 27.7458 122.934 27.9846 122.555 28.1456C122.176 28.3067 121.768 28.3864 121.356 28.3795C119.742 28.3795 118.357 27.1865 118.357 25.3662ZM114.82 27.1599C114.819 27.0595 114.837 26.9598 114.875 26.8666C114.912 26.7735 114.967 26.6885 115.038 26.6167C115.108 26.5448 115.191 26.4876 115.284 26.4481C115.376 26.4086 115.475 26.3876 115.576 26.3865C115.676 26.3876 115.775 26.4086 115.867 26.4481C115.96 26.4876 116.043 26.5448 116.113 26.6167C116.184 26.6885 116.239 26.7735 116.276 26.8666C116.314 26.9598 116.332 27.0595 116.331 27.1599C116.321 27.3542 116.238 27.5376 116.097 27.6724C115.957 27.8072 115.77 27.8835 115.576 27.8855C115.381 27.8835 115.194 27.8072 115.054 27.6724C114.914 27.5376 114.83 27.3542 114.82 27.1599Z" fill="#333333"/>
<path fill-rule="evenodd" clip-rule="evenodd" d="M117.842 15.2201H113.908L111.151 22.3294L108.408 15.2201H104.473L109.256 26.4541L106.282 33.8814H110.187L117.842 15.2201ZM93.9165 21.4686C93.9165 23.2634 95.4852 24.4444 97.0263 24.4444C98.5407 24.4444 100.029 23.3454 100.029 21.4675C100.029 19.5896 98.5407 18.4895 97.0263 18.4895C95.4852 18.4895 93.9165 19.6727 93.9165 21.4686ZM100.029 27.7414V26.32C99.2309 27.5276 97.3697 27.984 96.4147 27.984C93.2528 27.984 90.0897 25.4913 90.0897 21.4675C90.0897 17.4448 93.2516 14.952 96.4147 14.952C97.2113 14.952 99.0726 15.2179 100.029 16.6138V15.2246H103.696V27.7437L100.029 27.7414ZM89.0462 27.7414H85.379V26.186C84.7664 27.3382 83.2807 28.0095 81.7386 28.0095C78.549 28.0095 75.7316 25.4625 75.7316 21.5184C75.7316 17.5001 78.549 14.9498 81.7386 14.9498C83.2785 14.9498 84.7686 15.5924 85.379 16.7457V8.39999H89.0462V27.7414ZM85.2994 21.4397C85.2994 19.563 83.9443 18.4629 82.4299 18.4629C80.8611 18.4629 79.5582 19.6428 79.5582 21.4397C79.5582 23.2945 80.8611 24.4688 82.4288 24.4688C83.972 24.471 85.2994 23.2368 85.2994 21.4397ZM66.6647 21.1163C66.6647 19.2129 67.6484 18.5693 68.9503 18.5693C70.1988 18.5693 71.1028 19.4002 71.1028 21.062V27.7392H74.7966V20.2588C74.7966 16.6936 73.0417 14.9498 70.2509 14.9498C68.7896 14.9498 67.3283 15.7808 66.6635 17.0415V15.2201H62.9722V27.7392H66.6647V21.1163ZM55.4717 27.9542C51.9641 27.9542 49.0382 25.3806 49.0382 21.4388C49.0382 17.4947 51.9609 14.9465 55.4717 14.9465C58.9826 14.9465 61.9307 17.4947 61.9307 21.4388C61.9307 25.3827 58.9792 27.9542 55.4717 27.9542ZM55.4717 24.3092C57.0117 24.3092 58.289 23.1813 58.289 21.4397C58.289 19.7502 57.0128 18.597 55.4717 18.597C55.1007 18.5912 54.7323 18.661 54.389 18.8021C54.0459 18.9433 53.735 19.1527 53.4753 19.4179C53.2142 19.6846 53.0092 20.0008 52.8728 20.3482C52.7363 20.6955 52.6711 21.0668 52.6809 21.4397C52.682 23.1836 53.9573 24.3092 55.4717 24.3092ZM42.4164 18.5704C43.5054 18.5704 44.4626 19.4291 44.4626 21.0631V27.7414H48.1298V20.6311C48.1298 16.851 46.2917 14.9477 43.346 14.9477C42.4707 14.9477 40.8222 15.2135 39.6256 17.1723C38.9343 15.7242 37.606 14.9731 35.6428 14.9731C34.9612 14.9696 34.293 15.1626 33.7182 15.5288C33.1433 15.8949 32.6861 16.4189 32.4011 17.0381V15.2212H28.7052V27.7403H32.3978V21.1163C32.3978 19.2129 33.4348 18.5693 34.5505 18.5693C35.6139 18.5693 36.569 19.4002 36.5967 20.9822V27.7403H40.2903V21.1163C40.2903 19.2961 41.2475 18.5704 42.4164 18.5704Z" fill="#333333"/>
</g>
</g>
<defs>
<clipPath id="clip0_1_137">
<rect width="140" height="42" fill="white"/>
</clipPath>
</defs>
</svg>
