<svg width="150" height="50" viewBox="0 0 150 50" fill="none" xmlns="http://www.w3.org/2000/svg">
<g clip-path="url(#clip0_5754_281408)">
<path d="M6.00833 2.15676L33.675 0.113424C37.0733 -0.178242 37.9467 0.0184246 40.0833 1.57176L48.915 7.79343C50.3717 8.86343 50.8567 9.15509 50.8567 10.3201V44.4418C50.8567 46.5801 50.08 47.8451 47.3617 48.0384L15.2333 49.9834C13.1933 50.0801 12.2217 49.7884 11.1533 48.4268L4.65 39.9701C3.48333 38.4134 3 37.2484 3 35.8868V5.55676C3 3.80842 3.77667 2.35009 6.00833 2.15676Z" fill="white"/>
<path fill-rule="evenodd" clip-rule="evenodd" d="M33.675 0.113424L6.00833 2.15676C3.77667 2.35009 3 3.80842 3 5.55676V35.8868C3 37.2484 3.48333 38.4134 4.65 39.9701L11.1533 48.4268C12.2217 49.7884 13.1933 50.0801 15.2333 49.9834L47.3617 48.0384C50.0783 47.8451 50.8567 46.5801 50.8567 44.4418V10.3201C50.8567 9.21509 50.42 8.89676 49.135 7.95342C49.0611 7.90016 48.9872 7.84683 48.9133 7.79343L40.0833 1.57176C37.9467 0.0184246 37.0733 -0.178242 33.675 0.113424ZM15.96 9.76176C13.3367 9.93842 12.7417 9.97843 11.2517 8.76676L7.46333 5.75342C7.07833 5.36342 7.27167 4.87676 8.24167 4.78009L34.8383 2.83676C37.0717 2.64176 38.235 3.42009 39.1083 4.10009L43.67 7.40509C43.865 7.50342 44.35 8.08509 43.7667 8.08509L16.3 9.73842L15.96 9.76176ZM12.9017 44.1501V15.1834C12.9017 13.9184 13.29 13.3351 14.4533 13.2368L46 11.3901C47.07 11.2934 47.5533 11.9734 47.5533 13.2368V42.0101C47.5533 43.2751 47.3583 44.3451 45.6117 44.4418L15.4233 46.1918C13.6767 46.2884 12.9017 45.7068 12.9017 44.1501ZM42.7017 16.7368C42.895 17.6118 42.7017 18.4868 41.8267 18.5868L40.3717 18.8751V40.2618C39.1083 40.9418 37.945 41.3301 36.9733 41.3301C35.42 41.3301 35.0317 40.8434 33.8683 39.3868L24.3533 24.4168V38.9001L27.3633 39.5818C27.3633 39.5818 27.3633 41.3318 24.935 41.3318L18.24 41.7201C18.045 41.3301 18.24 40.3584 18.9183 40.1651L20.6667 39.6801V20.5301L18.24 20.3334C18.045 19.4584 18.53 18.1951 19.89 18.0968L27.0733 17.6134L36.9733 32.7768V19.3618L34.45 19.0718C34.255 18.0001 35.0317 17.2218 36.0017 17.1268L42.7017 16.7368Z" fill="black"/>
<path d="M72.0568 35.4182V22.2349H72.2851L81.7918 35.4182H84.7851V16.0449H81.4568V29.2149H81.2285L71.7218 16.0449H68.7168V35.4166H72.0585L72.0568 35.4182ZM94.1918 35.7149C98.5835 35.7149 101.255 32.8416 101.255 28.0749C101.255 23.3216 98.5701 20.4349 94.1918 20.4349C89.8285 20.4349 87.1301 23.3349 87.1301 28.0749C87.1301 32.8416 89.7885 35.7149 94.1918 35.7149ZM94.1918 32.9216C91.8701 32.9216 90.5418 31.1499 90.5418 28.0749C90.5418 25.0132 91.8701 23.2282 94.1918 23.2282C96.5018 23.2282 97.8301 25.0132 97.8301 28.0749C97.8301 31.1499 96.5151 32.9216 94.1918 32.9216ZM104.297 17.1332V20.8249H101.975V23.4832H104.297V31.4982C104.297 34.3449 105.64 35.4866 109.01 35.4866C109.653 35.4866 110.272 35.4199 110.755 35.3249V32.7199C110.352 32.7599 110.097 32.7866 109.627 32.7866C108.232 32.7866 107.613 32.1432 107.613 30.6932V23.4832H110.755V20.8249H107.613V17.1316H104.297V17.1332ZM112.75 35.4182H116.067V20.7299H112.75V35.4182ZM114.402 18.3016C115.502 18.3016 116.388 17.4132 116.388 16.2999C116.388 15.1849 115.503 14.2849 114.402 14.2849C113.315 14.2849 112.415 15.1849 112.415 16.2999C112.415 17.4132 113.315 18.2999 114.402 18.2999V18.3016ZM125.165 35.7149C129.555 35.7149 132.227 32.8416 132.227 28.0749C132.227 23.3216 129.542 20.4349 125.165 20.4349C120.8 20.4349 118.102 23.3349 118.102 28.0749C118.102 32.8416 120.76 35.7149 125.165 35.7149ZM125.165 32.9216C122.842 32.9216 121.512 31.1499 121.512 28.0749C121.512 25.0132 122.842 23.2282 125.165 23.2282C127.473 23.2282 128.803 25.0132 128.803 28.0749C128.803 31.1499 127.487 32.9216 125.165 32.9216ZM134.208 35.4182H137.538V26.8666C137.538 24.7049 138.788 23.3349 140.773 23.3349C142.802 23.3349 143.74 24.4632 143.74 26.7049V35.4182H147.072V25.9132C147.072 22.4082 145.285 20.4349 142.01 20.4349C139.82 20.4349 138.343 21.4416 137.645 23.0799H137.417V20.7299H134.208V35.4182Z" fill="black"/>
</g>
<defs>
<clipPath id="clip0_5754_281408">
<rect width="150" height="50" fill="white"/>
</clipPath>
</defs>
</svg>
