<svg width="618" height="195" viewBox="0 0 618 195" fill="none" xmlns="http://www.w3.org/2000/svg">
<path d="M91 105.6C83.7 131.6 77.68 153.44 77.19 156.4C77.0014 157.905 76.2668 159.288 75.1258 160.287C73.9847 161.286 72.5166 161.832 71 161.82H70.31C68.6876 161.629 67.2062 160.806 66.1876 159.529C65.1689 158.252 64.6954 156.624 64.87 155C65.14 152.56 70.03 134.58 76 113.2C67.56 117.13 60.62 119.67 56.34 120.2C55.6508 120.296 54.9559 120.346 54.26 120.35C50.07 120.35 47.96 118.35 46.91 116.59C46.2426 115.44 45.963 114.107 46.1125 112.786C46.262 111.465 46.8326 110.228 47.7399 109.257C48.6473 108.285 49.8431 107.632 51.1506 107.393C52.4581 107.154 53.8078 107.342 55 107.93C58.68 107.41 68.1 103.54 80.48 97.12C86.69 75.05 93.11 52.54 96.31 41.34C96.7921 39.7985 97.8576 38.5065 99.279 37.7398C100.7 36.973 102.365 36.7922 103.918 37.2359C105.471 37.6795 106.789 38.7126 107.591 40.1146C108.393 41.5166 108.615 43.1765 108.21 44.74C104.41 58.04 99.99 73.56 95.7 88.74C101.04 85.65 106.7 82.23 112.38 78.54C143.31 58.54 164.38 39.42 168.63 27.23C170.23 22.68 169.06 20.58 166.8 18.83C161.38 14.62 144.72 14.1 114.2 25.24C68.46 41.93 20.14 74.34 15.53 91.24C16.0009 91.3322 16.4801 91.3758 16.96 91.37C17.7881 91.3039 18.6211 91.4051 19.4093 91.6677C20.1975 91.9304 20.9248 92.349 21.5478 92.8986C22.1708 93.4483 22.6768 94.1177 23.0356 94.867C23.3944 95.6163 23.5987 96.4302 23.6363 97.2602C23.6739 98.0901 23.544 98.9191 23.2544 99.6978C22.9649 100.477 22.5215 101.189 21.9508 101.793C21.38 102.396 20.6936 102.879 19.9324 103.212C19.1712 103.545 18.3507 103.721 17.52 103.73C16.21 103.79 9.44998 103.89 5.51998 99.23C4.3937 97.8529 3.60687 96.2305 3.22298 94.4934C2.83909 92.7563 2.8689 90.9534 3.30998 89.23C6.38998 74.8 26.08 59 42.05 48.21C63.2809 34.0794 86.0843 22.4679 110 13.61C131.82 5.60997 160.71 -1.61003 174.44 9.03997C180.84 14.04 183.16 21.2 180.98 29.3C178.17 39.77 165.78 58.21 122.73 86.58C112 93.65 101 100.19 91 105.6ZM506.34 97.31C501.58 110.48 490.43 141.31 504.26 147.65C505.696 148.368 506.796 149.615 507.33 151.128C507.864 152.642 507.789 154.304 507.121 155.763C506.453 157.223 505.244 158.366 503.749 158.951C502.255 159.536 500.591 159.518 499.11 158.9C481.56 150.9 483.78 129.2 488.77 111.13C469.08 134.48 456.77 146.33 447.01 146.33C445.524 146.348 444.056 146.007 442.729 145.337C441.403 144.666 440.257 143.687 439.39 142.48C434.14 135.27 437.57 120.69 447.8 88.62C448.15 87.52 448.51 86.38 448.88 85.23C447.98 86.41 447.013 87.7433 445.98 89.23C439.69 98.23 433.13 109.65 427.34 119.73C423.34 126.73 419.82 132.85 416.87 137.35C413.92 141.85 409.57 148.52 403.38 146.21C402.446 145.848 401.593 145.303 400.872 144.608C400.151 143.912 399.576 143.08 399.18 142.16C398.18 139.83 396.18 135.49 403.92 104.36C405.24 99.04 406.67 93.64 408.01 88.8C397.55 98.04 388.36 103.39 380.69 106.41C379.791 111.578 378.126 116.583 375.75 121.26C364.4 143.71 350.67 154.35 337.1 151.26C331.89 150.06 327.99 146.35 326.1 140.83C321.41 127.14 329.59 105.46 347.99 82.83C348.81 81.8194 349.928 81.0936 351.185 80.756C352.442 80.4184 353.774 80.4863 354.99 80.95C356.258 79.9323 357.594 79.0034 358.99 78.17C363.87 75.32 368.08 74.66 371.51 76.17C375.78 78.17 378.16 82.73 379.4 86.26C380.12 88.3429 380.642 90.4891 380.96 92.67C388.88 88.67 398.91 81.53 410.66 68.86C413.16 66.16 417.82 61.15 422.97 64.38C428.12 67.61 425.66 73.66 424.52 76.59C422.91 80.71 416.61 103.1 413.03 119.77C414.25 117.67 415.46 115.56 416.61 113.55C433.81 83.55 446.01 63.86 458.27 62.89C459.347 62.8038 460.428 62.9841 461.419 63.4149C462.409 63.8456 463.279 64.5137 463.95 65.36C466.89 69.07 465.81 72.86 459.59 92.36C456.36 102.47 449.27 124.71 449.26 133.11C451.55 131.9 455.79 128.92 462.92 121.63C470.57 113.81 478.74 103.93 485.3 96C495.64 83.5 497.92 81 500.8 80C501.961 79.5735 503.219 79.4892 504.426 79.7568C505.633 80.0245 506.738 80.6329 507.61 81.51C510.84 84.79 509.61 88.2 506.31 97.31H506.34ZM367.09 109.77C365.219 109.952 363.337 109.989 361.46 109.88C355.46 109.5 350.55 107.46 347.64 104.22C337.1 120.96 336.16 132.22 337.73 136.74C338.44 138.81 339.44 139.05 339.82 139.13C347.07 140.81 356.35 132.03 364.63 115.65C365.593 113.753 366.415 111.787 367.09 109.77V109.77ZM368.87 97C368.798 93.8652 368.015 90.7878 366.58 88C363.58 89.22 358.58 93.77 357.48 96.38C359.337 97.2305 361.369 97.6313 363.41 97.55C365.245 97.5654 367.075 97.381 368.87 97V97ZM614.56 77.48C597.94 95.85 583.56 103.33 572.41 105.8C571.382 109.021 570.091 112.151 568.55 115.16C555.21 141.29 542.39 147.83 532.91 147.83C531.465 147.828 530.024 147.678 528.61 147.38C523.51 146.29 519.61 142.75 517.74 137.38C512.74 123.38 521.51 100.22 541.26 75.51C542.065 74.4786 543.176 73.7292 544.434 73.3698C545.692 73.0104 547.032 73.0595 548.26 73.51C553.19 69.34 559.86 65.65 565.32 68.1C568.6 69.57 571.23 72.9 572.93 77.73C574.454 82.3841 575.108 87.279 574.86 92.17C583.07 89.17 593.33 82.47 605.43 69.1C606.543 67.9311 608.069 67.2431 609.681 67.1828C611.294 67.1224 612.867 67.6944 614.064 68.7769C615.262 69.8594 615.989 71.3666 616.091 72.9775C616.193 74.5883 615.661 76.1752 614.61 77.4L614.56 77.48ZM558.91 106.58C550.01 105.52 543.76 101.41 540.62 97.67C537.001 103.312 533.984 109.318 531.62 115.59C528.94 122.95 528.12 129.59 529.44 133.24C530.08 135.03 530.88 135.24 531.23 135.24C538.67 136.82 548.54 127.24 557.58 109.5C558 108.53 558.5 107.55 558.91 106.58V106.58ZM560.47 80.13C557.04 81.65 551.29 87.26 550.42 90.06C551.73 91.37 555.42 93.98 561.61 94.4H562.21C563 87.56 561.73 82.34 560.47 80.13V80.13ZM528.84 46.7C530.29 41.11 527.44 35.52 522.45 34.22C517.46 32.92 512.25 36.4 510.78 42C509.31 47.6 512.19 53.17 517.17 54.47C522.15 55.77 527.37 52.29 528.84 46.7ZM325.35 71C322.76 69.66 318.79 69.93 316.35 70.27C304 72 290.29 80.56 285.62 85.84C287.28 86.57 289.62 87.39 291.46 88.06C300.4 91.24 312.65 95.61 317.6 106.54C320.6 113.24 320.35 121.27 316.73 130.4C305.82 157.92 284.34 164.7 272.26 164.7C270.209 164.737 268.162 164.488 266.18 163.96C258.88 161.8 253.59 157.26 250.88 150.84C244.09 134.78 255.48 112.19 256.8 109.67C257.177 108.948 257.692 108.307 258.317 107.784C258.942 107.261 259.663 106.866 260.44 106.621C261.218 106.377 262.035 106.289 262.847 106.36C263.658 106.432 264.448 106.663 265.17 107.04C265.892 107.417 266.533 107.932 267.056 108.557C267.579 109.182 267.974 109.903 268.218 110.68C268.463 111.458 268.551 112.275 268.48 113.087C268.408 113.898 268.177 114.688 267.8 115.41C264.97 120.84 258.47 136.95 262.32 146.03C263.6 149.03 265.96 150.98 269.75 152.1C270.87 152.43 277.06 153 284.75 149.39C291 146.47 299.62 140.01 305.23 125.84C307.57 119.95 307.94 115.18 306.34 111.65C303.55 105.5 294.55 102.29 287.34 99.71C280.34 97.23 274.86 95.27 272.76 90.37C272.275 89.2161 272.03 87.9755 272.04 86.7238C272.05 85.4721 272.316 84.2357 272.82 83.09C255.11 86.09 240.88 97.37 230.45 116.65C226.504 124.06 223.363 131.871 221.08 139.95C219.36 147.61 218.08 152.95 218.08 153C217.765 154.357 217.001 155.568 215.912 156.438C214.823 157.307 213.473 157.783 212.08 157.79C211.698 157.791 211.316 157.758 210.94 157.69C209.372 157.399 207.976 156.514 207.045 155.219C206.113 153.924 205.717 152.319 205.94 150.74C206.707 145.908 207.789 141.131 209.18 136.44C212.18 122.91 215.1 109.6 217.18 99.24C204.3 116.59 172.68 155.92 150.69 156.07C144.4 156.15 139.19 153.23 135.6 147.72C135.18 147.077 134.799 146.409 134.46 145.72C131.021 147.034 127.45 147.976 123.81 148.53C113.96 149.98 105.27 147.92 98.7 142.6C97.4527 141.558 96.6653 140.067 96.5078 138.45C96.3502 136.832 96.8352 135.217 97.858 133.954C98.8809 132.691 100.359 131.881 101.974 131.699C103.589 131.516 105.211 131.977 106.49 132.98C111.31 136.89 117.59 136.93 122.01 136.29C125.419 135.76 128.748 134.806 131.92 133.45C131.77 119.57 138.27 103.51 140.92 97.64C148.65 80.16 162 60.7 176.17 58.47C182.9 57.41 188.52 59.61 191.61 64.47C198.4 75.24 189.27 93 180.42 106C170.18 121 157.99 132.88 145.58 140.31C145.694 140.555 145.824 140.792 145.97 141.02C147.55 143.44 149.18 143.78 150.6 143.75C154.12 143.75 164.7 141.03 186.93 116.62C196.117 106.504 204.654 95.8155 212.49 84.62L213.61 82.83C217.8 76.12 220.85 71.27 226.24 71.83C227.667 72.0191 229.009 72.616 230.105 73.549C231.202 74.482 232.005 75.7115 232.42 77.09C232.96 78.65 233.42 80.09 230.78 94.2C244.33 78.36 261.87 70 282.35 69.87C283.181 69.8721 284.004 70.0386 284.77 70.36C293.29 64.36 304.67 59.42 314.59 58C326.75 56.27 333.09 60.41 336.28 64.2C339.47 67.99 340.47 75.2 327.05 88.09C326.472 88.6906 325.778 89.1682 325.011 89.4941C324.243 89.82 323.418 89.9875 322.584 89.9865C321.75 89.9856 320.925 89.8162 320.159 89.4886C319.392 89.161 318.699 88.6819 318.122 88.08C317.545 87.4781 317.096 86.7658 316.801 85.986C316.506 85.2061 316.372 84.3747 316.406 83.5417C316.441 82.7086 316.643 81.8911 317.001 81.1382C317.359 80.3852 317.865 79.7124 318.49 79.16C321.088 76.7179 323.391 73.9792 325.35 71V71ZM144.91 126C153.79 119.5 162.52 110.28 170.2 99C182.36 81.17 182.2 72.85 181.2 71.15C180.95 70.76 180.2 70.62 179.44 70.62C179.005 70.6227 178.57 70.6561 178.14 70.72C169.89 72.02 158.86 87.78 152.23 102.72C148.794 110.131 146.334 117.956 144.91 126V126ZM599.91 181.26H16.71V193.64H599.9L599.91 181.26Z" fill="black"/>
</svg>
