<svg width="3258" height="699" viewBox="0 0 3258 699" fill="none" xmlns="http://www.w3.org/2000/svg">
<g clip-path="url(#clip0_5754_281447)">
<path d="M0 0V411.89L196.28 698.87H423.62L304.52 411.89H572.84V0H0ZM1057.12 440.11H969.94V596.73H859.26V102.53H1057.12C1156.66 102.53 1231.12 176.31 1231.12 271.67C1231.12 367.03 1156.64 440.11 1057.12 440.11ZM1052.25 206.93H969.94V336.4H1052.25C1091.92 336.4 1120.46 307.86 1120.46 271.67C1120.46 234.77 1091.92 206.93 1052.25 206.93V206.93ZM1252 422.71C1252 320.39 1334.86 241 1435.09 241C1535.32 241 1618.16 320.35 1618.16 422.67C1618.16 524.99 1535.32 604.34 1435.09 604.34C1334.86 604.34 1252 525 1252 422.71ZM1512.32 422.71C1512.32 373.29 1478.91 339.18 1435.06 339.18C1391.21 339.18 1357.8 373.29 1357.8 422.71C1357.8 472.13 1391.21 506.24 1435.06 506.24C1478.91 506.24 1512.32 472.13 1512.32 422.71V422.71ZM1662 422.71C1662 323.87 1732.29 241.04 1823.48 241.04C1870.11 241.04 1908.15 264.71 1922.07 283.5V89.89H2027.17V596.72H1922.1V551.78C1907.04 578.28 1870.1 604.38 1823.51 604.38C1732.32 604.38 1662.03 521.55 1662.03 422.71H1662ZM1926.52 422.71C1926.52 372.6 1894.52 336.4 1847.17 336.4C1799.82 336.4 1767.83 372.6 1767.83 422.71C1767.83 472.82 1799.83 509.02 1847.17 509.02C1894.51 509.02 1926.52 472.83 1926.52 422.71ZM2113.53 248.7H2218.63V596.73H2113.53V248.7ZM2300.77 447.08V248.7H2405.87V429C2405.87 479.81 2420.49 509 2459.47 509C2499.14 509 2524.9 481.86 2524.9 417.82V248.7H2630V596.7H2524.9V551.09C2509.45 582.52 2477.57 604.38 2432.32 604.38C2346.01 604.38 2300.77 541.74 2300.77 447.08V447.08ZM2716.33 248.7H2821.43V294.34C2834.89 266.99 2869.43 241.04 2910.53 241.04C2960.65 241.04 3007.86 266.63 3023.07 313.33C3038.29 268.41 3076.49 241.04 3124.91 241.04C3209.83 241.04 3257.16 301.6 3257.16 398.35V596.73H3152.06V416.45C3152.06 365.63 3137.44 336.4 3101.94 336.4C3065.05 336.4 3039.29 364.24 3039.29 427.59V596.73H2934.19V416.45C2934.19 365.63 2919.57 336.4 2884.07 336.4C2847.18 336.4 2821.43 364.24 2821.43 427.59V596.73H2716.33V248.7ZM2112.82 89.89H2218.64V185.56H2112.82V89.89Z" fill="black"/>
</g>
<defs>
<clipPath id="clip0_5754_281447">
<rect width="3257.16" height="698.87" fill="white"/>
</clipPath>
</defs>
</svg>
