<svg width="101" height="34" viewBox="0 0 101 34" fill="none" xmlns="http://www.w3.org/2000/svg">
<path fill-rule="evenodd" clip-rule="evenodd" d="M43.4751 11.3449V16.3599C45.9981 16.1429 47.9731 15.9449 47.9731 13.4969C47.9731 11.9279 47.0661 11.3449 44.6261 11.3449H43.4751V11.3449ZM51.8661 13.3929C51.8661 15.8559 50.8021 17.3769 48.5241 18.1659C49.1641 18.6189 49.7981 19.5959 50.2841 20.8859L52.1741 26.0219H47.6731L46.4871 21.9879C46.0301 20.4039 45.3411 19.3179 44.8781 18.8519L43.4451 18.9689V26.0219H39.4751V8.36194H44.7751C48.4571 8.36194 51.8661 8.97194 51.8661 13.3929ZM63.0131 8.36294L68.1871 26.0219H63.9751L63.1851 22.6229H57.9741L57.1841 26.0219H52.9701L58.1441 8.36194H63.0121L63.0131 8.36294ZM60.5001 11.9999L58.0001 20.4999H63.0001L60.5001 11.9999ZM70.1321 26.0219H74.1301V8.36194H70.1321V26.0219ZM87.7591 26.0219H78.2951V8.36194H82.2931V22.8819H88.1341L87.7591 26.0219ZM100.173 26.0219H89.2901V23.2659L89.3011 23.2459L96.1581 11.5019H89.2901V8.36194H100.37V11.1159L100.359 11.1359L93.5021 22.8819H100.46L100.172 26.0219H100.173Z" fill="#070A0E"/>
<path fill-rule="evenodd" clip-rule="evenodd" d="M0.543945 8.86394V25.2969L14.7779 17.0789L0.545945 8.86194L0.543945 8.86394Z" fill="#38D88C"/>
<path fill-rule="evenodd" clip-rule="evenodd" d="M14.7798 17.0769L29.0128 8.85994L14.7798 0.642944V17.0769Z" fill="#A6FFD5"/>
<path fill-rule="evenodd" clip-rule="evenodd" d="M14.7799 0.642944L0.546875 8.86094L14.7779 17.0779L14.7799 17.0769V0.642944Z" fill="#69F2B1"/>
<path fill-rule="evenodd" clip-rule="evenodd" d="M29.0148 21.4519V8.86389L18.1108 15.1559L29.0148 21.4519Z" fill="#6DDDA8"/>
<path fill-rule="evenodd" clip-rule="evenodd" d="M0.543945 25.297V25.301L14.7799 33.52V17.08L14.7779 17.079L0.543945 25.297Z" fill="#19564A"/>
</svg>
