<svg width="78" height="21" viewBox="0 0 78 21" fill="none" xmlns="http://www.w3.org/2000/svg">
<g clip-path="url(#clip0_5754_281460)">
<path d="M7.081 7.90305C5.81311 7.90225 4.56663 8.22989 3.463 8.85405V19.4111C3.46443 19.5534 3.41044 19.6906 3.31246 19.7938C3.21448 19.897 3.08019 19.9581 2.938 19.9641H0.526004C0.38382 19.9581 0.249532 19.897 0.151551 19.7938C0.0535701 19.6906 -0.000419528 19.5534 0.00100401 19.4111V5.67505C0.00306909 5.53646 0.0590444 5.40412 0.157057 5.30611C0.255069 5.20809 0.387409 5.15212 0.526004 5.15005H2.811C2.9496 5.15212 3.08194 5.20809 3.17995 5.30611C3.27796 5.40412 3.33394 5.53646 3.336 5.67505V6.22805C4.4168 5.40589 5.73804 4.96208 7.096 4.96505C7.2346 4.96712 7.36694 5.02309 7.46495 5.1211C7.56296 5.21912 7.61894 5.35146 7.621 5.49005V7.37705C7.61375 7.51661 7.55411 7.64829 7.45401 7.7458C7.35391 7.84331 7.2207 7.89946 7.081 7.90305V7.90305ZM20.916 13.7661H12.36V13.8511C12.36 15.3691 12.984 17.1861 15.51 17.1861C17.128 17.1721 18.731 17.0861 20.335 16.9161H20.42C20.69 16.9161 20.888 17.0441 20.888 17.3161V19.0471C20.888 19.4731 20.803 19.6571 20.335 19.7281C18.658 20.0594 16.9499 20.2069 15.241 20.1681C12.616 20.1681 8.884 18.7491 8.884 13.5841V11.6401C8.884 7.54005 11.169 4.97105 15.184 4.97105C19.228 4.97105 21.428 7.72405 21.428 11.6401V13.1161C21.441 13.5371 21.283 13.7661 20.916 13.7661ZM17.95 11.1981C17.95 9.15505 16.815 7.96305 15.197 7.96305C13.579 7.96305 12.387 9.11205 12.387 11.1981V11.2981H17.949L17.95 11.1981ZM35.999 19.9511H33.587C33.4448 19.9451 33.3105 19.884 33.2126 19.7808C33.1146 19.6776 33.0606 19.5404 33.062 19.3981V10.8561C33.062 8.57105 32.849 7.91905 30.834 7.91905C29.784 7.99671 28.7674 8.32265 27.868 8.87005V19.4271C27.8692 19.5693 27.8151 19.7064 27.7172 19.8096C27.6192 19.9127 27.4851 19.9738 27.343 19.9801H24.931C24.7889 19.9738 24.6548 19.9127 24.5568 19.8096C24.4589 19.7064 24.4048 19.5693 24.406 19.4271V5.69005C24.4081 5.55146 24.464 5.41912 24.5621 5.32111C24.6601 5.22309 24.7924 5.16712 24.931 5.16505H27.216C27.3546 5.16712 27.4869 5.22309 27.585 5.32111C27.683 5.41912 27.7389 5.55146 27.741 5.69005V6.24305C28.9805 5.36119 30.4781 4.91685 31.998 4.98005C35.772 4.98005 36.539 7.52005 36.539 10.8551V19.4111C36.532 19.552 36.4728 19.6853 36.3731 19.7851C36.2733 19.8849 36.14 19.944 35.999 19.9511V19.9511ZM50.969 19.5001C49.2431 19.9383 47.4706 20.167 45.69 20.1811C41.462 20.1811 39.418 17.6811 39.418 13.5971V11.5681C39.418 7.46805 41.461 4.98405 45.69 4.98405C46.5349 4.99539 47.3784 5.05684 48.216 5.16805V0.528052C48.2181 0.389456 48.274 0.257117 48.3721 0.159105C48.4701 0.0610922 48.6024 0.00511683 48.741 0.00305176H51.153C51.2916 0.00511683 51.4239 0.0610922 51.5219 0.159105C51.62 0.257117 51.6759 0.389456 51.678 0.528052V18.8001C51.679 19.1701 51.565 19.3411 50.969 19.5001V19.5001ZM48.219 7.98905C47.3814 7.87787 46.5379 7.81643 45.693 7.80505C43.437 7.80505 42.884 9.40505 42.884 11.5651V13.5801C42.884 15.7371 43.437 17.3401 45.693 17.3401C46.5385 17.3428 47.3829 17.2813 48.219 17.1561V7.98905ZM66.663 13.7661H58.107V13.8511C58.107 15.3691 58.731 17.1861 61.257 17.1861C62.875 17.1721 64.478 17.0861 66.082 16.9161H66.167C66.422 16.9161 66.635 17.0441 66.635 17.3161V19.0471C66.635 19.4731 66.55 19.6571 66.082 19.7281C64.405 20.0594 62.6969 20.2069 60.988 20.1681C58.363 20.1681 54.631 18.7491 54.631 13.5841V11.6401C54.631 7.54005 56.916 4.97105 60.931 4.97105C64.975 4.97105 67.175 7.72405 67.175 11.6401V13.1161C67.188 13.5371 67.03 13.7661 66.663 13.7661V13.7661ZM63.697 11.1981C63.697 9.15505 62.562 7.96305 60.944 7.96305C59.326 7.96305 58.134 9.11205 58.134 11.1981V11.2981H63.696L63.697 11.1981ZM77.249 7.90305C75.9811 7.9022 74.7346 8.22985 73.631 8.85405V19.4111C73.6324 19.5534 73.5784 19.6906 73.4805 19.7938C73.3825 19.897 73.2482 19.9581 73.106 19.9641H70.694C70.5519 19.9578 70.4178 19.8967 70.3198 19.7936C70.2219 19.6904 70.1678 19.5533 70.169 19.4111V5.67505C70.1711 5.53646 70.227 5.40412 70.3251 5.30611C70.4231 5.20809 70.5554 5.15212 70.694 5.15005H72.978C73.1166 5.15212 73.2489 5.20809 73.347 5.30611C73.445 5.40412 73.5009 5.53646 73.503 5.67505V6.22805C74.5838 5.40589 75.905 4.96208 77.263 4.96505C77.4016 4.96712 77.5339 5.02309 77.632 5.1211C77.73 5.21912 77.7859 5.35146 77.788 5.49005V7.37705C77.7829 7.51716 77.7241 7.64993 77.6237 7.74786C77.5234 7.84578 77.3892 7.90135 77.249 7.90305V7.90305Z" fill="#232A55"/>
</g>
<defs>
<clipPath id="clip0_5754_281460">
<rect width="77.788" height="20.178" fill="white"/>
</clipPath>
</defs>
</svg>
