<svg width="200" height="48" viewBox="0 0 200 48" fill="none" xmlns="http://www.w3.org/2000/svg">
<path fill-rule="evenodd" clip-rule="evenodd" d="M25.728 15.4201C25.3501 16.3092 24.7122 17.0632 23.898 17.5831C23.1868 18.0388 22.3653 18.2929 21.521 18.3181C21.3447 18.3201 21.1746 18.2533 21.0467 18.132C20.9189 18.0106 20.8433 17.8442 20.836 17.6681C20.829 17.4911 20.8924 17.3186 21.0123 17.1883C21.1323 17.058 21.2991 16.9806 21.476 16.9731C22.0858 16.9551 22.6792 16.7719 23.193 16.4431C23.7822 16.0652 24.2434 15.5179 24.516 14.8731C24.6013 14.681 24.6387 14.4711 24.6249 14.2614C24.6111 14.0516 24.5467 13.8484 24.437 13.6691C24.3338 13.4917 24.1883 13.3427 24.0134 13.2354C23.8386 13.1281 23.6398 13.0658 23.435 13.0541C22.541 13.0021 21.801 13.2741 21.219 13.8661C20.279 14.8211 19.894 16.5261 19.73 17.2531C19.59 17.8771 18.024 24.6271 17.39 27.3551C17.3443 27.5619 17.2296 27.7469 17.0648 27.8798C16.8999 28.0126 16.6947 28.0854 16.483 28.0861C16.2709 28.086 16.0652 28.0136 15.8998 27.8809C15.7344 27.7482 15.6191 27.5631 15.573 27.3561L15.345 26.3691C14.627 23.2701 13.361 17.8121 13.235 17.2581C13.07 16.5251 12.686 14.8211 11.745 13.8651C11.163 13.2751 10.417 13.0031 9.53 13.0541C9.32501 13.0657 9.12609 13.128 8.95106 13.2353C8.77602 13.3426 8.63032 13.4917 8.527 13.6691C8.305 14.0401 8.276 14.4791 8.448 14.8731C8.72134 15.5177 9.18277 16.0649 9.772 16.4431C10.2861 16.7721 10.8799 16.9553 11.49 16.9731C11.6662 16.9823 11.8317 17.0602 11.951 17.1903C12.0702 17.3203 12.1337 17.4919 12.1276 17.6682C12.1216 17.8445 12.0466 18.0114 11.9187 18.1329C11.7909 18.2545 11.6204 18.321 11.444 18.3181C10.5997 18.2929 9.77814 18.0389 9.067 17.5831C8.25288 17.0631 7.61498 16.3091 7.237 15.4201C7.06597 15.0284 6.99108 14.6015 7.01856 14.1749C7.04605 13.7484 7.17511 13.3346 7.395 12.9681C7.60975 12.6065 7.90959 12.3029 8.26844 12.0837C8.62729 11.8644 9.03428 11.7362 9.454 11.7101C10.723 11.6331 11.834 12.0531 12.683 12.9141C13.893 14.1431 14.338 16.1121 14.527 16.9531C14.645 17.4731 15.751 22.2451 16.483 25.3991C17.214 22.2451 18.32 17.4721 18.437 16.9571C18.627 16.1121 19.071 14.1431 20.282 12.9141C21.131 12.0521 22.246 11.6341 23.512 11.7101C24.357 11.7601 25.126 12.2301 25.57 12.9691C25.7898 13.3355 25.9188 13.7491 25.9463 14.1754C25.9738 14.6018 25.8989 15.0285 25.728 15.4201ZM19.8 4.7771C18.912 4.7771 18.007 4.9301 17.112 5.2341C16.704 5.37188 16.262 5.37188 15.854 5.2341C14.9883 4.93573 14.0796 4.78134 13.164 4.7771C8.063 4.7771 3.752 9.9541 3.752 16.0831C3.752 22.9061 8.892 28.9291 16.254 30.7311C16.4042 30.7675 16.5608 30.7675 16.711 30.7311C24.071 28.9291 29.213 22.9061 29.213 16.0831C29.213 9.9541 24.903 4.7771 19.8 4.7771Z" fill="#00263E"/>
<path fill-rule="evenodd" clip-rule="evenodd" d="M17.022 32.04C16.6676 32.1272 16.2974 32.1272 15.943 32.04C7.984 30.09 2.426 23.53 2.426 16.082C2.426 9.224 7.344 3.43 13.165 3.43C14.197 3.43 15.242 3.607 16.273 3.956C16.4092 4.00188 16.5568 4.00188 16.693 3.956C17.693 3.61226 18.7426 3.43458 19.8 3.43C25.621 3.43 30.539 9.224 30.539 16.082C30.539 23.529 24.98 30.09 17.022 32.038V32.04ZM29.759 30.189C29.7597 30.2767 29.743 30.3637 29.7101 30.445C29.6771 30.5263 29.6285 30.6003 29.5669 30.6628C29.5053 30.7253 29.4321 30.7751 29.3513 30.8092C29.2705 30.8434 29.1837 30.8613 29.096 30.862C29.0083 30.8613 28.9215 30.8434 28.8407 30.8092C28.76 30.7751 28.6867 30.7253 28.6251 30.6628C28.5635 30.6003 28.5149 30.5263 28.4819 30.445C28.449 30.3637 28.4323 30.2767 28.433 30.189V29.25C28.433 28.878 28.73 28.577 29.096 28.577C29.462 28.577 29.759 28.878 29.759 29.25V30.189ZM29.759 34.457C29.7597 34.5447 29.743 34.6317 29.7101 34.713C29.6771 34.7943 29.6285 34.8683 29.5669 34.9308C29.5053 34.9933 29.4321 35.0431 29.3513 35.0772C29.2705 35.1114 29.1837 35.1293 29.096 35.13C29.0083 35.1293 28.9215 35.1114 28.8407 35.0772C28.76 35.0431 28.6867 34.9933 28.6251 34.9308C28.5635 34.8683 28.5149 34.7943 28.4819 34.713C28.449 34.6317 28.4323 34.5447 28.433 34.457V33.518C28.433 33.146 28.73 32.845 29.096 32.845C29.462 32.845 29.759 33.146 29.759 33.518V34.457ZM25.554 36.592C25.5547 36.6797 25.538 36.7667 25.5051 36.848C25.4721 36.9293 25.4235 37.0033 25.3619 37.0658C25.3003 37.1283 25.2271 37.1781 25.1463 37.2122C25.0655 37.2464 24.9787 37.2643 24.891 37.265C24.8033 37.2643 24.7165 37.2464 24.6357 37.2122C24.555 37.1781 24.4817 37.1283 24.4201 37.0658C24.3585 37.0033 24.3099 36.9293 24.2769 36.848C24.244 36.7667 24.2273 36.6797 24.228 36.592V35.652C24.228 35.281 24.525 34.98 24.891 34.98C25.257 34.98 25.554 35.28 25.554 35.653V36.592ZM25.554 40.86C25.5547 40.9477 25.538 41.0347 25.5051 41.116C25.4721 41.1973 25.4235 41.2713 25.3619 41.3338C25.3003 41.3963 25.2271 41.4461 25.1463 41.4802C25.0655 41.5144 24.9787 41.5323 24.891 41.533C24.8033 41.5323 24.7165 41.5144 24.6357 41.4802C24.555 41.4461 24.4817 41.3963 24.4201 41.3338C24.3585 41.2713 24.3099 41.1973 24.2769 41.116C24.244 41.0347 24.2273 40.9477 24.228 40.86V39.92C24.228 39.549 24.525 39.248 24.891 39.248C25.257 39.248 25.554 39.549 25.554 39.921V40.86ZM21.35 38.726C21.3507 38.8137 21.334 38.9007 21.3011 38.982C21.2681 39.0633 21.2195 39.1373 21.1579 39.1998C21.0963 39.2623 21.0231 39.3121 20.9423 39.3462C20.8615 39.3804 20.7747 39.3983 20.687 39.399C20.5993 39.3983 20.5125 39.3804 20.4317 39.3462C20.351 39.3121 20.2777 39.2623 20.2161 39.1998C20.1545 39.1373 20.1059 39.0633 20.0729 38.982C20.04 38.9007 20.0233 38.8137 20.024 38.726V37.786C20.024 37.415 20.321 37.114 20.687 37.114C21.053 37.114 21.35 37.414 21.35 37.787V38.726ZM21.35 42.994C21.3507 43.0817 21.334 43.1687 21.3011 43.25C21.2681 43.3313 21.2195 43.4053 21.1579 43.4678C21.0963 43.5303 21.0231 43.5801 20.9423 43.6142C20.8615 43.6484 20.7747 43.6663 20.687 43.667C20.5993 43.6663 20.5125 43.6484 20.4317 43.6142C20.351 43.5801 20.2777 43.5303 20.2161 43.4678C20.1545 43.4053 20.1059 43.3313 20.0729 43.25C20.04 43.1687 20.0233 43.0817 20.024 42.994V42.054C20.024 41.684 20.321 41.382 20.687 41.382C21.053 41.382 21.35 41.683 21.35 42.055V42.994ZM17.145 36.592C17.1457 36.6797 17.129 36.7667 17.0961 36.848C17.0631 36.9293 17.0145 37.0033 16.9529 37.0658C16.8913 37.1283 16.8181 37.1781 16.7373 37.2122C16.6565 37.2464 16.5697 37.2643 16.482 37.265C16.305 37.2634 16.1359 37.1917 16.0118 37.0655C15.8876 36.9393 15.8187 36.769 15.82 36.592V35.652C15.82 35.281 16.117 34.98 16.482 34.98C16.848 34.98 17.145 35.28 17.145 35.653V36.592ZM17.145 40.86C17.1457 40.9477 17.129 41.0347 17.0961 41.116C17.0631 41.1973 17.0145 41.2713 16.9529 41.3338C16.8913 41.3963 16.8181 41.4461 16.7373 41.4802C16.6565 41.5144 16.5697 41.5323 16.482 41.533C16.305 41.5314 16.1359 41.4596 16.0118 41.3335C15.8876 41.2073 15.8187 41.037 15.82 40.86V39.92C15.82 39.549 16.117 39.248 16.482 39.248C16.848 39.248 17.145 39.549 17.145 39.921V40.86ZM12.941 38.726C12.9417 38.8137 12.925 38.9007 12.8921 38.982C12.8591 39.0633 12.8105 39.1373 12.7489 39.1998C12.6873 39.2623 12.614 39.3121 12.5333 39.3462C12.4525 39.3804 12.3657 39.3983 12.278 39.399C12.1903 39.3983 12.1035 39.3804 12.0227 39.3462C11.9419 39.3121 11.8687 39.2623 11.8071 39.1998C11.7455 39.1373 11.6969 39.0633 11.6639 38.982C11.631 38.9007 11.6143 38.8137 11.615 38.726V37.786C11.615 37.415 11.912 37.114 12.278 37.114C12.644 37.114 12.941 37.414 12.941 37.787V38.726ZM12.941 42.994C12.9417 43.0817 12.925 43.1687 12.8921 43.25C12.8591 43.3313 12.8105 43.4053 12.7489 43.4678C12.6873 43.5303 12.614 43.5801 12.5333 43.6142C12.4525 43.6484 12.3657 43.6663 12.278 43.667C12.1903 43.6663 12.1035 43.6484 12.0227 43.6142C11.9419 43.5801 11.8687 43.5303 11.8071 43.4678C11.7455 43.4053 11.6969 43.3313 11.6639 43.25C11.631 43.1687 11.6143 43.0817 11.615 42.994V42.054C11.615 41.684 11.912 41.382 12.278 41.382C12.644 41.382 12.941 41.683 12.941 42.055V42.994ZM8.736 36.592C8.73666 36.6797 8.72003 36.7667 8.68707 36.848C8.65411 36.9293 8.60545 37.0033 8.54389 37.0658C8.48232 37.1283 8.40905 37.1781 8.32825 37.2122C8.24746 37.2464 8.16072 37.2643 8.073 37.265C7.98528 37.2643 7.89854 37.2464 7.81775 37.2122C7.73695 37.1781 7.66368 37.1283 7.60211 37.0658C7.54055 37.0033 7.49189 36.9293 7.45893 36.848C7.42597 36.7667 7.40934 36.6797 7.41 36.592V35.652C7.41 35.281 7.707 34.98 8.073 34.98C8.439 34.98 8.736 35.28 8.736 35.653V36.592ZM8.736 40.86C8.73666 40.9477 8.72003 41.0347 8.68707 41.116C8.65411 41.1973 8.60545 41.2713 8.54389 41.3338C8.48232 41.3963 8.40905 41.4461 8.32825 41.4802C8.24746 41.5144 8.16072 41.5323 8.073 41.533C7.98528 41.5323 7.89854 41.5144 7.81775 41.4802C7.73695 41.4461 7.66368 41.3963 7.60211 41.3338C7.54055 41.2713 7.49189 41.1973 7.45893 41.116C7.42597 41.0347 7.40934 40.9477 7.41 40.86V39.92C7.41 39.549 7.707 39.248 8.073 39.248C8.439 39.248 8.736 39.549 8.736 39.921V40.86ZM4.532 30.189C4.532 30.561 4.235 30.862 3.869 30.862C3.503 30.862 3.206 30.561 3.206 30.189V29.25C3.206 28.878 3.503 28.577 3.869 28.577C4.235 28.577 4.532 28.878 4.532 29.25V30.189ZM4.532 34.457C4.532 34.829 4.235 35.13 3.869 35.13C3.503 35.13 3.206 34.83 3.206 34.457V33.518C3.206 33.146 3.503 32.845 3.869 32.845C4.235 32.845 4.532 33.146 4.532 33.518V34.457ZM16.482 0C7.38 0 0 7.492 0 16.733V31.189C0 40.43 7.38 47.922 16.482 47.922C25.585 47.922 32.965 40.43 32.965 31.189V16.733C32.965 7.492 25.585 0 16.482 0ZM52 23.231C48.98 22.46 47.737 21.987 47.737 20.27C47.737 19.027 48.862 18.079 50.817 18.079C52.829 18.079 54.072 18.908 55.02 20.152L57.448 18.138C55.908 16.126 53.835 15 50.758 15C46.908 15 44.361 17.191 44.361 20.388C44.361 23.823 46.671 25.303 50.521 26.369C53.895 27.316 55.257 28.027 55.257 29.745C55.257 31.342 53.835 32.349 51.349 32.349C48.743 32.349 46.789 31.166 45.605 29.211L43 31.046C44.776 33.771 47.618 35.428 51.35 35.428C55.967 35.428 58.75 33.238 58.75 29.566C58.75 26.013 56.145 24.296 52 23.231ZM72.486 32.231C68.637 32.231 66.091 29.33 66.091 25.244C66.091 21.099 68.637 18.198 72.486 18.198C76.276 18.198 78.762 21.099 78.762 25.244C78.762 29.33 76.276 32.231 72.486 32.231ZM78.644 18.79C77.282 16.362 74.974 15 71.775 15C66.387 15 62.301 19.382 62.301 25.244C62.301 31.046 66.387 35.428 71.775 35.428C74.973 35.428 77.282 34.067 78.645 31.639V34.955H82.256V15.474H78.644V18.79ZM110.44 15C107.3 15 105.11 16.185 103.57 18.612C102.386 16.185 100.314 15 97.708 15C95.043 15 92.971 16.126 91.905 18.139V15.475H88.293V34.955H91.905V23.764C91.905 20.211 93.741 18.258 96.939 18.258C99.721 18.258 101.084 19.915 101.084 22.994V34.954H104.695V23.647C104.695 20.212 106.472 18.259 109.729 18.259C112.452 18.259 113.873 19.856 113.873 22.937V34.956H117.485V22.52C117.485 17.782 114.525 14.999 110.439 14.999L110.44 15ZM130.51 23.231C127.49 22.46 126.245 21.987 126.245 20.27C126.245 19.027 127.371 18.079 129.325 18.079C131.338 18.079 132.581 18.908 133.529 20.152L135.957 18.138C134.417 16.126 132.344 15 129.265 15C125.416 15 122.87 17.191 122.87 20.388C122.87 23.823 125.18 25.303 129.03 26.369C132.404 27.316 133.765 28.027 133.765 29.745C133.765 31.342 132.345 32.349 129.857 32.349C127.252 32.349 125.298 31.166 124.114 29.211L121.509 31.046C123.285 33.771 126.127 35.428 129.857 35.428C134.477 35.428 137.259 33.238 137.259 29.566C137.259 26.013 134.654 24.296 130.509 23.231H130.51ZM150.995 32.231C147.145 32.231 144.6 29.33 144.6 25.244C144.6 21.099 147.146 18.198 150.995 18.198C154.785 18.198 157.271 21.099 157.271 25.244C157.271 29.33 154.785 32.231 150.995 32.231ZM157.153 18.79C155.791 16.362 153.482 15 150.285 15C144.895 15 140.81 19.382 140.81 25.244C140.81 31.046 144.896 35.428 150.285 35.428C153.482 35.428 155.791 34.067 157.153 31.639V34.955H160.765V15.474H157.153V18.79ZM190.022 32.231C186.172 32.231 183.627 29.33 183.627 25.244C183.627 21.099 186.173 18.198 190.022 18.198C193.812 18.198 196.298 21.099 196.298 25.244C196.298 29.33 193.812 32.231 190.022 32.231ZM196.18 15.474V18.79C194.818 16.362 192.509 15 189.312 15C183.922 15 179.837 19.382 179.837 25.244C179.837 31.046 183.923 35.428 189.312 35.428C192.509 35.428 194.818 34.067 196.18 31.639V34.955H199.792V15.474H196.18ZM170.413 19.973V15.474H166.803V34.954H170.413V24.808L178.41 17.702L176.01 14.999L170.413 19.973Z" fill="#00263E"/>
</svg>
