<svg width="82" height="29" viewBox="0 0 82 29" fill="none" xmlns="http://www.w3.org/2000/svg">
<g clip-path="url(#clip0_5754_281478)">
<path fill-rule="evenodd" clip-rule="evenodd" d="M24.735 20.712H22.085C21.46 20.712 21.122 20.261 21.122 19.65V12.905C21.122 11.392 20.239 10.33 18.655 10.33C17.329 10.33 16.342 11.1 15.77 12.135V20.261C15.77 20.5 15.64 20.659 15.458 20.686C15.432 20.712 15.38 20.712 15.354 20.712H12.418C12.314 20.712 12.236 20.686 12.184 20.632C12.08 20.553 12.028 20.42 12.028 20.261V2.842C12.0315 2.25815 11.9732 1.67557 11.854 1.104C11.8045 0.889932 11.7757 0.67159 11.768 0.452C11.768 0.186 11.898 0 12.184 0H14.6C15.38 0 15.77 0.372 15.77 1.195V9.214C16.68 8.045 18.056 6.983 20.083 6.983C22.733 6.983 24.866 8.709 24.866 12.029V18.243C24.866 18.917 24.918 19.413 24.966 19.863L24.996 20.155C25.072 20.447 24.968 20.712 24.735 20.712V20.712ZM1.04198 17.048C1.22298 16.756 1.45698 16.729 1.71698 16.862C2.21098 17.128 3.84798 17.898 5.45898 17.898C6.52398 17.898 7.12198 17.42 7.12198 16.835C7.12198 15.998 6.23798 15.728 4.54398 15.211L4.47198 15.189C1.92498 14.393 0.339985 13.197 0.313985 11.02C0.313985 8.736 2.00398 6.984 5.40698 6.984C7.48598 6.984 8.75898 7.674 9.85098 8.338C10.136 8.498 10.214 8.709 10.111 8.923L8.96698 10.782C8.81098 11.02 8.57698 11.047 8.34398 10.941C7.69398 10.542 6.49798 10.091 5.32898 10.091C3.97798 10.091 3.66598 10.701 3.66598 11.127C3.66598 11.897 4.65298 12.189 5.87498 12.534C9.01898 13.41 10.682 14.552 10.682 16.835C10.682 19.597 8.29198 20.925 5.38198 20.925C3.52089 20.925 1.70207 20.37 0.157985 19.331C0.00198489 19.199 -0.0500151 19.013 0.0539849 18.774L1.04198 17.048V17.048ZM67.206 20.288V7.62C67.206 7.355 67.05 7.169 66.79 7.169H63.88C63.646 7.169 63.464 7.381 63.464 7.619V15.746C62.866 16.781 61.904 17.551 60.579 17.551C58.994 17.551 58.111 16.488 58.111 14.976V8.232C58.111 7.621 57.773 7.17 57.124 7.17H54.499C54.265 7.17 54.161 7.435 54.213 7.727C54.291 8.258 54.369 8.816 54.369 9.639V15.853C54.369 19.172 56.499 20.898 59.151 20.898C61.203 20.898 62.555 19.836 63.464 18.668V20.288C63.464 20.553 63.62 20.712 63.88 20.712H66.816C67.05 20.712 67.206 20.526 67.206 20.287V20.288ZM81.727 20.712H79.077C78.454 20.712 78.116 20.262 78.116 19.65V12.905C78.116 11.392 77.232 10.33 75.621 10.33C74.322 10.33 73.334 11.1 72.736 12.135V20.261C72.736 20.5 72.58 20.712 72.346 20.712H69.41C69.15 20.712 68.994 20.527 68.994 20.262V7.594C68.994 7.354 69.176 7.169 69.384 7.169H72.346C72.606 7.169 72.736 7.329 72.736 7.594V9.213C73.646 8.044 75.023 6.983 77.076 6.983C79.7 6.983 81.856 8.708 81.856 12.027V18.242C81.856 19.065 81.909 19.622 81.986 20.154C82.038 20.446 81.936 20.711 81.727 20.711V20.712ZM40.58 23.056C40.6662 22.9691 40.7741 22.9071 40.8925 22.8763C41.0109 22.8455 41.1354 22.8471 41.253 22.881L42.767 23.31C43.079 23.398 43.28 23.695 43.279 24.025V24.031C43.279 25.411 44.786 25.837 46.787 25.837C48.267 25.837 49.697 25.332 49.697 24.19C49.697 23.686 49.437 23.208 48.372 23.022L46.696 22.731H46.691L46.374 22.676C45.0178 22.4297 43.6668 22.1553 42.322 21.853C42.0728 21.791 41.8273 21.7145 41.587 21.624C40.491 21.204 39.746 20.506 39.746 19.331C39.746 17.791 41.045 16.835 42.422 16.994C41.85 16.437 40.681 15.242 40.629 12.984C40.577 9.613 43.046 7.01 46.839 7.01C47.466 7.01 47.999 7.078 48.574 7.15C49.57 7.276 50.689 7.418 52.634 7.25C52.691 7.24318 52.7487 7.24952 52.8029 7.26854C52.857 7.28757 52.9061 7.31876 52.9462 7.35971C52.9864 7.40067 53.0167 7.4503 53.0347 7.50479C53.0526 7.55928 53.0579 7.61717 53.05 7.674L52.946 9.267C52.686 9.533 51.906 9.613 51.101 9.639C52.244 10.515 52.842 11.869 52.842 13.463C52.842 16.835 50.166 19.04 46.865 19.013C45.781 19.013 45.05 18.732 44.45 18.501L44.19 18.402C43.15 18.11 42.786 18.508 42.786 18.933C42.786 19.525 43.567 19.643 44.75 19.82L44.865 19.837L48.841 20.422C51.933 20.899 53.648 21.776 53.648 24.192C53.648 27.724 50.192 29.052 46.398 28.998C42.759 28.971 39.798 27.644 39.798 25.041C39.798 24.175 40.112 23.531 40.58 23.056ZM46.71 10.223C48.217 10.223 49.412 11.313 49.412 13.012C49.412 14.578 48.373 15.747 46.762 15.747C45.177 15.747 44.008 14.605 44.008 12.959C44.008 11.259 45.255 10.223 46.71 10.223V10.223ZM32.797 6.854C28.857 6.854 25.751 9.681 25.751 13.867C25.751 18.027 28.857 20.854 32.797 20.854C36.711 20.854 39.817 18.027 39.817 13.867C39.817 9.681 36.711 6.854 32.797 6.854V6.854ZM36.372 13.867C36.372 11.707 34.885 10.107 32.797 10.107C30.683 10.107 29.196 11.707 29.196 13.867C29.196 16.027 30.683 17.6 32.796 17.6C34.885 17.6 36.372 16.027 36.372 13.867ZM39.216 2.865C39.362 3.693 38.825 4.485 38.016 4.635C36.228 4.965 34.469 5.075 32.92 5.075C29.91 5.075 27.684 4.659 27.545 4.633C26.737 4.478 26.204 3.683 26.355 2.856C26.507 2.03 27.285 1.486 28.093 1.64C28.175 1.655 32.798 2.505 37.485 1.639C38.295 1.489 39.069 2.039 39.216 2.865Z" fill="#1A212A"/>
</g>
<defs>
<clipPath id="clip0_5754_281478">
<rect width="82" height="29" fill="white"/>
</clipPath>
</defs>
</svg>
