<svg width="177" height="41" viewBox="0 0 177 41" fill="none" xmlns="http://www.w3.org/2000/svg">
<path d="M15.4019 30.9199C7.02686 30.9199 0.151855 24.0449 0.151855 15.6699C0.151855 7.29492 7.02686 0.419922 15.4019 0.419922C23.7769 0.419922 30.6519 7.29492 30.6519 15.6699C30.6519 24.0449 23.7769 30.9199 15.4019 30.9199ZM15.4019 2.79492C13.7104 2.79255 12.0351 3.12396 10.472 3.77015C8.90887 4.41634 7.4886 5.36461 6.29257 6.56064C5.09654 7.75666 4.14827 9.17693 3.50208 10.7401C2.85589 12.3032 2.52449 13.9785 2.52686 15.6699C2.52686 22.7949 8.27686 28.5449 15.4019 28.5449C22.5269 28.5449 28.2769 22.7949 28.2769 15.6699C28.2769 8.54492 22.5269 2.79492 15.4019 2.79492Z" fill="#0039B3"/>
<path d="M9.40186 21.6699L7.15186 20.6699V20.2949H9.90186C9.90186 20.2949 11.2769 18.4199 12.0269 17.5449C12.7769 16.6699 13.6519 15.5449 13.6519 15.5449L6.15186 12.1699L6.52686 11.6699L16.1519 12.9199C16.1519 12.9199 18.9019 10.0449 19.9019 9.16992C20.2769 8.79492 21.7769 7.91992 22.2769 8.54492L22.4019 8.66992C23.0269 9.29492 22.1519 10.6699 21.7769 11.0449C20.9019 12.0449 18.0269 14.7949 18.0269 14.7949L19.4019 24.4199L18.9019 24.9199L15.5269 17.4199C15.5269 17.4199 14.4019 18.4199 13.5269 19.0449C12.6519 19.7949 10.7769 21.1699 10.7769 21.1699V23.9199H10.4019L9.40186 21.6699ZM15.4019 40.4199C13.9019 40.4199 12.2769 40.2949 10.7769 39.9199C10.1519 39.7949 9.77686 39.1699 9.90186 38.5449C10.0269 37.9199 10.6519 37.4199 11.2769 37.5449C14.0269 38.0449 16.7769 38.0449 19.5269 37.5449C20.1519 37.4199 20.7769 37.7949 20.9019 38.5449C21.0269 39.1699 20.6519 39.7949 19.9019 39.9199C18.5269 40.2949 16.9019 40.4199 15.4019 40.4199ZM15.4019 35.6699C13.2779 35.6699 11.2779 35.2949 9.27785 34.6699C8.65285 34.4199 8.27785 33.7949 8.52785 33.1699C8.77785 32.5449 9.40285 32.1699 10.0279 32.4199C13.5229 33.5449 17.2828 33.5449 20.7779 32.4199C21.4029 32.1699 22.1529 32.5449 22.2779 33.1699C22.5279 33.7949 22.1529 34.5449 21.5279 34.6699C19.5279 35.2949 17.5279 35.6699 15.4029 35.6699H15.4019ZM42.4019 12.2949V9.66992H57.6519V12.2949H51.5269V30.1699H48.5269V12.2949H42.4019ZM58.0269 30.1699V15.6699H60.7769V17.6699C61.6519 16.2949 62.9019 15.5449 64.6519 15.5449C64.9019 15.5449 65.2769 15.5449 65.6519 15.6699V18.5449C65.4019 18.5449 65.1519 18.4199 64.9019 18.4199H64.4019C63.0269 18.4199 62.0269 18.9199 61.4019 20.0449C61.2769 20.1699 61.2769 20.4199 61.1519 20.5449C61.0269 20.6699 61.0269 20.9199 61.0269 21.1699C61.0269 21.4199 60.9019 21.5449 60.9019 21.6699V30.1699H58.0269ZM67.1519 22.9199C67.1519 21.9199 67.2769 21.0449 67.5269 20.0449C67.7769 19.1699 68.2769 18.2949 68.7769 17.6699C69.2769 17.0449 70.0269 16.4199 70.9019 15.9199C71.7769 15.5449 72.6519 15.2949 73.6519 15.2949C75.7769 15.2949 77.4019 16.0449 78.5269 17.4199V15.6699H81.2769V30.1699H78.5269V28.5449C77.9019 29.2949 77.1519 29.7949 76.4019 30.1699C75.6519 30.5449 74.7769 30.6699 73.6519 30.6699C72.6519 30.6699 71.6519 30.4199 70.9019 30.0449C70.1519 29.5449 69.4019 29.0449 68.9019 28.2949C68.4019 27.5449 67.9019 26.7949 67.6519 25.7949C67.2769 24.7949 67.1519 23.9199 67.1519 22.9199ZM70.1519 21.0449C70.0269 21.5449 69.9019 21.9199 69.9019 22.4199V23.7949C69.9019 24.2949 70.0269 24.6699 70.2769 25.1699C70.4019 25.5449 70.6519 25.9199 70.9019 26.2949C71.2769 26.7949 71.6519 27.1699 72.1519 27.4199C72.6519 27.6699 73.2769 27.7949 74.0269 27.7949C75.4019 27.7949 76.5269 27.2949 77.2769 26.4199C78.0269 25.4199 78.4019 24.2949 78.4019 22.9199C78.4019 22.2949 78.2769 21.5449 78.1519 20.9199C78.0269 20.2949 77.6519 19.7949 77.2769 19.2949C76.911 18.8193 76.4405 18.4344 75.9019 18.1699C75.4019 17.9199 74.7769 17.7949 74.0269 17.7949C73.5269 17.7949 73.0269 17.9199 72.5269 18.0449C72.1519 18.1699 71.7769 18.4199 71.4019 18.6699C71.0269 18.9199 70.7769 19.2949 70.6519 19.6699C70.5269 20.2949 70.2769 20.6699 70.1519 21.0449ZM83.6519 15.6699H86.6519L90.2769 26.0449L93.7769 15.6699H96.6519L91.4019 30.1699H88.9019L83.6519 15.6699ZM97.9019 22.7949C97.9019 22.0449 98.0269 21.4199 98.1519 20.6699C98.2769 20.0449 98.5269 19.4199 98.7769 18.9199C99.0269 18.4199 99.4019 17.9199 99.7769 17.5449C100.152 17.1699 100.527 16.7949 101.027 16.4199C101.652 16.0449 102.277 15.6699 102.902 15.5449C103.527 15.4199 104.277 15.2949 105.027 15.2949C105.652 15.2949 106.277 15.4199 106.902 15.5449C107.527 15.6699 108.152 16.0449 108.777 16.4199C109.402 16.7949 109.902 17.2949 110.402 18.0449C110.902 18.6699 111.152 19.5449 111.402 20.4199C111.527 21.1699 111.652 22.1699 111.652 23.1699V23.5449H100.902C100.902 24.9199 101.402 26.0449 102.152 26.9199C102.777 27.6699 103.777 28.0449 105.152 28.0449C105.527 28.0449 105.902 28.0449 106.277 27.9199C106.652 27.7949 106.902 27.6699 107.277 27.5449C107.652 27.4199 107.777 27.1699 108.027 26.9199C108.277 26.6699 108.402 26.4199 108.527 26.0449H111.402C110.902 27.1699 110.402 28.0449 109.777 28.6699C109.152 29.2949 108.527 29.7949 107.777 30.0449C107.277 30.2949 106.777 30.4199 106.402 30.4199C106.027 30.5449 105.527 30.5449 105.027 30.5449C102.902 30.5449 101.152 29.7949 99.7769 28.4199C98.5269 27.1699 97.9019 25.1699 97.9019 22.7949ZM108.527 21.4199C108.402 20.2949 108.027 19.4199 107.402 18.7949C106.652 18.1699 105.902 17.7949 104.902 17.7949C103.902 17.7949 103.027 18.1699 102.402 18.7949C101.652 19.4199 101.277 20.2949 101.152 21.4199H108.527ZM121.027 30.1699V9.66992H129.277C129.902 9.66992 130.527 9.79492 131.027 9.91992C131.652 10.0449 132.152 10.2949 132.652 10.5449C133.152 10.7949 133.652 11.1699 134.027 11.5449C134.402 11.9199 134.777 12.4199 135.152 12.9199C135.777 13.9199 136.027 15.0449 136.027 16.4199C136.027 17.6699 135.777 18.7949 135.152 19.9199C134.527 20.9199 133.652 21.7949 132.652 22.2949C131.652 22.7949 130.527 23.1699 129.277 23.1699H124.027V30.4199L121.027 30.1699ZM124.027 20.2949H129.277C130.527 20.2949 131.402 19.9199 132.152 19.1699C132.902 18.4199 133.277 17.4199 133.277 16.2949C133.277 15.1699 132.902 14.1699 132.152 13.4199C131.402 12.6699 130.402 12.2949 129.277 12.2949H124.027V20.2949ZM137.027 22.7949C137.027 22.0449 137.152 21.4199 137.277 20.6699C137.402 20.0449 137.652 19.4199 137.902 18.9199C138.152 18.4199 138.527 17.9199 138.902 17.5449C139.277 17.1699 139.652 16.7949 140.152 16.4199C140.777 16.0449 141.402 15.6699 142.027 15.5449C142.652 15.2949 143.402 15.2949 144.152 15.2949C144.777 15.2949 145.402 15.4199 146.027 15.5449C146.652 15.6699 147.277 16.0449 147.902 16.4199C148.527 16.7949 149.027 17.2949 149.527 18.0449C150.027 18.6699 150.277 19.5449 150.527 20.4199C150.652 21.1699 150.777 22.1699 150.777 23.1699V23.5449H140.027C140.027 24.9199 140.527 26.0449 141.277 26.9199C141.902 27.6699 142.902 28.0449 144.277 28.0449C144.652 28.0449 145.027 28.0449 145.402 27.9199C145.777 27.7949 146.027 27.6699 146.402 27.5449C146.652 27.4199 146.902 27.1699 147.152 26.9199C147.402 26.6699 147.527 26.4199 147.652 26.0449H150.652C150.152 27.1699 149.652 28.0449 149.027 28.6699C148.402 29.2949 147.777 29.7949 147.027 30.0449C146.527 30.2949 146.027 30.4199 145.652 30.4199C145.277 30.5449 144.777 30.5449 144.277 30.5449C142.152 30.5449 140.402 29.7949 139.027 28.4199C137.652 27.1699 137.027 25.1699 137.027 22.7949ZM147.652 21.4199C147.527 20.2949 147.152 19.4199 146.527 18.7949C145.777 18.1699 145.027 17.7949 144.027 17.7949C143.027 17.7949 142.152 18.1699 141.527 18.7949C140.777 19.4199 140.402 20.2949 140.277 21.4199H147.652ZM154.027 30.1699V15.6699H156.777V17.6699C157.652 16.2949 158.902 15.5449 160.652 15.5449C160.902 15.5449 161.277 15.5449 161.652 15.6699V18.5449C161.402 18.5449 161.152 18.4199 160.902 18.4199H160.402C159.027 18.4199 158.027 18.9199 157.402 20.0449C157.277 20.1699 157.277 20.4199 157.152 20.5449C157.027 20.6699 157.027 20.9199 157.027 21.1699C157.027 21.4199 156.902 21.5449 156.902 21.6699V30.1699H154.027ZM164.277 30.1699V9.66992H167.027V21.4199L172.777 15.6699H176.402L169.652 22.2949L176.527 30.0449H172.652L167.027 23.4199V30.0449L164.277 30.1699ZM114.902 27.2949C114.902 28.2949 115.152 28.9199 115.777 29.5449C116.277 30.0449 116.902 30.2949 117.777 30.2949V9.66992H115.027L114.902 27.2949Z" fill="#0039B3"/>
</svg>
