<svg width="85" height="32" viewBox="0 0 85 32" fill="none" xmlns="http://www.w3.org/2000/svg">
<g clip-path="url(#clip0_5754_281533)">
<path d="M15.995 13.0679C16.3806 13.0657 16.7628 13.14 17.1194 13.2865C17.4761 13.4331 17.8 13.649 18.0726 13.9218C18.3451 14.1945 18.5608 14.5186 18.7072 14.8754C18.8535 15.2321 18.9275 15.6144 18.925 15.9999C18.925 17.6749 17.67 18.9319 15.995 18.9319C14.32 18.9319 13.064 17.6749 13.064 15.9999C13.0615 15.6144 13.1356 15.2321 13.2819 14.8754C13.4282 14.5186 13.6439 14.1945 13.9165 13.9218C14.189 13.649 14.513 13.4331 14.8696 13.2865C15.2263 13.14 15.6085 13.0657 15.994 13.0679H15.995Z" fill="#5A55F2"/>
<path d="M28.39 5.948L31.906 2.429L29.562 1.17835e-06L25.96 3.518C23.1384 1.24028 19.6213 -0.00139631 15.995 1.17835e-06C7.20203 1.17835e-06 2.62799e-05 7.204 2.62799e-05 16C-0.0037929 18.1013 0.408697 20.1826 1.21368 22.1237C2.01866 24.0647 3.20018 25.8271 4.69003 27.309L7.11803 24.879C5.95064 23.7136 5.02433 22.3297 4.39204 20.8062C3.75975 19.2827 3.43387 17.6495 3.43303 16C3.43053 14.3495 3.75372 12.7147 4.3841 11.1893C5.01448 9.66393 5.93964 8.27792 7.10659 7.11069C8.27354 5.94346 9.65933 5.01796 11.1846 4.38722C12.7098 3.75648 14.3445 3.43289 15.995 3.435C22.945 3.435 28.557 9.047 28.557 16C28.5595 17.6505 28.2363 19.2853 27.606 20.8107C26.9756 22.3361 26.0504 23.7221 24.8835 24.8893C23.7165 26.0565 22.3307 26.982 20.8055 27.6128C19.2802 28.2435 17.6455 28.5671 15.995 28.565H3.35003L2.62799e-05 32H15.995C24.788 32 31.99 24.796 31.99 16C31.99 12.23 30.65 8.712 28.39 5.948V5.948ZM43.882 25.801C43.464 26.891 42.962 27.644 42.207 28.063C41.454 28.482 40.7 28.649 39.863 28.649H38.69V25.969H39.528C39.946 25.969 40.281 25.801 40.533 25.549C40.783 25.299 41.035 24.879 41.203 24.544L41.873 22.366L36.764 9.047H40.198L42.04 14.157L43.464 18.597H43.547L44.971 14.241L46.73 9.047H50.08L43.882 25.801V25.801ZM56.946 8.88C57.7 8.88 58.454 8.963 59.208 9.13C59.878 9.298 60.548 9.55 61.05 9.885C61.552 10.22 61.971 10.723 62.306 11.309C62.641 11.895 62.809 12.649 62.809 13.571V23.037H59.626V21.78H59.542C59.124 22.283 58.622 22.618 57.952 22.87C57.282 23.12 56.612 23.204 55.858 23.204C54.35 23.204 53.178 22.869 52.341 22.115C51.503 21.361 51.001 20.356 51.001 19.015C51.001 18.429 51.084 17.927 51.336 17.425C51.503 16.922 51.838 16.503 52.256 16.084C52.676 15.664 53.178 15.414 53.764 15.162C54.35 14.911 55.02 14.827 55.774 14.827H59.542V13.822C59.542 13.571 59.459 13.319 59.375 13.068C59.291 12.817 59.124 12.649 58.956 12.398C58.789 12.23 58.454 12.063 58.119 11.979C57.6803 11.8716 57.2307 11.8155 56.779 11.812C56.025 11.812 55.355 11.895 54.853 12.147C54.35 12.314 53.848 12.649 53.429 12.984L51.754 10.806C52.4089 10.148 53.2141 9.65926 54.1 9.382C55.021 8.963 56.026 8.88 56.947 8.88H56.946ZM54.099 18.68C54.099 18.848 54.183 19.1 54.267 19.267C54.35 19.435 54.517 19.686 54.685 19.853C54.853 20.021 55.105 20.105 55.439 20.273C55.774 20.356 56.109 20.44 56.611 20.44C56.946 20.44 57.281 20.44 57.616 20.356C57.951 20.272 58.286 20.188 58.538 20.021C58.788 19.853 59.04 19.686 59.208 19.435C59.375 19.183 59.542 18.848 59.542 18.513V17.173H56.276C55.439 17.173 54.853 17.34 54.518 17.592C54.267 17.842 54.099 18.262 54.099 18.681V18.68ZM69.843 22.953C69.336 22.948 68.8307 22.8917 68.335 22.785C67.833 22.702 67.415 22.45 67.079 22.199C66.6908 21.8988 66.3997 21.4908 66.242 21.026C66.074 20.524 65.907 19.937 65.907 19.267V3.351H69.089V18.848C69.089 19.351 69.173 19.77 69.424 19.938C69.675 20.105 70.01 20.188 70.429 20.188H71.015V23.037H69.843V22.953ZM79.138 8.796C80.227 8.796 81.148 8.963 81.985 9.382C82.799 9.78036 83.4927 10.3877 83.995 11.142C84.33 11.728 84.581 12.314 84.749 13.152C84.916 13.906 85 14.827 85 15.749C85 16.838 84.916 17.759 84.749 18.513C84.6001 19.2171 84.346 19.8947 83.995 20.523C83.409 21.445 82.739 22.115 81.818 22.534C80.8731 22.9722 79.8446 23.2007 78.803 23.204C77.714 23.204 76.793 23.037 75.956 22.702C75.118 22.366 74.448 21.78 73.946 21.026C73.192 19.853 72.774 18.178 72.857 16.084C72.857 15.33 72.941 14.576 73.025 13.906C73.109 13.236 73.276 12.649 73.611 12.063C74.103 11.0707 74.8555 10.2307 75.788 9.633C76.71 9.131 77.798 8.796 79.138 8.796ZM78.97 11.728C78.384 11.728 77.966 11.895 77.463 12.147C77.044 12.397 76.71 12.817 76.458 13.319C76.2971 13.7233 76.1847 14.1452 76.123 14.576C76.039 14.995 76.039 15.497 75.956 16.084C75.956 16.67 75.956 17.089 76.04 17.592C76.123 18.011 76.207 18.429 76.374 18.764C76.542 19.267 76.877 19.602 77.296 19.937C77.714 20.189 78.216 20.356 78.719 20.356C79.306 20.356 79.892 20.188 80.311 19.853C80.813 19.518 81.148 19.016 81.315 18.346C81.399 18.094 81.483 17.759 81.483 17.34C81.483 16.922 81.567 16.419 81.567 15.832C81.567 14.743 81.483 13.906 81.232 13.403C81.064 12.817 80.729 12.482 80.311 12.147C79.975 11.812 79.557 11.727 78.971 11.727L78.97 11.728Z" fill="#5A55F2"/>
</g>
<defs>
<clipPath id="clip0_5754_281533">
<rect width="85" height="32" fill="white"/>
</clipPath>
</defs>
</svg>
