<?xml version="1.0" encoding="utf-8"?>
<!-- Generator: Adobe Illustrator 16.0.0, SVG Export Plug-In . SVG Version: 6.00 Build 0)  -->
<!DOCTYPE svg PUBLIC "-//W3C//DTD SVG 1.1//EN" "http://www.w3.org/Graphics/SVG/1.1/DTD/svg11.dtd">
<svg version="1.1" id="Layer_2" xmlns="http://www.w3.org/2000/svg" xmlns:xlink="http://www.w3.org/1999/xlink" x="0px" y="0px"
	 width="1800px" height="1067.812px" viewBox="0 -55.188 1800 1067.812" enable-background="new 0 -55.188 1800 1067.812"
	 xml:space="preserve">
<linearGradient id="SVGID_1_" gradientUnits="userSpaceOnUse" x1="1616.9531" y1="1195.6719" x2="183.047" y2="-238.2343">
	<stop  offset="0" style="stop-color:#72138A"/>
	<stop  offset="0.7607" style="stop-color:#2E188D"/>
</linearGradient>
<path fill="url(#SVGID_1_)" d="M0-55.188v1067.812h1800V-55.188H0z M1227.023,611.898c-5.775,14.449-16.458,27.013-32.054,37.695
	c-15.602,10.677-37.26,16.024-64.989,16.024c-21.378,0-38.854-3.761-52.42-11.259c-13.581-7.504-24.41-17.47-32.489-29.897
	c-8.098-12.41-13.868-27.142-17.329-44.188c-3.466-17.03-5.5-35.093-6.069-54.154c-7.51,16.759-16.759,33.076-27.724,48.953
	c-10.982,15.895-23.98,30.045-38.994,42.461c-15.025,12.428-32.207,22.529-51.551,30.326c-19.362,7.798-41.162,11.693-65.418,11.693
	c-23.692,0-42.46-5.482-56.322-16.459c-13.862-10.971-24.409-25.268-31.625-42.89c-7.228-17.616-11.846-37.83-13.862-60.653
	c-2.033-22.816-2.896-46.208-2.603-70.184c0.288-23.962,1.152-47.508,2.603-70.619c1.434-23.099,2.016-43.758,1.728-61.951
	c-0.293-18.198-2.162-32.923-5.629-44.188c-3.467-11.264-9.831-17.182-19.062-17.763c10.965-10.4,23.246-20.067,36.826-29.028
	c13.562-8.949,27.576-15.295,42.02-19.062c14.438-3.748,28.735-4.183,42.896-1.298c14.144,2.897,27.858,10.694,41.156,23.393
	c8.662,8.667,13.715,23.546,15.161,44.623c1.434,21.095,1.434,44.771,0,71.054c-1.445,26.29-3.761,53.285-6.928,81.014
	c-3.186,27.724-4.919,52.714-5.201,74.95c-0.3,22.241,1.581,39.723,5.629,52.421c4.037,12.71,12.134,17.328,24.262,13.861
	c12.129-3.467,23.828-10.829,35.092-22.094c11.266-11.265,22.095-24.545,32.495-39.858c10.396-15.301,19.779-31.912,28.159-49.822
	c8.367-17.899,15.729-35.527,22.093-52.855c1.734-19.062,3.032-37.255,3.902-54.583c0.864-17.334,0.864-32.929,0-46.791
	c-0.87-13.862-3.466-25.562-7.797-35.092c-4.337-9.532-10.836-15.73-19.498-18.627c6.929-12.699,17.329-23.099,31.19-31.196
	c13.862-8.08,29.028-12.999,45.493-14.726c16.46-1.733,32.924,0.146,49.388,5.629c16.46,5.494,30.891,15.596,43.319,30.327
	c12.416,14.731,21.365,34.375,26.865,58.919c5.482,24.556,5.329,55.018-0.435,91.415c-5.783,36.391-8.961,65.277-9.531,86.643
	c-0.582,21.377,0.135,37.407,2.162,48.09c2.022,10.694,4.901,17.047,8.668,19.062c3.748,2.032,6.934,1.733,9.53-0.864
	c2.598-2.603,4.184-6.353,4.766-11.264c0.57-4.901-0.863-9.103-4.33-12.563c10.395,6.928,17.182,17.623,20.36,32.054
	C1234.094,583.023,1232.794,597.467,1227.023,611.898z M1587.469,585.039c-11.564,25.996-29.463,44.923-53.719,56.752
	c-24.263,11.846-49.97,19.202-77.118,22.1c-27.159,2.879-53.72,3.032-79.715,0.429c-25.996-2.598-46.791-5.63-62.386-9.097
	c-19.645-4.036-34.224-10.965-43.753-20.795c-9.532-9.813-15.749-20.796-18.634-32.924c-2.879-12.134-2.879-24.979,0-38.559
	c2.885-13.568,7.216-26.131,12.998-37.689c5.771-11.553,12.27-21.512,19.497-29.897c7.216-8.368,13.714-13.427,19.496-15.161
	c-0.582,5.782,4.03,11.265,13.861,16.465c9.814,5.194,21.947,9.824,36.391,13.862c14.433,4.048,29.892,7.361,46.356,9.965
	c16.466,2.598,31.626,4.195,45.493,4.766c13.861,0.582,24.826-0.287,32.924-2.603c8.079-2.298,10.965-6.2,8.661-11.693
	c-2.315-5.489-11.264-12.705-26.859-21.666c-15.596-8.949-40.151-20.361-73.646-34.223c-27.729-10.97-50.257-21.365-67.587-31.196
	c-17.327-9.813-30.626-20.36-39.856-31.625c-9.249-11.265-14.597-24.262-16.03-38.987c-1.451-14.731-0.147-32.495,3.902-53.29
	c4.03-20.796,13.654-37.597,28.021-53.656c12.551-14.029,34.073-24.008,55.458-30.262c25.823-7.552,46.622-12.08,72.912-12.661
	c26.278-0.581,52.362,2.952,78.416,7.13c20.533,3.293,37.261,10.603,49.389,15.797c12.134,5.201,17.229,12,23.295,20.361
	c6.064,8.385,9.53,18.062,10.395,29.027c0.869,10.983,2.14,21.959-0.163,32.93c-5.781,26.572-16.78,56.316-36.994,89.246
	c-2.313-8.667-9.823-15.601-22.527-20.795c-12.711-5.201-27.29-8.667-43.754-10.401c-16.465-1.733-32.642-2.163-48.525-1.298
	c-15.889,0.863-28.305,3.332-37.254,7.363c-8.961,4.049-12.28,9.25-9.966,15.602c2.304,6.357,13.568,13.86,33.794,22.522
	c25.408,10.982,50.539,21.377,75.384,31.196c24.826,9.831,45.923,20.942,63.25,33.359c17.329,12.428,29.31,27.294,35.955,44.623
	C1601.466,537.385,1599.016,559.043,1587.469,585.039z M1741.693,634.428c-13.299,13.298-29.182,19.932-47.662,19.932
	c-18.49,0-34.369-6.634-47.654-19.932c-13.291-13.28-19.926-29.163-19.926-47.655c0-18.48,6.635-34.363,19.926-47.655
	c13.285-13.279,29.164-19.932,47.654-19.932c18.48,0,34.363,6.652,47.662,19.932c13.28,13.292,19.926,29.175,19.926,47.655
	C1761.619,605.265,1754.974,621.147,1741.693,634.428z"/>
</svg>
