<?xml version="1.0" encoding="utf-8"?>
<!-- Generator: Adobe Illustrator 16.0.0, SVG Export Plug-In . SVG Version: 6.00 Build 0)  -->
<!DOCTYPE svg PUBLIC "-//W3C//DTD SVG 1.1//EN" "http://www.w3.org/Graphics/SVG/1.1/DTD/svg11.dtd">
<svg version="1.1" id="Capa_1" xmlns="http://www.w3.org/2000/svg" xmlns:xlink="http://www.w3.org/1999/xlink" x="0px" y="0px"
	 width="32px" height="32px" viewBox="0 0 32 32" enable-background="new 0 0 32 32" xml:space="preserve">
<rect x="8.5" y="8" display="none" fill="#FFD561" width="1" height="15"/>
<rect x="6.5" y="8" fill="#B700B4" width="1" height="15"/>
<linearGradient id="SVGID_1_" gradientUnits="userSpaceOnUse" x1="8.5" y1="16" x2="26.4043" y2="16">
	<stop  offset="0" style="stop-color:#E31D3B"/>
	<stop  offset="1" style="stop-color:#B700B4"/>
</linearGradient>
<rect x="8.5" y="9" fill="url(#SVGID_1_)" width="17.904" height="14"/>
<g>
	<path fill="#2D2220" d="M27.5,6h-23c-2,0-2,2-2,2v15c0,2,2,2,2,2h3v-1H4.51c-0.46-0.01-1.01-0.189-1.01-1V8.01
		C3.51,7.55,3.69,7,4.5,7h22.99c0.46,0.01,1.01,0.2,1.01,1v14.99c-0.01,0.46-0.189,1.01-1,1.01h-13v1h13c2,0,2-2,2-2V8
		C29.5,6,27.5,6,27.5,6z"/>
</g>
<path fill="#2D2220" d="M24.214,8v1h2.19v13H5.595V9h16.428V8H4.5v15h23V8H24.214z"/>
<rect x="26.5" y="13" display="none" fill="#2D2220" width="1" height="5"/>
<rect x="27.5" y="14" display="none" fill="#FFD561" width="1" height="5"/>
<rect x="5.5" y="8" fill="#2D2220" width="1" height="1"/>
<rect x="7.5" y="8" fill="#2D2220" width="1" height="1"/>
<rect x="9.5" y="8" fill="#2D2220" width="1" height="1"/>
<path fill="none" stroke="#000000" stroke-miterlimit="10" d="M13.674,18.34l-2.863-2.862l2.863-2.864 M19.225,18.339l2.863-2.861
	l-2.863-2.863 M17.309,10.61l-1.72,9.733"/>
<rect x="18.5" y="25" fill="#E31D3B" width="6.167" height="1"/>
</svg>
