<?xml version="1.0" encoding="utf-8"?>
<!-- Generator: Adobe Illustrator 16.0.0, SVG Export Plug-In . SVG Version: 6.00 Build 0)  -->
<!DOCTYPE svg PUBLIC "-//W3C//DTD SVG 1.1//EN" "http://www.w3.org/Graphics/SVG/1.1/DTD/svg11.dtd">
<svg version="1.1" id="Capa_1" xmlns="http://www.w3.org/2000/svg" xmlns:xlink="http://www.w3.org/1999/xlink" x="0px" y="0px"
	 width="32px" height="32px" viewBox="0 0 32 32" enable-background="new 0 0 32 32" xml:space="preserve">
<rect x="12" y="8" display="none" fill="#B700B4" width="1" height="14"/>
<rect x="10" y="8" display="none" fill="#E31D3B" width="1" height="14"/>
<linearGradient id="SVGID_1_" gradientUnits="userSpaceOnUse" x1="16.2695" y1="15" x2="28" y2="15">
	<stop  offset="0" style="stop-color:#E31D3B"/>
	<stop  offset="1" style="stop-color:#B700B4"/>
</linearGradient>
<path fill="url(#SVGID_1_)" d="M16.27,8v14H28V10c0,0-0.838-2-1.676-2H16.27z"/>
<g>
	<path fill="#2D2220" d="M28.5,6h-25C2.67,6,2,6.67,2,7.5v16C2,24.33,2.67,25,3.5,25H15v2h-5v1h12v-1h-5v-2h11.5
		c0.83,0,1.5-0.67,1.5-1.5v-16C30,6.67,29.33,6,28.5,6z M29,21H6v1h23v1.5c0,0.28-0.22,0.5-0.5,0.5h-25C3.22,24,3,23.78,3,23.5v-16
		C3,7.22,3.22,7,3.5,7h25C28.78,7,29,7.22,29,7.5V21z"/>
</g>
<g>
	<path fill="#2D2220" d="M28,9.5v10h-1v-10c0-0.4-0.28-0.49-0.51-0.5H5.5C5.1,9,5.01,9.27,5,9.51V22H4V9.5C4,8.9,4.4,8,5.5,8h21
		C27.1,8,28,8.4,28,9.5z"/>
</g>
<rect x="11" y="28" fill="#B700B4" width="8" height="1"/>
<rect x="20" y="28" fill="#E31D3B" width="3" height="1"/>
<g>
	<path fill="#2D2220" d="M21.351,10H9.85c-0.415,0-0.75,0.335-0.75,0.75v8.5C9.1,19.665,9.435,20,9.85,20h11.5
		c0.414,0,0.749-0.335,0.749-0.75v-8.5C22.1,10.335,21.765,10,21.351,10z M21.6,16.345c0,0,0,1.95,0,2.905
		c0,0.14-0.109,0.25-0.249,0.25H9.85c-0.14,0-0.25-0.11-0.25-0.25c0-0.2,0-0.375,0-0.375c0-0.25,0-0.5,0-0.5l5.155-3.405l1.52,1.115
		l2.619-2.115l2.705,1.875C21.6,15.845,21.6,16.045,21.6,16.345z M21.6,15.2l-2.42-1.641c-0.09-0.06-0.185-0.09-0.279-0.09
		c-0.096,0-0.195,0.03-0.281,0.09l-2.35,1.881l-1.26-0.891c-0.085-0.06-0.185-0.09-0.28-0.09c-0.094,0-0.19,0.03-0.279,0.09
		L9.6,17.77c0,0,0-6.55,0-7.02c0-0.14,0.11-0.25,0.25-0.25h11.5c0.14,0,0.249,0.11,0.249,0.25C21.6,11.03,21.6,15.2,21.6,15.2z"/>
	<path fill="#B700B4" d="M14.1,12.5c0,0.465-0.32,0.854-0.75,0.965c-0.43-0.11-0.75-0.5-0.75-0.965s0.32-0.855,0.75-0.965
		C13.78,11.645,14.1,12.035,14.1,12.5z"/>
	<linearGradient id="SVGID_2_" gradientUnits="userSpaceOnUse" x1="9.6001" y1="16.9844" x2="21.5996" y2="16.9844">
		<stop  offset="0" style="stop-color:#E31D3B"/>
		<stop  offset="1" style="stop-color:#B700B4"/>
	</linearGradient>
	<path fill="url(#SVGID_2_)" d="M21.6,16.345c0,0,0,1.95,0,2.905c0,0.14-0.109,0.25-0.249,0.25H9.85c-0.14,0-0.25-0.11-0.25-0.25
		c0-0.2,0-0.375,0-0.375l5.155-3.405l1.52,1.115l2.619-2.115L21.6,16.345z"/>
</g>
<path fill="#2D2220" d="M13.1,11.5c0.552,0,1,0.449,1,1c0,0.552-0.448,1-1,1c-0.551,0-1-0.448-1-1
	C12.1,11.949,12.548,11.5,13.1,11.5 M13.1,11c-0.828,0-1.5,0.671-1.5,1.5c0,0.828,0.672,1.5,1.5,1.5c0.829,0,1.5-0.672,1.5-1.5
	C14.6,11.671,13.928,11,13.1,11L13.1,11z"/>
</svg>
