<?xml version="1.0" standalone="no"?>
<!DOCTYPE svg PUBLIC "-//W3C//DTD SVG 1.1//EN" "http://www.w3.org/Graphics/SVG/1.1/DTD/svg11.dtd" >
<svg xmlns="http://www.w3.org/2000/svg">
<metadata></metadata>
<defs>
<font id="monospacedbold" horiz-adv-x="1229" >
<font-face units-per-em="2048" ascent="1638" descent="-410" />
<missing-glyph horiz-adv-x="500" />
<glyph horiz-adv-x="0" />
<glyph unicode="&#xd;" horiz-adv-x="0" />
<glyph unicode=" " />
<glyph unicode="!" d="M452 131q3 74 50.5 116t117.5 42q42 0 79 -21.5t59 -58t22 -78.5q0 -54 -42 -106.5t-118 -52.5q-78 0 -123 48.5t-45 110.5zM516 1476h201l-29 -1028h-139z" />
<glyph unicode="&#x22;" d="M232 1204v272h284v-268l-88 -264h-108zM717 1204v272h279v-272l-84 -260h-111z" />
<glyph unicode="#" d="M33 471l31 137h264l53 268h-269l23 136h269l120 640h152l-340 -1848h-156l123 667h-270zM545 -196l339 1848h156l-120 -640h276l-28 -136h-271l-49 -268h272l-24 -137h-277l-119 -667h-155z" />
<glyph unicode="$" d="M209 289l90 115q115 -116 233 -136v459q-87 30 -151 81.5t-98.5 118t-34.5 138.5q3 106 75.5 191.5t208.5 111.5v152h156v-148q150 -23 295 -143l-90 -117q-56 56 -111 86t-94 39v-405q167 -65 231 -155.5t64 -220.5q0 -129 -81.5 -219.5t-213.5 -107.5v-189h-156v191 q-72 0 -161 43.5t-162 114.5zM404 1065q0 -118 132 -189v353q-68 -33 -100 -70t-32 -94zM688 264q67 19 106 70q38 50 38 122q0 152 -144 228v-420z" />
<glyph unicode="%" d="M100 1124q3 80 35.5 167t107 149.5t193.5 62.5q93 0 149 -62t56 -153q-2 -90 -33.5 -184t-102.5 -159t-181 -65q-220 4 -220 236q4 0 -4 8zM135 -28l777 1531h149l-777 -1531h-149zM248 1104q2 -40 9.5 -62t18 -31t22.5 -13t26 -7q43 0 101 57q59 57 71 232 q0 108 -76 112q-66 0 -104 -57.5t-53 -126t-15 -104.5zM568 205q0 76 31 166.5t105.5 157.5t194.5 67q94 -3 151.5 -66.5t57.5 -152.5q-4 -152 -80 -279q-76 -126 -236 -126q-224 4 -224 233zM712 196q2 -44 10 -66.5t20 -32t26 -11.5q14 -1 24 -2q43 0 100 56q56 54 68 232 v15q0 92 -71 92q-98 0 -137.5 -104.5t-39.5 -178.5z" />
<glyph unicode="&#x26;" d="M164 307q0 82 24.5 158.5t78 159t141.5 180.5q-136 187 -136 375q0 80 33 154.5t95.5 121.5t144.5 47q113 0 186.5 -89.5t73.5 -205.5q0 -111 -55 -201.5t-158 -210.5l240 -388q20 144 20 280v68h152q0 -204 -25.5 -327.5t-42.5 -164.5l176 -204l-104 -107l-156 178 q-66 -77 -153.5 -118t-182.5 -41q-116 0 -195.5 46t-118 123t-38.5 166zM316 307q0 -114 62 -160.5t138 -46.5t150 44.5t106 103.5l-284 424l-52.5 -73.5t-67.5 -103t-38.5 -89.5t-13.5 -99zM424 1180q0 -106 84 -256q24 35 50.5 72.5t45 72t31 75t12.5 85.5 q0 74 -32.5 110.5t-69.5 36.5q-64 0 -92.5 -62t-28.5 -134z" />
<glyph unicode="'" d="M471 1348q0 65 46.5 110t119.5 45q82 -3 125 -60t43 -126q0 -110 -92.5 -196.5t-237.5 -120.5v136q93 26 129 68q-66 6 -99.5 49t-33.5 95z" />
<glyph unicode="(" d="M360 680q0 122 23 239.5t72 226.5t126.5 204.5t186.5 169.5l76 -100q-114 -78 -188 -197t-108 -256.5t-36 -286.5q0 -227 84 -426.5t248 -313.5l-76 -100q-133 86 -224.5 218t-137.5 293t-46 329z" />
<glyph unicode=")" d="M387 -60q73 46 134 122t105 175t67.5 212.5t23.5 230.5q0 146 -32.5 282.5t-106 255t-191.5 202.5l74 100q146 -100 237.5 -236t131.5 -288t42 -316q0 -168 -49.5 -332t-143 -297t-218.5 -211z" />
<glyph unicode="*" d="M131 1071l41 133l368 -108v380h148v-380l369 108l43 -133l-379 -107l235 -300l-104 -88l-236 292l-229 -288l-111 80l236 304z" />
<glyph unicode="+" d="M51 672v133h494v487h143v-487h492v-133h-492v-488h-143v488h-494z" />
<glyph unicode="," d="M471 121q0 72 49.5 113.5t112.5 41.5q88 -2 130 -61.5t42 -122.5q0 -102 -85.5 -191t-244.5 -129v136q73 16 133 68q-54 3 -95.5 42.5t-41.5 102.5z" />
<glyph unicode="-" d="M348 672v129h532v-129h-532z" />
<glyph unicode="." d="M452 129q0 60 43 108.5t121 51.5q68 0 116 -49t48 -111q0 -36 -20 -72.5t-57 -60.5t-87 -24q-57 0 -110.5 40.5t-53.5 116.5z" />
<glyph unicode="/" d="M228 -56l620 1588l152 -4l-615 -1584h-157z" />
<glyph unicode="0" d="M172 801q5 132 21.5 251t62.5 220q48 106 133 171t199 65q138 0 231 -72q115 -86 165 -270t50 -372q0 -10 -1 -26t-1 -24q0 -188 -24 -348q-23 -206 -119 -312q-114 -124 -293 -127q-96 0 -172 49.5t-127.5 131.5t-81.5 182q-18 66 -22.5 126t-7.5 175t-13 180zM316 744 q0 -159 20 -299.5t87 -244.5t193 -104q50 4 90 23t78 77q44 75 68 189q24 115 24 359q0 231 -25 345.5t-71 190.5q-58 78 -164 84q-131 0 -192 -92q-108 -158 -108 -528z" />
<glyph unicode="1" d="M256 1264v120l444 136v-1391h264v-129h-696v129h277v1223z" />
<glyph unicode="2" d="M205 86q0 148 50.5 264.5t124.5 199t179.5 172.5t132.5 118q96 100 137 161t43 144q0 114 -61 172.5t-159 58.5q-107 0 -182.5 -77.5t-82.5 -231.5h-151q0 110 46.5 210t141 163t228.5 63q129 -2 212 -50.5t122.5 -128.5t41.5 -179q0 -102 -56 -194.5t-127 -161.5 t-187 -169t-158 -151q-140 -168 -140 -340h672v-129h-823q-4 57 -4 86z" />
<glyph unicode="3" d="M144 252l136 80q30 -76 75.5 -127.5t106 -78t130.5 -26.5q138 6 221.5 80t83.5 216q0 126 -55.5 200.5t-134.5 103.5t-158 29q-29 0 -41 -2v125q86 0 160.5 34t119 96t44.5 146q0 83 -42 139.5t-100 82.5t-106 26q-184 0 -291 -217l-133 78q32 66 136 166t288 100 q144 0 233.5 -66t127.5 -155.5t38 -161.5q0 -75 -34.5 -154.5t-160.5 -164.5q96 -43 153 -102.5t82 -131.5q25 -71 29 -155q0 -110 -54 -212t-159 -165t-247 -63q-100 0 -177 30t-127 74t-88 97t-56 79z" />
<glyph unicode="4" d="M125 381v103l543 1019h200v-991h212v-131h-212v-381h-156v381h-587zM299 512h413v784h-4z" />
<glyph unicode="5" d="M205 215l119 92q45 -92 122.5 -149.5t165.5 -57.5q76 0 137.5 46t96 125t34.5 169q0 94 -30 176t-86 131t-131 49q-74 0 -135.5 -37t-120.5 -131l-158 28l61 820h664v-128h-524l-39 -520q87 96 243 96q95 0 172.5 -38t131 -105t80.5 -151q28 -86 28 -178q0 -126 -52 -236 t-149 -177t-223 -67q-58 0 -110 13t-104.5 43t-99 75t-93.5 112z" />
<glyph unicode="6" d="M196 628q0 244 67.5 444t194 315.5t294.5 115.5q143 0 280 -92l-76 -127q-124 92 -204 92q-87 0 -160.5 -54t-126.5 -142.5t-82 -189t-35 -194.5q132 144 308 144q182 0 287 -130t105 -335q0 -124 -50 -240.5t-146 -189.5t-224 -73q-136 0 -231 66t-147 212t-54 378z M360 456q0 -94 29 -175.5t87 -131t140 -49.5q103 4 188 87t93 301q0 118 -62 220.5t-188 102.5q-82 0 -147.5 -54.5t-102.5 -136.5t-37 -164z" />
<glyph unicode="7" d="M192 1348v128h828l-576 -1476h-168l539 1348h-623z" />
<glyph unicode="8" d="M144 404q0 78 25 153t75 131.5t120 83.5q-94 80 -133 158t-39 190q0 83 29.5 153.5t86 120.5t133.5 78t175 31q119 0 215.5 -47.5t150.5 -137.5t54 -214q0 -105 -36 -177t-136 -155q62 -18 112.5 -74.5t79 -134t28.5 -159.5q0 -112 -47 -210.5t-152 -160t-269 -61.5 q-182 0 -288 70t-145 168t-39 194zM297 404q0 -84 33.5 -153t105.5 -110t180 -41q170 0 243 94t73 210q0 126 -83 213t-233 87q-127 0 -198.5 -53t-96 -121t-24.5 -126zM348 1088q0 -79 56 -166.5t212 -89.5q138 0 201 83t63 189q0 132 -71.5 202t-192.5 70 q-143 0 -205.5 -84t-62.5 -204z" />
<glyph unicode="9" d="M180 1000q0 140 57 254.5t153.5 180.5t205.5 68q150 0 248.5 -77t145 -223.5t46.5 -358.5q0 -226 -50 -393.5t-133 -273.5t-181.5 -155.5t-196.5 -49.5q-44 0 -86.5 8t-86.5 28t-102 56l72 124q116 -88 203 -88q91 0 166 57t127 148t81 192t31 187q-64 -78 -145 -113 t-159 -35q-112 0 -200 53t-140 157t-56 254zM336 1000q0 -154 67 -245t173 -91q80 0 148.5 50t107.5 136q40 84 40 186q0 98 -32.5 176t-90.5 121t-129 43q-117 0 -180.5 -71t-83.5 -156t-20 -149z" />
<glyph unicode=":" d="M452 131q0 48 38 103t130 55q46 0 83.5 -24t57 -61t19.5 -73q0 -67 -46 -113.5t-114 -50.5q-58 0 -112 42t-56 122zM452 828q0 48 38 102q38 53 130 53q71 0 115.5 -49.5t44.5 -105.5q0 -68 -46 -115t-114 -49q-58 0 -112 41t-56 123z" />
<glyph unicode=";" d="M471 129q0 40 38.5 93.5t131.5 53.5q75 0 119.5 -58.5t44.5 -125.5q0 -70 -41.5 -136t-116.5 -115t-172 -69v136q48 12 68.5 23t64.5 45q-138 25 -137 153zM471 828q0 82 59.5 118.5t110.5 36.5q72 -2 116 -50.5t44 -104.5q-2 -88 -60 -124t-100 -36q-66 0 -118 42 t-52 118z" />
<glyph unicode="&#x3c;" d="M168 735l805 741l88 -108l-684 -633l684 -627l-88 -108z" />
<glyph unicode="=" d="M51 549v135h1129v-135h-1129zM51 792v136h1129v-136h-1129z" />
<glyph unicode="&#x3e;" d="M168 108l680 632l-680 628l88 108l805 -736l-809 -740z" />
<glyph unicode="?" d="M232 1149q4 111 55 191.5t136 121.5t185 41q118 -4 201 -48.5t123.5 -123t40.5 -182.5q0 -114 -39.5 -182.5t-122 -133.5t-107.5 -89q-24 -24 -24 -80v-220h-152v248q0 104 105 184q77 60 107 86t54.5 73t24.5 114q0 97 -58.5 162t-164.5 65q-84 0 -146.5 -58t-62.5 -169 h-155zM456 131q0 27 15.5 64t53 65.5t99.5 28.5q72 0 116 -49t44 -109q0 -43 -22 -80t-59 -58t-79 -21q-60 0 -114 41.5t-54 117.5z" />
<glyph unicode="@" d="M-8 616q0 262 116 496q92 186 241 288.5t319 102.5q106 -3 207 -47t182 -125t130 -198t50 -261q0 -118 -37 -234.5t-113.5 -193t-187.5 -76.5q-59 4 -97 21t-85 72q-56 -48 -98.5 -70.5t-94.5 -22.5q-206 6 -212 216q0 100 58 229t158 187q80 48 260 48h109l-65 -372 q-2 -12 -4 -35.5t-4 -36.5q6 -104 75 -104q66 0 107.5 60.5t59.5 144.5q18 83 18 159q0 140 -56 252t-152 174t-208 62q-120 -2 -217 -63t-164 -165.5t-103 -235.5q-34 -132 -36 -272q0 -199 92 -345t340 -146q76 2 138 12.5t110 29t111 51t122 62.5l55 -136 q-262 -172 -548 -172q-166 4 -297.5 80t-205 220t-73.5 344zM469 584q-1 -84 55 -84q63 2 107.5 82t67.5 179t28 163q-70 -4 -130 -50t-94 -122t-34 -168z" />
<glyph unicode="A" d="M96 0l520 1600l524 -1600h-167l-129 436h-453l-127 -436h-168zM432 563h373l-189 596z" />
<glyph unicode="B" d="M219 0v1476h357q158 0 250 -52t128.5 -134t36.5 -178q0 -107 -48.5 -193.5t-141.5 -134.5q100 -46 156.5 -107t78 -130t21.5 -147q0 -119 -55.5 -211t-147.5 -141q-92 -48 -202 -48h-433zM377 129h256q117 0 193.5 77.5t76.5 193.5q0 88 -45.5 157t-121.5 108 q-74 39 -160 39h-199v-575zM377 832h186q65 0 129 33.5t106 97t42 149.5q0 112 -57 174t-228 62h-178v-516z" />
<glyph unicode="C" d="M180 727q0 428 136 602t352 174q90 0 171.5 -40.5t135 -120t61.5 -187.5h-156q-3 108 -66 165q-62 56 -146 56q-336 -6 -336 -649q0 -150 22 -287t93 -238.5t205 -101.5q84 0 165 60t82 200h153q-14 -185 -122 -286q-106 -100 -278 -102q-162 0 -261.5 86t-144 212 t-55.5 238.5t-11 218.5z" />
<glyph unicode="D" d="M228 0v1476h384q206 0 309.5 -119t131 -277t27.5 -349q0 -207 -37.5 -368t-141 -262t-289.5 -101h-384zM385 129h187q136 0 212.5 56.5t110 186.5t33.5 359q0 309 -72 465q-36 78 -98 115t-170 37h-203v-1219z" />
<glyph unicode="E" d="M284 0v1476h768v-128h-612v-529h440v-127h-440v-563h625v-129h-781z" />
<glyph unicode="F" d="M312 0v1476h792v-128h-639v-512h479v-132h-479v-704h-153z" />
<glyph unicode="G" d="M176 688q4 8 4 16q12 798 467 799q156 0 259.5 -94.5t109.5 -308.5h-152q0 138 -61 207t-147 69q-130 0 -201.5 -100t-95 -241t-23.5 -300q2 -127 9 -214t34.5 -187t91 -167t170.5 -67q78 0 146 47t109.5 146t41.5 243q0 46 -2 72h-348v127h504v-763h-156v144 q-57 -66 -122 -102q-64 -36 -173 -42q-200 0 -331 161.5t-134 554.5z" />
<glyph unicode="H" d="M205 0v1476h155v-644h512v644h152v-1476h-152v700h-512v-700h-155z" />
<glyph unicode="I" d="M336 129h200v1219h-200v128h557v-128h-201v-1219h201v-129h-553z" />
<glyph unicode="J" d="M152 404v229h155v-229q-1 -304 229 -304q272 0 273 316v932h-273v128h428v-1032q0 -196 -92 -334t-327 -138q-128 0 -217.5 53t-132.5 150t-43 229z" />
<glyph unicode="K" d="M264 0v1476h156v-648q58 11 127.5 71.5t141 157.5t131.5 211q62 114 100 227l151 -80q-20 -34 -87.5 -149t-139.5 -220.5t-148 -191.5q-75 -84 -137 -110l641 -744h-209l-559 696h-12v-696h-156z" />
<glyph unicode="L" d="M316 0v1476h155v-1347h641v-129h-796z" />
<glyph unicode="M" d="M156 0v1476h147l313 -736l308 736h151v-1476h-151v1136l-308 -736l-304 720h-5v-1120h-151z" />
<glyph unicode="N" d="M236 0v1476h180l448 -1104h4v1104h156v-1492h-148l-485 1192l-4 -4v-1172h-151z" />
<glyph unicode="O" d="M160 725q0 202 33 372.5t131 288t276 117.5h8q176 -2 277 -92.5t141 -260t41 -425.5q0 -250 -38 -402.5t-140 -254.5q-52 -50 -129.5 -73t-143.5 -23q-148 4 -239 71t-137 174t-61 226.5t-19 281.5zM312 819q4 -34 4 -94q6 -190 21 -308.5t80 -216.5t203 -100 q80 0 144 51t106 196t42 409q0 143 -17 275.5t-83 238.5t-196 106q-170 0 -235 -164t-69 -393z" />
<glyph unicode="P" d="M276 0v1476h357q121 0 215 -46.5t149 -147t55 -254.5q0 -110 -42.5 -211t-148 -169t-281.5 -68h-152v-580h-152zM428 708h188q85 0 149 39t98 111.5t34 169.5q-1 320 -273 320h-196v-640z" />
<glyph unicode="Q" d="M160 725q0 202 33 372.5t131 288t276 117.5h8q176 -2 277 -92.5t141 -260t41 -425.5q0 -158 -13.5 -274t-45.5 -199q-30 -84 -84 -140l180 -237h-192l-101 145q-22 -16 -83 -32q-62 -16 -112 -16q-148 4 -239 71t-137 174t-61 226.5t-19 281.5zM312 819q4 -34 4 -94 q6 -190 21 -308.5t80 -216.5t203 -100q80 0 144 51t106 196t42 409q0 143 -17 275.5t-83 238.5t-196 106q-170 0 -235 -164t-69 -393z" />
<glyph unicode="R" d="M268 0v1476h392q97 0 185.5 -40.5t146.5 -134t60 -244.5q0 -146 -69 -241.5t-191 -168.5l396 -647h-188l-357 612h-219v-612h-156zM424 744h164q162 0 248 104q64 79 63 223q1 143 -63 197q-74 80 -256 80h-156v-604z" />
<glyph unicode="S" d="M172 213l117 90q127 -197 327 -203q76 0 141 36t103.5 99t38.5 142q0 60 -18.5 102.5t-50.5 72.5t-113 85t-89 59q-28 19 -122 72t-150 97.5t-93.5 111.5t-39.5 163q0 95 46 178t138.5 134t220.5 51q200 0 400 -182l-92 -113q-178 168 -320 168q-134 -8 -182 -79 t-53 -148q0 -60 28.5 -108.5t74 -85.5t116 -79.5t125.5 -74.5q78 -45 129.5 -80t97.5 -81t73 -108q27 -60 27 -136q0 -118 -52.5 -216t-149.5 -153q-98 -55 -222 -55q-133 4 -241.5 54t-214.5 187z" />
<glyph unicode="T" d="M125 1348v128h983v-128h-420v-1348h-152v1348h-411z" />
<glyph unicode="U" d="M205 452v1024h155v-1099q0 -134 74 -203.5t178 -73.5q256 0 256 308v1068h156v-1091q0 -98 -34.5 -176t-93 -130.5t-132.5 -79.5t-152 -27q-108 0 -201 51t-149.5 160t-56.5 269z" />
<glyph unicode="V" d="M168 1476h172l264 -1253h4l264 1253h172l-336 -1492h-208z" />
<glyph unicode="W" d="M129 1476h164l79 -1152h5l231 741l232 -741h4l72 1152h168l-111 -1492h-177l-188 644l-188 -644h-168z" />
<glyph unicode="X" d="M176 0l364 744l-352 732h176l252 -573l248 573h180l-348 -732l361 -744h-185l-256 588l-260 -588h-180z" />
<glyph unicode="Y" d="M125 1476h168l283 -667l284 667h172l-380 -852v-624h-152v616z" />
<glyph unicode="Z" d="M213 0v112l615 1236h-596v128h772v-108l-608 -1239h656v-129h-839z" />
<glyph unicode="[" d="M344 -228v1748h600v-128h-444v-1492h444v-128h-600z" />
<glyph unicode="\" d="M228 1532h157l615 -1588h-152z" />
<glyph unicode="]" d="M284 -100h443v1492h-443v128h600v-1748h-600v128z" />
<glyph unicode="^" d="M213 731l336 665h131l340 -665h-152l-252 498l-252 -498h-151z" />
<glyph unicode="_" d="M0 -148h1229v-71h-1229v71z" />
<glyph unicode="`" d="M332 1460l112 127l365 -291l-82 -100z" />
<glyph unicode="a" d="M205 328q0 77 27.5 166.5t106 160.5t216.5 76q71 0 229 -51v96q0 96 -48.5 153.5t-139.5 57.5h-3q-107 0 -273 -79l-31 132q58 32 144.5 55t170.5 25q76 0 154 -41t130 -121.5t52 -193.5v-500q0 -48 12.5 -140t30.5 -132l-139 -20l-39 140q-57 -66 -117 -100t-156 -36 q-122 0 -221 81t-106 271zM360 328q0 -88 45 -154t127 -66q66 0 123 42t129 147v252q-132 55 -212 55q-106 -3 -159 -81.5t-53 -194.5z" />
<glyph unicode="b" d="M180 -4q52 172 52 364v1160h155v-463q113 63 225 63q110 0 215 -60t172.5 -188t67.5 -317q0 -178 -57.5 -309.5t-158.5 -200.5t-227 -69q-76 0 -124 22t-140 106l-36 -124zM387 299q0 -10 27.5 -58.5t80.5 -90.5t129 -42q104 0 169.5 69t94 172t28.5 204q0 135 -42 234.5 t-115 151.5t-163 52q-58 0 -119.5 -30t-89.5 -62v-600z" />
<glyph unicode="c" d="M205 532q0 189 60.5 322.5t166.5 199.5t240 66q117 0 217 -59t186 -185l-135 -88q-54 104 -116 151.5t-152 47.5q-130 0 -223 -105t-97 -329q2 -2 3 -4.5t1 -3.5q2 -130 41 -229t112 -153.5t171 -54.5q144 0 284 181l103 -113q-182 -200 -387 -200q-174 4 -280.5 86 t-150.5 206t-44 264z" />
<glyph unicode="d" d="M160 553q2 172 62 300.5t163 197.5t231 69q118 0 220 -63v463h151v-1176q0 -78 16 -174q15 -95 45 -174l-149 -20l-31 124q-81 -72 -133.5 -98t-130.5 -26q-114 0 -216 62t-165 192.5t-63 322.5zM312 549q0 -145 42 -245t111 -148t147 -48q76 0 128 47t96 142v602 q-104 88 -212 88q-76 0 -147 -44t-118 -142.5t-47 -251.5z" />
<glyph unicode="e" d="M180 540q0 194 63.5 325t168.5 193t229 62q114 0 209.5 -64t153 -202t57.5 -346h-729q6 -214 93 -307t216 -93q82 0 176.5 34.5t165.5 80.5l69 -135q-238 -112 -411 -112q-150 0 -254 71.5t-155.5 199.5t-51.5 293zM332 637h576q-10 166 -89 258t-186 92 q-124 0 -197.5 -83t-103.5 -267z" />
<glyph unicode="f" d="M196 897v131h273v131q0 79 37.5 159t115 132.5t189.5 52.5h4q134 0 281 -75v-156q-97 50 -161 77t-124 27q-187 0 -187 -231v-117h353v-131h-353v-897h-155v897h-273z" />
<glyph unicode="g" d="M184 596q0 113 30 209.5t85 167.5t133 109t172 38q134 -8 268 -100l27 100h145q-23 -82 -33.5 -187t-10.5 -157v-672q0 -116 -49.5 -215t-140 -160t-206.5 -65q-204 0 -364 172l112 92q97 -133 258 -133h2q79 0 131.5 46.5t76.5 120.5t24 159v63q-150 -92 -256 -92 q-122 0 -213 65t-141 180t-50 259zM336 600q0 -190 77 -285.5t179 -95.5q64 0 140 40.5t112 104.5v488q-34 61 -103.5 98t-136.5 37q-64 0 -126 -36t-102 -122.5t-40 -228.5z" />
<glyph unicode="h" d="M240 0v1520h156v-584q144 184 335 184q115 0 176.5 -73t81 -176.5t19.5 -223.5v-647h-152v696q0 136 -35.5 213.5t-103.5 77.5q-108 0 -181 -75.5t-106.5 -186t-33.5 -213.5v-512h-156z" />
<glyph unicode="i" d="M252 968v128h469v-1096h-158v968h-311zM508 1372q0 70 44 100.5t85 30.5q70 -2 100.5 -45.5t30.5 -85.5q-6 -67 -45 -96t-86 -29q-40 0 -84.5 30t-44.5 95z" />
<glyph unicode="j" d="M148 108h155q0 -179 47.5 -246t137.5 -67q72 0 118 38t66 86.5t20 80.5v968h-315v128h471v-1076q0 -108 -51 -188t-134 -122t-175 -42q-71 0 -131 23.5t-107 75.5t-74 137q-26 86 -28 204zM628 1380q0 54 40 88.5t88 34.5q51 0 89.5 -34.5t38.5 -88.5q0 -62 -39 -97.5 t-89 -35.5q-51 0 -89.5 35.5t-38.5 97.5z" />
<glyph unicode="k" d="M289 0v1520h151v-904q268 268 412 480h196q-240 -291 -444 -500l541 -596h-209l-428 504l-68 -68v-436h-151z" />
<glyph unicode="l" d="M236 1392v128h468v-1520h-155v1392h-313z" />
<glyph unicode="m" d="M92 1120h156l20 -100q61 55 112.5 77.5t111.5 22.5q112 0 180 -100q70 60 114 80t107 20q69 0 121.5 -30t81 -86t28.5 -132v-872h-151v876q0 50 -28.5 82.5t-76.5 32.5q-46 0 -103 -44.5t-57 -90.5v-856h-153v864q0 122 -86 123q-50 0 -113 -42.5t-63 -92.5v-852h-153 v792q0 58 -14 162t-34 166z" />
<glyph unicode="n" d="M180 1096h144l36 -199q72 112 170 167.5t197 55.5q81 0 143 -42t96 -120t34 -182v-776h-156v731q0 112 -24 184t-112 72q-117 0 -190.5 -82.5t-105 -201t-31.5 -228.5v-475h-153v555q0 331 -48 541z" />
<glyph unicode="o" d="M196 549q0 126 37 256t133 222.5t262 92.5q109 0 191.5 -43t137.5 -122t81.5 -184t26.5 -231q0 -142 -42.5 -271t-140.5 -211t-254 -82q-191 0 -287 115t-120.5 240.5t-24.5 217.5zM348 549q0 -221 71 -331t209 -110q115 0 199.5 93.5t84.5 347.5q0 236 -81 337t-203 101 q-164 0 -222 -133t-58 -305z" />
<glyph unicode="p" d="M180 1104l144 20l36 -128q74 74 134 99q58 25 134 25q107 -3 190.5 -48.5t138.5 -124.5t82.5 -182t27.5 -220q0 -186 -66.5 -314.5t-171.5 -190.5t-221 -64q-109 0 -221 65v-461h-155v1120q0 266 -52 404zM387 196q96 -88 205 -88q142 0 231 110t93 327q0 202 -82 324 t-206 122q-96 -2 -150 -56.5t-91 -138.5v-600z" />
<glyph unicode="q" d="M156 545q0 190 63.5 320.5t165 192.5t211.5 62q82 0 140 -26q56 -26 132 -98l31 128l149 -20q-29 -76 -45 -168t-16 -152v-1204h-151v461q-96 -65 -224 -65q-86 0 -167 37t-146 109.5t-103 180.5t-40 242zM312 545q0 -126 37 -225.5t109 -155.5t170 -56q58 0 98 21 t110 71v605q-54 110 -109 146t-123 36q-108 -2 -174 -72t-92 -170.5t-26 -199.5z" />
<glyph unicode="r" d="M276 1096h152l37 -207q134 231 336 231q121 0 188.5 -92t67.5 -276h-154q0 132 -23.5 183.5t-78.5 51.5q-59 0 -125.5 -47.5t-116.5 -138.5q-84 -158 -84 -336v-465h-155v641q0 58 -13.5 232t-30.5 223z" />
<glyph unicode="s" d="M192 168l80 121q194 -181 365 -181q90 3 136 49q46 45 46 123q0 130 -127 181l-204 79q-26 10 -78 42t-103 96t-51 150q4 78 48 145t119 106t169 41q190 0 356 -129l-64 -123q-71 58 -157.5 90.5t-138.5 32.5q-76 -3 -126 -52t-50 -111q0 -54 50 -107t162 -88 q144 -49 222 -105t103 -113t28 -135q0 -78 -43.5 -146.5t-121.5 -111.5q-77 -42 -175 -46q-101 0 -214 45t-231 147z" />
<glyph unicode="t" d="M164 968v128h236v336h155v-336h393v-128h-393v-652q0 -123 36.5 -165.5t104.5 -42.5q140 0 232 191l147 -35q-32 -80 -89.5 -145t-134.5 -104t-167 -39q-88 2 -150 36t-98 120t-36 232v604h-236z" />
<glyph unicode="u" d="M232 320v776h155v-756q0 -232 133 -232q98 0 174 73t117 196t41 266v453h152v-588q0 -90 3 -160.5t13 -156t32 -191.5h-149l-31 213q-48 -74 -108 -126.5t-124 -80.5t-124 -30q-79 0 -144 39t-102 117q-38 78 -38 188z" />
<glyph unicode="v" d="M184 1096h160l268 -852l268 852h160l-340 -1112h-176z" />
<glyph unicode="w" d="M72 1096h172l124 -820h4l160 552h148l160 -552h4l124 820h172l-192 -1112h-164l-180 596l-176 -596h-164z" />
<glyph unicode="x" d="M96 0l432 584l-348 512h180l256 -384l248 384h176l-340 -504l432 -592h-196l-324 471l-319 -471h-197z" />
<glyph unicode="y" d="M33 -96l127 68q64 -176 152 -177q91 1 163 185l74 164l-353 952h164l268 -744l284 744h163l-419 -1068q-144 -360 -344 -360q-94 0 -169 62t-110 174z" />
<glyph unicode="z" d="M188 0v112l636 856h-544v128h736v-113l-629 -854h653v-129h-852z" />
<glyph unicode="{" d="M272 660q46 14 91.5 27t80.5 32t55.5 53t20.5 88v360q0 136 60 208q42 48 120 70q80 22 228 22h72v-56h-52q-276 0 -276 -180v-424q0 -144 -100 -200q46 -16 73 -65t27 -116v-436q0 -91 69 -134.5t167 -43.5q14 0 45 2t47 2v-65h-76q-196 0 -296 52q-108 58 -108 244v361 q0 107 -64 147q-18 12 -42 19.5t-63 16t-79 16.5z" />
<glyph unicode="|" d="M549 -592v2044v172h135v-2044v-172h-135z" />
<glyph unicode="}" d="M232 -135h40q124 0 205.5 36t81.5 142v426q1 147 105 191q-52 32 -78.5 75.5t-26.5 120.5v420q0 106 -68.5 148t-206.5 42q-8 0 -26 -1q-16 -1 -26 -1v60q52 0 121.5 -2t143 -16t127.5 -50q92 -62 93 -248v-368q0 -61 31.5 -94.5t70.5 -46.5t141 -39q-120 -27 -156 -40.5 t-52 -35.5q-34 -43 -35 -119v-361q-1 -176 -101 -239q-96 -61 -304 -61h-80v61z" />
<glyph unicode="~" d="M37 616q53 107 139 190t201 83q64 -2 128 -25.5t192 -76t159 -52.5q120 6 228 205l108 -80q-53 -101 -141.5 -178.5t-194.5 -77.5q-43 0 -100.5 19t-141.5 54t-138.5 55t-98.5 24q-78 0 -129 -60q-50 -60 -104 -164z" />
<glyph unicode="&#xa0;" />
<glyph unicode="&#xa1;" d="M448 1352q0 36 21.5 71t59.5 57q37 23 83 23q56 0 112 -40.5t56 -110.5q0 -80 -54 -122t-114 -42q-75 0 -119.5 52t-44.5 112zM516 0l29 1028h135l37 -1028h-201z" />
<glyph unicode="&#xa2;" d="M205 772q0 136 37.5 251t123.5 195t222 109v193h156v-193q108 -15 181 -72t150 -163l-135 -92q-56 92 -90 134t-106 62v-864q46 16 80 38t65 53.5t75 80.5l103 -104q-72 -82 -160.5 -135t-162.5 -65v-260h-156v260q-144 30 -229 114.5t-119.5 202t-34.5 255.5zM356 772 q0 -358 232 -436v860q-232 -63 -232 -424z" />
<glyph unicode="&#xa3;" d="M148 752v128h204q-50 144 -49 236q0 109 53.5 190.5t145.5 124.5t202 45q118 0 225 -66q107 -68 155 -190l-144 -44q-48 94 -107 133t-137 39q-63 0 -118.5 -27t-88.5 -80t-33 -125q0 -104 48 -236h412v-128h-376q5 -24 20.5 -83t23.5 -105t8 -89q0 -128 -104 -307 q90 20 132 20q42 -2 75 -11t73 -25t64.5 -23.5t56.5 -7.5q63 0 155 88l88 -101q-70 -72 -127 -94t-116 -22q-40 0 -67.5 7t-71.5 23.5t-76 25t-74 8.5q-121 0 -252 -84l-84 104q26 46 65 111t60.5 107.5t34 86t12.5 94.5q0 95 -49 277h-239z" />
<glyph unicode="&#xa4;" d="M20 1256l72 65l220 -217q132 104 308 104q82 0 151 -24t149 -80l220 217l68 -65l-225 -220q105 -133 105 -301q-6 -165 -105 -295l221 -221l-64 -67l-220 220q-138 -104 -300 -104q-86 0 -169 26t-139 78l-224 -216l-64 63l224 221q-104 132 -104 295t100 301zM223 735 q0 -109 52 -198t143.5 -139t201.5 -50q98 0 187 47t143 135.5t54 204.5q0 118 -55 208.5t-143 139.5q-90 49 -186 49q-90 0 -182 -41t-153.5 -131t-61.5 -225z" />
<glyph unicode="&#xa5;" d="M125 1476h174l281 -667l276 667h176l-380 -852v-32h245v-127h-245v-465h-152v465h-236v127h236v32z" />
<glyph unicode="&#xa6;" horiz-adv-x="139" d="M549 -592v2044v172h135v-2044v-172h-135z" />
<glyph unicode="&#xa7;" d="M205 832q0 68 33.5 116t113.5 109q-68 87 -68 159q0 92 42.5 157t116 97.5t165.5 32.5q90 0 167 -31.5t125 -101.5t48 -178v-47h-152q0 128 -46 179.5t-142 51.5q-70 0 -119 -38t-49 -105q0 -44 25 -81.5t90 -90.5l246 -185q96 -66 159.5 -135t63.5 -165 q0 -69 -32 -114.5t-116 -109.5q68 -90 68 -164q0 -106 -53.5 -170t-127 -89t-139.5 -25q-140 0 -242 74t-102 229q0 16 4 57h148q0 -231 180 -231q77 0 128.5 35t51.5 108q0 41 -20 72q-16 27 -53 59.5t-115 88.5q-76 56 -112 83q-108 82 -159 125t-89.5 101.5t-38.5 126.5z M356 844q0 -32 14 -58t43 -53t102 -83t97 -74l176 -140q52 26 68 64.5t16 58.5q0 38 -17 69t-41 53.5t-55 46.5t-71 52q-44 32 -94.5 73t-95 76t-58.5 44q-84 -49 -84 -129z" />
<glyph unicode="&#xa8;" d="M289 1392q0 56 42.5 96t100.5 40q33 0 65.5 -19.5t53.5 -51.5q21 -33 21 -65q0 -50 -36 -94t-104 -46q-62 0 -102 42q-41 42 -41 98zM656 1392q0 36 19 67t51.5 50t69.5 19q56 0 100 -40t44 -96q0 -48 -37 -93t-107 -47q-58 0 -99 42t-41 98z" />
<glyph unicode="&#xa9;" d="M20 740q0 146 43.5 283t123 246t189.5 171.5t236 62.5q138 0 250 -68.5t189 -182.5t117 -248t40 -264q0 -312 -168 -527q-176 -241 -428 -241q-186 0 -319 116.5t-201 295t-72 356.5zM172 740q0 -154 55 -297t156 -230.5t229 -87.5q138 0 239 97t153.5 240.5t52.5 277.5 q0 103 -27.5 210t-82.5 198.5t-140 147.5t-195 56q-142 -2 -241 -95.5t-149 -235.5q-50 -141 -50 -281zM312 740q0 149 46 250t121 149.5t162 48.5q106 0 181 -77.5t94 -211.5h-140q-6 67 -44 106t-91 39q-48 0 -91.5 -30t-70.5 -95t-27 -163q0 -142 53 -229t136 -87 q52 0 89.5 42t45.5 118h140q-18 -148 -95 -223t-180 -80q-83 0 -159 52.5t-123 152.5q-47 102 -47 238z" />
<glyph unicode="&#xaa;" d="M336 532v120h536v-120h-536zM340 1036q0 114 74 179t182 65q40 0 104 -16q0 60 -24 90t-60 30q-26 0 -58 -9.5t-79 -28.5t-67 -25l-25 143q167 38 229 39q97 0 158.5 -64.5t61.5 -186.5v-265q0 -86 32 -182l-128 -17l-19 64q-50 -37 -79.5 -46.5t-78.5 -13.5 q-67 0 -118 32t-78 88q-27 54 -27 124zM475 1024q8 -112 88 -112q29 0 66.5 27t70.5 73v124q-73 22 -108 23q-59 0 -88 -43.5t-29 -91.5z" />
<glyph unicode="&#xab;" d="M41 727l559 533l96 -101l-460 -428l460 -434l-96 -101zM536 727l560 533l96 -96l-461 -437l461 -430l-96 -101z" />
<glyph unicode="&#xac;" d="M51 792v136h1129v-600h-144v464h-985z" />
<glyph unicode="&#xad;" d="M348 672v129h532v-129h-532z" />
<glyph unicode="&#xae;" d="M20 740q0 146 43.5 283t123 246t189.5 171.5t236 62.5q138 0 250 -68.5t189 -182.5t117 -248t40 -264q0 -312 -168 -527q-176 -241 -428 -241q-186 0 -319 116.5t-201 295t-72 356.5zM172 740q2 -116 35 -226t94 -198t141 -138.5t170 -52.5q88 0 173 51.5t143 126.5 q130 171 129 437q0 282 -158 464q-65 70 -131 109t-156 39q-136 0 -236 -94t-152 -236t-52 -282zM368 320v829h316q108 0 162.5 -36.5t70 -91t15.5 -128.5q0 -124 -51 -167.5t-125 -53.5l156 -352h-148l-144 352h-120v-352h-132zM500 792h188q66 0 89.5 33t23.5 91 q0 56 -26.5 84t-98.5 28h-176v-236z" />
<glyph unicode="&#xaf;" horiz-adv-x="1237" d="M51 80v135h1129v-135h-1129zM51 776v132h494v488h143v-488h492v-132h-492v-487h-143v487h-494z" />
<glyph unicode="&#xb1;" d="M51 80v135h1129v-135h-1129zM51 776v132h494v488h143v-488h492v-132h-492v-487h-143v487h-494z" />
<glyph unicode="&#xb2;" d="M78 764q0 79 28 142.5t68 107.5t99 95t67 59l42 42t25.5 29t16 31t8.5 43q0 49 -27 78t-77 29q-116 0 -128 -156h-104q10 108 68 173.5t164 65.5q102 0 153 -54t51 -136q0 -80 -43 -134.5t-131 -124.5t-131 -122t-43 -127h352v-88h-456q-2 16 -2 47z" />
<glyph unicode="&#xb3;" d="M43 860l92 52q30 -65 68.5 -94.5t93.5 -29.5q67 3 107 40.5t40 99.5q0 70 -31 104t-67 42t-106 14v84q70 0 119 35t49 97q-2 60 -40 88t-79 28q-85 0 -145 -112l-84 44q72 152 229 151q82 0 132.5 -35.5t70.5 -82.5t20 -85q0 -96 -92 -164q125 -56 125 -208 q0 -47 -26.5 -99.5t-80.5 -88.5t-126 -36q-71 0 -116.5 17.5t-76.5 48t-76 90.5z" />
<glyph unicode="&#xb4;" d="M377 1296l367 291l108 -127l-396 -264z" />
<glyph unicode="&#xb5;" d="M236 -471v1567h155v-644q0 -170 58.5 -257t158.5 -87q104 0 168 90.5t64 262.5v635h151v-1096h-151v92q-92 -116 -220 -116q-156 8 -229 104v-551h-155z" />
<glyph unicode="&#xb6;" d="M100 1065q0 112 50 205t161 149.5t281 56.5h553v-128h-97v-1571h-151v1571h-201v-1571h-151v883q-136 0 -236.5 54t-152.5 146q-54 93 -56 205z" />
<glyph unicode="&#xb7;" d="M452 740q0 60 47.5 109.5t116.5 49.5q68 0 115 -49.5t49 -109.5q0 -41 -23 -80.5t-61 -63.5q-40 -24 -80 -24q-70 3 -117 51q-47 49 -47 117z" />
<glyph unicode="&#xb8;" d="M420 -328l45 113q105 -45 155 -45q76 0 76 51q0 24 -28 34.5t-86 15.5t-74 7l80 228h133l-49 -140q95 -6 137.5 -50t42.5 -105q0 -65 -55 -116t-150 -52q-100 -1 -227 59z" />
<glyph unicode="&#xb9;" d="M108 1352v92l252 80v-728h140v-88h-384v88h144v600z" />
<glyph unicode="&#xba;" d="M320 1145q0 150 71 254t221 104q149 0 220.5 -101.5t75.5 -252.5q0 -147 -74 -252t-222 -105q-144 0 -218 103.5t-74 249.5zM348 532v120h536v-120h-536zM456 1145q0 -229 156 -229q160 0 160 233q0 100 -38 167.5t-122 67.5q-156 0 -156 -239z" />
<glyph unicode="&#xbb;" d="M41 297l459 434l-459 433l94 96l561 -529l-561 -535zM536 297l455 430l-455 437l97 96l559 -533l-559 -531z" />
<glyph unicode="&#xbc;" d="M108 1352v92l252 80v-728h140v-88h-384v88h144v600zM276 0l672 1476h119l-676 -1476h-115zM656 196v64l288 528h121v-508h111v-84h-111v-196h-105v196h-304zM776 280h184v344h-4z" />
<glyph unicode="&#xbd;" d="M108 1352v92l252 80v-728h140v-88h-384v88h144v600zM240 0l672 1476h120l-676 -1476h-116zM698 49q0 79 27.5 141t68 106t96.5 91t70 61q12 12 33 35t32.5 38t17 32t5.5 43q0 46 -27 75t-77 29q-119 0 -125 -155h-107q10 108 68.5 175.5t163.5 67.5q102 -3 153.5 -55.5 t51.5 -136.5q0 -80 -44 -135t-130 -123t-130 -123t-44 -131h352v-84h-453q-2 16 -2 49z" />
<glyph unicode="&#xbe;" d="M43 860l92 52q30 -65 68.5 -94.5t93.5 -29.5q67 3 107 40.5t40 99.5q0 70 -31 104t-67 42t-106 14v84q70 0 119 35t49 97q-2 60 -40 88t-79 28q-85 0 -145 -112l-84 44q72 152 229 151q82 0 132.5 -35.5t70.5 -82.5t20 -85q0 -96 -92 -164q125 -56 125 -208 q0 -47 -26.5 -99.5t-80.5 -88.5t-126 -36q-71 0 -116.5 17.5t-76.5 48t-76 90.5zM272 0l672 1476h117l-676 -1476h-113zM656 196v64l288 528h121v-508h111v-84h-111v-196h-105v196h-304zM776 280h184v344h-4z" />
<glyph unicode="&#xbf;" d="M260 324q0 168 92 256q28 29 88 74.5t86.5 78.5t26.5 82v217h151v-221q0 -90 -36.5 -141.5t-109.5 -106.5t-109.5 -104t-36.5 -135q0 -90 56 -157t160 -67q88 0 150.5 54t65.5 170h156q-12 -174 -117 -263t-255 -89q-94 0 -178 36t-137 115t-53 201zM448 1348 q0 54 42 104.5t126 50.5q59 0 109.5 -43.5t50.5 -111.5q0 -59 -47 -109.5t-113 -50.5q-72 0 -120 44.5t-48 115.5z" />
<glyph unicode="&#xc0;" d="M96 0l520 1600l524 -1600h-167l-129 436h-453l-127 -436h-168zM332 1841l112 127l365 -291l-82 -100zM432 563h373l-189 596z" />
<glyph unicode="&#xc1;" d="M96 0l520 1600l524 -1600h-167l-129 436h-453l-127 -436h-168zM377 1677l367 291l108 -127l-396 -264zM432 563h373l-189 596z" />
<glyph unicode="&#xc2;" d="M96 0l520 1600l524 -1600h-167l-129 436h-453l-127 -436h-168zM248 1661l368 312l367 -312l-84 -88l-283 213l-288 -213zM432 563h373l-189 596z" />
<glyph unicode="&#xc3;" d="M96 0l520 1600l524 -1600h-167l-129 436h-453l-127 -436h-168zM209 1673q94 218 256 224q53 0 94 -21t116 -65t105 -46l3 3l1 1q66 4 113 115l123 -51q-32 -87 -92 -140q-62 -52 -144 -52q-44 0 -85.5 16t-94 47.5t-81.5 46t-58 14.5q-80 0 -129 -141zM432 563h373 l-189 596z" />
<glyph unicode="&#xc4;" d="M96 0l520 1600l524 -1600h-167l-129 436h-453l-127 -436h-168zM289 1773q0 56 42.5 96t100.5 40q33 0 65.5 -19.5t53.5 -51.5q21 -33 21 -65q0 -50 -36 -94t-104 -46q-62 0 -102 42q-41 42 -41 98zM432 563h373l-189 596zM656 1773q0 36 19 67t51.5 50t69.5 19 q56 0 100 -40t44 -96q0 -48 -37 -93t-107 -47q-58 0 -99 42t-41 98z" />
<glyph unicode="&#xc5;" d="M96 0l520 1600l524 -1600h-167l-129 436h-453l-127 -436h-168zM424 1769q0 47 23.5 93.5t67 76t101.5 29.5q86 -3 139.5 -61t53.5 -138q0 -73 -56.5 -131t-136.5 -61q-58 0 -102 29.5t-67 74t-23 88.5zM432 563h373l-189 596zM553 1769q0 -26 18.5 -45.5t44.5 -19.5 q22 0 43 18q21 17 21 47t-20 49q-22 19 -44 19q-29 0 -46 -18t-17 -50z" />
<glyph unicode="&#xc6;" d="M41 0l407 1476h676v-128h-416v-520h283v-128h-283v-571h437v-129h-590v440h-239l-116 -440h-159zM352 568h203v780h-2z" />
<glyph unicode="&#xc7;" d="M180 727q0 428 136 602t352 174q90 0 171.5 -40.5t135 -120t61.5 -187.5h-156q-3 108 -66 165q-62 56 -146 56q-336 -6 -336 -649q0 -150 22 -287t93 -238.5t205 -101.5q84 0 165 60t82 200h153q-15 -176 -112 -276t-256 -112l-12 -36q94 -6 137 -51t43 -104 q0 -65 -55 -116t-150 -52q-100 -1 -227 59l45 113q105 -45 155 -45q76 0 76 51q0 24 -28 34.5t-86 15.5t-74 7l45 132q-238 44 -305.5 271t-67.5 476z" />
<glyph unicode="&#xc8;" d="M284 0v1476h768v-128h-612v-529h440v-127h-440v-563h625v-129h-781zM375 1841l112 127l365 -291l-82 -100z" />
<glyph unicode="&#xc9;" d="M284 0v1476h768v-128h-612v-529h440v-127h-440v-563h625v-129h-781zM381 1677l367 291l108 -127l-396 -264z" />
<glyph unicode="&#xca;" d="M252 1661l368 312l367 -312l-84 -88l-283 213l-288 -213zM284 0v1476h768v-128h-612v-529h440v-127h-440v-563h625v-129h-781z" />
<glyph unicode="&#xcb;" d="M284 0v1476h768v-128h-612v-529h440v-127h-440v-563h625v-129h-781zM293 1773q0 56 42.5 96t100.5 40q33 0 65.5 -19.5t53.5 -51.5q21 -33 21 -65q0 -50 -36 -94t-104 -46q-62 0 -102 42q-41 42 -41 98zM660 1773q0 36 19 67t51.5 50t69.5 19q56 0 100 -40t44 -96 q0 -48 -37 -93t-107 -47q-58 0 -99 42t-41 98z" />
<glyph unicode="&#xcc;" d="M336 129h200v1219h-200v128h557v-128h-201v-1219h201v-129h-553zM336 1841l112 127l365 -291l-82 -100z" />
<glyph unicode="&#xcd;" d="M336 129h200v1219h-200v128h557v-128h-201v-1219h201v-129h-553zM381 1677l367 291l108 -127l-396 -264z" />
<glyph unicode="&#xce;" d="M252 1661l368 312l367 -312l-84 -88l-283 213l-288 -213zM336 129h200v1219h-200v128h557v-128h-201v-1219h201v-129h-553z" />
<glyph unicode="&#xcf;" d="M293 1773q0 56 42.5 96t100.5 40q33 0 65.5 -19.5t53.5 -51.5q21 -33 21 -65q0 -50 -36 -94t-104 -46q-62 0 -102 42q-41 42 -41 98zM336 129h200v1219h-200v128h557v-128h-201v-1219h201v-129h-553zM660 1773q0 36 19 67t51.5 50t69.5 19q56 0 100 -40t44 -96 q0 -48 -37 -93t-107 -47q-58 0 -99 42t-41 98z" />
<glyph unicode="&#xd0;" d="M33 680v129h195v667h384q206 0 309.5 -119t131 -277t27.5 -349q0 -207 -37.5 -368t-141 -262t-289.5 -101h-384v680h-195zM385 129h187q136 0 212.5 56.5t110 186.5t33.5 359q0 309 -72 465q-36 78 -98 115t-170 37h-203v-539h207v-129h-207v-551z" />
<glyph unicode="&#xd1;" d="M213 1673q94 218 256 224q53 0 94 -21t116 -65t105 -46l3 3l1 1q66 4 113 115l123 -51q-32 -87 -92 -140q-62 -52 -144 -52q-44 0 -85.5 16t-94 47.5t-81.5 46t-58 14.5q-80 0 -129 -141zM236 0v1476h180l448 -1104h4v1104h156v-1492h-148l-485 1192l-4 -4v-1172h-151z " />
<glyph unicode="&#xd2;" d="M160 725q0 202 33 372.5t131 288t276 117.5h8q176 -2 277 -92.5t141 -260t41 -425.5q0 -250 -38 -402.5t-140 -254.5q-52 -50 -129.5 -73t-143.5 -23q-148 4 -239 71t-137 174t-61 226.5t-19 281.5zM312 819q4 -34 4 -94q6 -190 21 -308.5t80 -216.5t203 -100 q80 0 144 51t106 196t42 409q0 143 -17 275.5t-83 238.5t-196 106q-170 0 -235 -164t-69 -393zM373 1841l112 127l365 -291l-82 -100z" />
<glyph unicode="&#xd3;" d="M160 725q0 202 33 372.5t131 288t276 117.5h8q176 -2 277 -92.5t141 -260t41 -425.5q0 -250 -38 -402.5t-140 -254.5q-52 -50 -129.5 -73t-143.5 -23q-148 4 -239 71t-137 174t-61 226.5t-19 281.5zM312 819q4 -34 4 -94q6 -190 21 -308.5t80 -216.5t203 -100 q80 0 144 51t106 196t42 409q0 143 -17 275.5t-83 238.5t-196 106q-170 0 -235 -164t-69 -393zM377 1677l367 291l108 -127l-396 -264z" />
<glyph unicode="&#xd4;" d="M160 725q0 202 33 372.5t131 288t276 117.5h8q176 -2 277 -92.5t141 -260t41 -425.5q0 -250 -38 -402.5t-140 -254.5q-52 -50 -129.5 -73t-143.5 -23q-148 4 -239 71t-137 174t-61 226.5t-19 281.5zM248 1661l368 312l367 -312l-84 -88l-283 213l-288 -213zM312 819 q4 -34 4 -94q6 -190 21 -308.5t80 -216.5t203 -100q80 0 144 51t106 196t42 409q0 143 -17 275.5t-83 238.5t-196 106q-170 0 -235 -164t-69 -393z" />
<glyph unicode="&#xd5;" d="M160 725q0 202 33 372.5t131 288t276 117.5h8q176 -2 277 -92.5t141 -260t41 -425.5q0 -250 -38 -402.5t-140 -254.5q-52 -50 -129.5 -73t-143.5 -23q-148 4 -239 71t-137 174t-61 226.5t-19 281.5zM209 1673q94 218 256 224q53 0 94 -21t116 -65t105 -46l3 3l1 1 q66 4 113 115l123 -51q-32 -87 -92 -140q-62 -52 -144 -52q-44 0 -85.5 16t-94 47.5t-81.5 46t-58 14.5q-80 0 -129 -141zM312 819q4 -34 4 -94q6 -190 21 -308.5t80 -216.5t203 -100q80 0 144 51t106 196t42 409q0 143 -17 275.5t-83 238.5t-196 106q-170 0 -235 -164 t-69 -393z" />
<glyph unicode="&#xd6;" d="M160 725q0 202 33 372.5t131 288t276 117.5h8q176 -2 277 -92.5t141 -260t41 -425.5q0 -250 -38 -402.5t-140 -254.5q-52 -50 -129.5 -73t-143.5 -23q-148 4 -239 71t-137 174t-61 226.5t-19 281.5zM289 1773q0 56 42.5 96t100.5 40q33 0 65.5 -19.5t53.5 -51.5 q21 -33 21 -65q0 -50 -36 -94t-104 -46q-62 0 -102 42q-41 42 -41 98zM312 819q4 -34 4 -94q6 -190 21 -308.5t80 -216.5t203 -100q80 0 144 51t106 196t42 409q0 143 -17 275.5t-83 238.5t-196 106q-170 0 -235 -164t-69 -393zM656 1773q0 36 19 67t51.5 50t69.5 19 q56 0 100 -40t44 -96q0 -48 -37 -93t-107 -47q-58 0 -99 42t-41 98z" />
<glyph unicode="&#xd8;" d="M125 12l115 203q-48 106 -62 228.5t-14 273.5v53q0 733 452 733q80 0 157.5 -30.5t129.5 -84.5l57 101l115 -69l-88 -152q20 -34 50.5 -160.5t33.5 -372.5q0 -283 -56 -451.5t-155.5 -239t-243.5 -72.5q-168 0 -292 116l-88 -144zM316 717q0 -128 24 -326l488 861 q-84 124 -212 124q-138 0 -219 -139t-81 -459v-61zM400 228q36 -58 96 -93t120 -35q74 0 130 34t93.5 111t57 207.5t19.5 323.5q0 176 -27 316z" />
<glyph unicode="&#xd9;" d="M205 452v1024h155v-1099q0 -134 74 -203.5t178 -73.5q256 0 256 308v1068h156v-1091q0 -98 -34.5 -176t-93 -130.5t-132.5 -79.5t-152 -27q-108 0 -201 51t-149.5 160t-56.5 269zM332 1841l112 127l365 -291l-82 -100z" />
<glyph unicode="&#xda;" d="M205 452v1024h155v-1099q0 -134 74 -203.5t178 -73.5q256 0 256 308v1068h156v-1091q0 -98 -34.5 -176t-93 -130.5t-132.5 -79.5t-152 -27q-108 0 -201 51t-149.5 160t-56.5 269zM377 1677l367 291l108 -127l-396 -264z" />
<glyph unicode="&#xdb;" d="M205 452v1024h155v-1099q0 -134 74 -203.5t178 -73.5q256 0 256 308v1068h156v-1091q0 -98 -34.5 -176t-93 -130.5t-132.5 -79.5t-152 -27q-108 0 -201 51t-149.5 160t-56.5 269zM248 1661l368 312l367 -312l-84 -88l-283 213l-288 -213z" />
<glyph unicode="&#xdc;" d="M205 452v1024h155v-1099q0 -134 74 -203.5t178 -73.5q256 0 256 308v1068h156v-1091q0 -98 -34.5 -176t-93 -130.5t-132.5 -79.5t-152 -27q-108 0 -201 51t-149.5 160t-56.5 269zM289 1773q0 56 42.5 96t100.5 40q33 0 65.5 -19.5t53.5 -51.5q21 -33 21 -65 q0 -50 -36 -94t-104 -46q-62 0 -102 42q-41 42 -41 98zM656 1773q0 36 19 67t51.5 50t69.5 19q56 0 100 -40t44 -96q0 -48 -37 -93t-107 -47q-58 0 -99 42t-41 98z" />
<glyph unicode="&#xdd;" d="M125 1476h168l283 -667l284 667h172l-380 -852v-624h-152v616zM377 1677l367 291l108 -127l-396 -264z" />
<glyph unicode="&#xde;" d="M276 0v1476h152v-288h232q108 0 197 -50t142 -153t53 -250q0 -119 -53.5 -221t-151 -161.5t-219.5 -59.5h-200v-293h-152zM428 420h188q96 0 160 47t92.5 118.5t28.5 149.5q-1 322 -281 322h-188v-637z" />
<glyph unicode="&#xdf;" d="M280 0v1180q0 58 39 134.5t117 132.5t192 56q90 0 169 -50.5t125 -137.5t46 -187q0 -125 -46 -193q-48 -68 -134 -134q232 -97 240 -397q0 -110 -38 -209t-114 -159t-180 -60q-110 0 -212 71l79 117q75 -56 133 -56q62 0 101.5 43.5t57 111t17.5 141.5q0 130 -79.5 225.5 t-280.5 95.5v123q164 2 234 94q69 90 69 186q0 57 -25.5 115.5t-74.5 95.5t-115 37q-92 -6 -130 -68t-38 -176v-1132h-152z" />
<glyph unicode="&#xe0;" d="M205 328q0 77 27.5 166.5t106 160.5t216.5 76q71 0 229 -51v96q0 96 -48.5 153.5t-139.5 57.5q-108 1 -276 -79l-31 132q58 32 144.5 55t170.5 25q76 0 154 -41t130 -121.5t52 -193.5v-500q0 -48 12.5 -140t30.5 -132l-139 -20l-39 140q-57 -66 -117 -100t-156 -36 q-122 0 -221 81t-106 271zM332 1460l112 127l365 -291l-82 -100zM360 328q0 -88 45 -154t127 -66q66 0 123 42t129 147v252q-132 55 -212 55q-106 -3 -159 -81.5t-53 -194.5z" />
<glyph unicode="&#xe1;" d="M205 328q0 77 27.5 166.5t106 160.5t216.5 76q71 0 229 -51v96q0 96 -48.5 153.5t-139.5 57.5q-108 1 -276 -79l-31 132q58 32 144.5 55t170.5 25q76 0 154 -41t130 -121.5t52 -193.5v-500q0 -48 12.5 -140t30.5 -132l-139 -20l-39 140q-57 -66 -117 -100t-156 -36 q-122 0 -221 81t-106 271zM360 328q0 -88 45 -154t127 -66q66 0 123 42t129 147v252q-132 55 -212 55q-106 -3 -159 -81.5t-53 -194.5zM377 1296l367 291l108 -127l-396 -264z" />
<glyph unicode="&#xe2;" d="M205 328q0 77 27.5 166.5t106 160.5t216.5 76q71 0 229 -51v96q0 96 -48.5 153.5t-139.5 57.5q-108 1 -276 -79l-31 132q58 32 144.5 55t170.5 25q76 0 154 -41t130 -121.5t52 -193.5v-500q0 -48 12.5 -140t30.5 -132l-139 -20l-39 140q-57 -66 -117 -100t-156 -36 q-122 0 -221 81t-106 271zM248 1280l368 312l367 -312l-84 -88l-283 213l-288 -213zM360 328q0 -88 45 -154t127 -66q66 0 123 42t129 147v252q-132 55 -212 55q-106 -3 -159 -81.5t-53 -194.5z" />
<glyph unicode="&#xe3;" d="M205 328q0 77 27.5 166.5t106 160.5t216.5 76q71 0 229 -51v96q0 96 -48.5 153.5t-139.5 57.5q-108 1 -276 -79l-31 132q58 32 144.5 55t170.5 25q76 0 154 -41t130 -121.5t52 -193.5v-500q0 -48 12.5 -140t30.5 -132l-139 -20l-39 140q-57 -66 -117 -100t-156 -36 q-122 0 -221 81t-106 271zM209 1292q94 218 256 224q53 0 94 -21t116 -65t105 -46l3 3l1 1q66 4 113 115l123 -51q-32 -87 -92 -140q-62 -52 -144 -52q-44 0 -85.5 16t-94 47.5t-81.5 46t-58 14.5q-80 0 -129 -141zM360 328q0 -88 45 -154t127 -66q66 0 123 42t129 147v252 q-132 55 -212 55q-106 -3 -159 -81.5t-53 -194.5z" />
<glyph unicode="&#xe4;" d="M205 328q0 77 27.5 166.5t106 160.5t216.5 76q71 0 229 -51v96q0 96 -48.5 153.5t-139.5 57.5q-108 1 -276 -79l-31 132q58 32 144.5 55t170.5 25q76 0 154 -41t130 -121.5t52 -193.5v-500q0 -48 12.5 -140t30.5 -132l-139 -20l-39 140q-57 -66 -117 -100t-156 -36 q-122 0 -221 81t-106 271zM289 1392q0 56 42.5 96t100.5 40q33 0 65.5 -19.5t53.5 -51.5q21 -33 21 -65q0 -50 -36 -94t-104 -46q-62 0 -102 42q-41 42 -41 98zM360 328q0 -88 45 -154t127 -66q66 0 123 42t129 147v252q-132 55 -212 55q-106 -3 -159 -81.5t-53 -194.5z M656 1392q0 36 19 67t51.5 50t69.5 19q56 0 100 -40t44 -96q0 -48 -37 -93t-107 -47q-58 0 -99 42t-41 98z" />
<glyph unicode="&#xe5;" d="M205 328q0 77 27.5 166.5t106 160.5t216.5 76q71 0 229 -51v96q0 96 -48.5 153.5t-139.5 57.5q-108 1 -276 -79l-31 132q58 32 144.5 55t170.5 25q76 0 154 -41t130 -121.5t52 -193.5v-500q0 -48 12.5 -140t30.5 -132l-139 -20l-39 140q-57 -66 -117 -100t-156 -36 q-122 0 -221 81t-106 271zM360 328q0 -88 45 -154t127 -66q66 0 123 42t129 147v252q-132 55 -212 55q-106 -3 -159 -81.5t-53 -194.5zM424 1388q0 47 23.5 93.5t67 76t101.5 29.5q86 -3 139.5 -61t53.5 -138q0 -73 -56.5 -131t-136.5 -61q-58 0 -102 29.5t-67 74t-23 88.5z M553 1388q0 -26 18.5 -45.5t44.5 -19.5q22 0 43 18q21 17 21 47t-20 49q-22 19 -44 19q-29 0 -46 -18t-17 -50z" />
<glyph unicode="&#xe6;" d="M76 328q0 98 38.5 190t110 149.5t162.5 57.5q79 -1 145 -21v68q0 215 -96 215q-53 0 -106 -26.5t-150 -92.5l-36 140q92 52 158 81t134 31q48 0 84 -12t92 -56q78 68 193 68q144 0 237.5 -130t93.5 -431v-47h-452v-260q0 -144 121 -144q106 0 299 124l55 -128 q-211 -128 -371 -128q-108 0 -184 75q-36 -34 -92 -53q-56 -18 -108 -22q-140 0 -231 87t-97 265zM228 344q4 -4 4 -16q3 -105 52 -162q50 -58 120 -58q68 0 98 41t30 171v239q0 8 -40 22.5t-80 14.5q-72 0 -127 -71t-57 -181zM684 641h299q-19 346 -195 346 q-104 1 -104 -151v-195z" />
<glyph unicode="&#xe7;" d="M205 532q0 189 60.5 322.5t166.5 199.5t240 66q117 0 216.5 -59t186.5 -185l-135 -88q-54 104 -116 151.5t-152 47.5q-130 0 -223 -105t-97 -329q2 -2 3 -4.5t1 -3.5q2 -130 41 -229t112 -153.5t171 -54.5q144 0 284 181l103 -113q-179 -196 -383 -196l-12 -44 q94 -6 137 -51t43 -104q0 -65 -55 -116t-150 -52q-100 -1 -227 59l45 113q105 -45 155 -45q76 0 76 51q0 24 -28 34.5t-86 15.5t-74 7l47 144q-186 44 -268 196t-82 344z" />
<glyph unicode="&#xe8;" d="M180 540q0 194 63.5 325t168.5 193t229 62q114 0 209.5 -64t153 -202t57.5 -346h-729q6 -214 93 -307t216 -93q82 0 176.5 34.5t165.5 80.5l69 -135q-238 -112 -411 -112q-150 0 -254 71.5t-155.5 199.5t-51.5 293zM332 637h576q-10 166 -89 258t-186 92 q-124 0 -197.5 -83t-103.5 -267zM375 1460l112 127l365 -291l-82 -100z" />
<glyph unicode="&#xe9;" d="M180 540q0 194 63.5 325t168.5 193t229 62q114 0 209.5 -64t153 -202t57.5 -346h-729q6 -214 93 -307t216 -93q82 0 176.5 34.5t165.5 80.5l69 -135q-238 -112 -411 -112q-150 0 -254 71.5t-155.5 199.5t-51.5 293zM332 637h576q-10 166 -89 258t-186 92 q-124 0 -197.5 -83t-103.5 -267zM381 1296l367 291l108 -127l-396 -264z" />
<glyph unicode="&#xea;" d="M180 540q0 194 63.5 325t168.5 193t229 62q114 0 209.5 -64t153 -202t57.5 -346h-729q6 -214 93 -307t216 -93q82 0 176.5 34.5t165.5 80.5l69 -135q-238 -112 -411 -112q-150 0 -254 71.5t-155.5 199.5t-51.5 293zM252 1280l368 312l367 -312l-84 -88l-283 213 l-288 -213zM332 637h576q-10 166 -89 258t-186 92q-124 0 -197.5 -83t-103.5 -267z" />
<glyph unicode="&#xeb;" d="M180 540q0 194 63.5 325t168.5 193t229 62q114 0 209.5 -64t153 -202t57.5 -346h-729q6 -214 93 -307t216 -93q82 0 176.5 34.5t165.5 80.5l69 -135q-238 -112 -411 -112q-150 0 -254 71.5t-155.5 199.5t-51.5 293zM293 1392q0 56 42.5 96t100.5 40q33 0 65.5 -19.5 t53.5 -51.5q21 -33 21 -65q0 -50 -36 -94t-104 -46q-62 0 -102 42q-41 42 -41 98zM332 637h576q-10 166 -89 258t-186 92q-124 0 -197.5 -83t-103.5 -267zM660 1392q0 36 19 67t51.5 50t69.5 19q56 0 100 -40t44 -96q0 -48 -37 -93t-107 -47q-58 0 -99 42t-41 98z" />
<glyph unicode="&#xec;" d="M252 968v128h469v-1096h-158v968h-311zM336 1460l112 127l365 -291l-82 -100z" />
<glyph unicode="&#xed;" d="M252 968v128h469v-1096h-158v968h-311zM381 1296l367 291l108 -127l-396 -264z" />
<glyph unicode="&#xee;" d="M176 1276l368 312l367 -312l-84 -88l-283 213l-288 -213zM252 968v128h469v-1096h-158v968h-311z" />
<glyph unicode="&#xef;" d="M252 968v128h469v-1096h-158v968h-311zM293 1388q0 56 42.5 96t100.5 40q33 0 65.5 -19.5t53.5 -51.5q21 -33 21 -65q0 -50 -36 -94t-104 -46q-62 0 -102 42q-41 42 -41 98zM660 1388q0 36 19 67t51.5 50t69.5 19q56 0 100 -40t44 -96q0 -48 -37 -93t-107 -47 q-58 0 -99 42t-41 98z" />
<glyph unicode="&#xf0;" d="M196 549q0 138 47 270.5t144 216.5t237 84q26 0 65 -4.5t46 -7.5q-37 63 -95.5 119t-123.5 86l-112 -105l-84 64l96 92q-96 46 -220 56v100h27q66 0 153.5 -21t127.5 -39l100 96l92 -63l-88 -84q143 -86 247 -222.5t157 -302t53 -335.5q0 -125 -33.5 -251.5 t-131.5 -221.5q-100 -94 -276 -100q-122 0 -219.5 67t-153 197t-55.5 309zM348 549q5 -102 20 -190.5t75.5 -169.5t180.5 -81q110 0 172 57t86 152t30 232q0 153 -55 295.5t-229 142.5q-156 0 -218 -132.5t-62 -305.5z" />
<glyph unicode="&#xf1;" d="M180 1096h144l36 -199q72 112 170 167.5t197 55.5q81 0 143 -42t96 -120t34 -182v-776h-156v731q0 112 -24 184t-112 72q-117 0 -190.5 -82.5t-105 -201t-31.5 -228.5v-475h-153v555q0 331 -48 541zM213 1288q94 218 256 224q53 0 94 -21t116 -65t105 -46l3 3l1 1 q66 4 113 115l123 -51q-32 -87 -92 -140q-62 -52 -144 -52q-44 0 -85.5 16t-94 47.5t-81.5 46t-58 14.5q-80 0 -129 -141z" />
<glyph unicode="&#xf2;" d="M196 549q0 126 37 256t133 222.5t262 92.5q109 0 191.5 -43t137.5 -122t81.5 -184t26.5 -231q0 -142 -42.5 -271t-140.5 -211t-254 -82q-191 0 -287 115t-120.5 240.5t-24.5 217.5zM348 549q0 -221 71 -331t209 -110q115 0 199.5 93.5t84.5 347.5q0 236 -81 337t-203 101 q-164 0 -222 -133t-58 -305zM373 1452l112 127l365 -291l-82 -100z" />
<glyph unicode="&#xf3;" d="M196 549q0 126 37 256t133 222.5t262 92.5q109 0 191.5 -43t137.5 -122t81.5 -184t26.5 -231q0 -142 -42.5 -271t-140.5 -211t-254 -82q-191 0 -287 115t-120.5 240.5t-24.5 217.5zM348 549q0 -221 71 -331t209 -110q115 0 199.5 93.5t84.5 347.5q0 236 -81 337t-203 101 q-164 0 -222 -133t-58 -305zM381 1300l367 291l108 -127l-396 -264z" />
<glyph unicode="&#xf4;" d="M196 549q0 126 37 256t133 222.5t262 92.5q109 0 191.5 -43t137.5 -122t81.5 -184t26.5 -231q0 -142 -42.5 -271t-140.5 -211t-254 -82q-191 0 -287 115t-120.5 240.5t-24.5 217.5zM252 1284l368 312l367 -312l-84 -88l-283 213l-288 -213zM348 549q0 -221 71 -331 t209 -110q115 0 199.5 93.5t84.5 347.5q0 236 -81 337t-203 101q-164 0 -222 -133t-58 -305z" />
<glyph unicode="&#xf5;" d="M196 549q0 126 37 256t133 222.5t262 92.5q109 0 191.5 -43t137.5 -122t81.5 -184t26.5 -231q0 -142 -42.5 -271t-140.5 -211t-254 -82q-191 0 -287 115t-120.5 240.5t-24.5 217.5zM213 1296q94 218 256 224q53 0 94 -21t116 -65t105 -46l3 3l1 1q66 4 113 115l123 -51 q-32 -87 -92 -140q-62 -52 -144 -52q-44 0 -85.5 16t-94 47.5t-81.5 46t-58 14.5q-80 0 -129 -141zM348 549q0 -221 71 -331t209 -110q115 0 199.5 93.5t84.5 347.5q0 236 -81 337t-203 101q-164 0 -222 -133t-58 -305z" />
<glyph unicode="&#xf6;" d="M196 549q0 126 37 256t133 222.5t262 92.5q109 0 191.5 -43t137.5 -122t81.5 -184t26.5 -231q0 -142 -42.5 -271t-140.5 -211t-254 -82q-191 0 -287 115t-120.5 240.5t-24.5 217.5zM293 1396q0 56 42.5 96t100.5 40q33 0 65.5 -19.5t53.5 -51.5q21 -33 21 -65 q0 -50 -36 -94t-104 -46q-62 0 -102 42q-41 42 -41 98zM348 549q0 -221 71 -331t209 -110q115 0 199.5 93.5t84.5 347.5q0 236 -81 337t-203 101q-164 0 -222 -133t-58 -305zM660 1396q0 36 19 67t51.5 50t69.5 19q56 0 100 -40t44 -96q0 -48 -37 -93t-107 -47q-58 0 -99 42 t-41 98z" />
<glyph unicode="&#xf8;" d="M168 549q0 161 47 290.5t146 205t247 75.5q114 0 216 -68l73 120l107 -76l-80 -132q116 -142 116 -415q0 -131 -30 -237t-87.5 -181t-139.5 -115t-183 -40q-120 0 -236 75l-67 -123l-109 76l84 140q-104 130 -104 405zM320 549q0 -83 7 -140t33 -120l396 647 q-64 51 -156 51q-142 0 -211 -117t-69 -321zM436 164q66 -56 164 -56q284 0 284 447q0 151 -44 273z" />
<glyph unicode="&#xf9;" d="M232 320v776h155v-756q0 -232 133 -232q98 0 174 73t117 196t41 266v453h152v-588q0 -90 3 -160.5t13 -156t32 -191.5h-149l-31 213q-48 -74 -108 -126.5t-124 -80.5t-124 -30q-79 0 -144 39t-102 117q-38 78 -38 188zM336 1464l112 127l365 -291l-82 -100z" />
<glyph unicode="&#xfa;" d="M232 320v776h155v-756q0 -232 133 -232q98 0 174 73t117 196t41 266v453h152v-588q0 -90 3 -160.5t13 -156t32 -191.5h-149l-31 213q-48 -74 -108 -126.5t-124 -80.5t-124 -30q-79 0 -144 39t-102 117q-38 78 -38 188zM381 1300l367 291l108 -127l-396 -264z" />
<glyph unicode="&#xfb;" d="M232 320v776h155v-756q0 -232 133 -232q98 0 174 73t117 196t41 266v453h152v-588q0 -90 3 -160.5t13 -156t32 -191.5h-149l-31 213q-48 -74 -108 -126.5t-124 -80.5t-124 -30q-79 0 -144 39t-102 117q-38 78 -38 188zM252 1280l368 312l367 -312l-84 -88l-283 213 l-288 -213z" />
<glyph unicode="&#xfc;" d="M232 320v776h155v-756q0 -232 133 -232q98 0 174 73t117 196t41 266v453h152v-588q0 -90 3 -160.5t13 -156t32 -191.5h-149l-31 213q-48 -74 -108 -126.5t-124 -80.5t-124 -30q-79 0 -144 39t-102 117q-38 78 -38 188zM293 1392q0 56 42.5 96t100.5 40q33 0 65.5 -19.5 t53.5 -51.5q21 -33 21 -65q0 -50 -36 -94t-104 -46q-62 0 -102 42q-41 42 -41 98zM660 1392q0 36 19 67t51.5 50t69.5 19q56 0 100 -40t44 -96q0 -48 -37 -93t-107 -47q-58 0 -99 42t-41 98z" />
<glyph unicode="&#xfd;" d="M33 -96l127 68q64 -176 152 -177q91 1 163 185l74 164l-353 952h164l268 -744l284 744h163l-419 -1068q-144 -360 -344 -360q-94 0 -169 62t-110 174zM381 1296l367 291l108 -127l-396 -264z" />
<glyph unicode="&#xfe;" d="M232 -420v1940h155v-504q113 104 233 104q176 0 300 -129q148 -149 147 -459q0 -134 -52.5 -263t-154.5 -211t-240 -82q-57 0 -98 10t-73 25t-62 30v-461h-155zM387 200q105 -92 209 -92q114 0 185 69t101 173q30 106 30 218q0 94 -31 191t-97 162.5t-164 65.5 q-146 0 -233 -186v-601z" />
<glyph unicode="&#xff;" d="M33 -96l127 68q64 -176 152 -177q91 1 163 185l74 164l-353 952h164l268 -744l284 744h163l-419 -1068q-144 -360 -344 -360q-94 0 -169 62t-110 174zM293 1392q0 56 42.5 96t100.5 40q33 0 65.5 -19.5t53.5 -51.5q21 -33 21 -65q0 -50 -36 -94t-104 -46q-62 0 -102 42 q-41 42 -41 98zM660 1392q0 36 19 67t51.5 50t69.5 19q56 0 100 -40t44 -96q0 -48 -37 -93t-107 -47q-58 0 -99 42t-41 98z" />
<glyph unicode="&#x152;" d="M60 748q0 203 30.5 347t90 234t146.5 132t201 42q52 0 76 -7l72 -20h536v-128h-416v-520h284v-128h-284v-571h433v-129h-553q-4 0 -63 -14t-85 -14q-170 2 -268 79t-139 196t-48 210t-13 291zM215 748q0 -134 9.5 -242.5t38.5 -201t91 -148.5t162 -56q40 0 125 29v1215 q-90 32 -125 32q-115 0 -182 -84t-93 -224t-26 -320z" />
<glyph unicode="&#x153;" d="M80 549q0 222 65 349.5t150 174.5t157 47q56 0 168 -59q88 59 185 59q72 0 144.5 -42.5t117.5 -137.5q73 -138 73 -428h-452v-260q0 -67 23 -105.5t94 -38.5q50 0 134.5 35t164.5 89l55 -128q-205 -124 -371 -124q-108 0 -184 71q-46 -42 -74 -58.5t-69 -16.5 q-100 0 -173.5 51t-119 135t-67 186t-21.5 201zM236 549q0 -157 40 -269q28 -82 74 -127t94 -45q54 0 88 56v796q-33 26 -71 27q-55 0 -107 -48.5t-85 -148.5t-33 -241zM688 641h295q-7 188 -61 269q-56 81 -134 81q-100 1 -100 -155v-195z" />
<glyph unicode="&#x2c6;" d="M248 1280l368 312l367 -312l-84 -88l-283 213l-288 -213z" />
<glyph unicode="&#x2dc;" d="M209 1292q94 218 256 224q53 0 94 -21t116 -65t105 -46l3 3l1 1q66 4 113 115l123 -51q-32 -87 -92 -140q-62 -52 -144 -52q-44 0 -85.5 16t-94 47.5t-81.5 46t-58 14.5q-80 0 -129 -141z" />
<glyph unicode="&#x2000;" horiz-adv-x="986" />
<glyph unicode="&#x2001;" horiz-adv-x="1973" />
<glyph unicode="&#x2002;" horiz-adv-x="986" />
<glyph unicode="&#x2003;" horiz-adv-x="1973" />
<glyph unicode="&#x2004;" horiz-adv-x="657" />
<glyph unicode="&#x2005;" horiz-adv-x="493" />
<glyph unicode="&#x2006;" horiz-adv-x="328" />
<glyph unicode="&#x2007;" horiz-adv-x="328" />
<glyph unicode="&#x2008;" horiz-adv-x="246" />
<glyph unicode="&#x2009;" horiz-adv-x="394" />
<glyph unicode="&#x200a;" horiz-adv-x="109" />
<glyph unicode="&#x2010;" d="M348 672v129h532v-129h-532z" />
<glyph unicode="&#x2011;" d="M348 672v129h532v-129h-532z" />
<glyph unicode="&#x2012;" d="M348 672v129h532v-129h-532z" />
<glyph unicode="&#x2013;" d="M252 672v129h725v-129h-725z" />
<glyph unicode="&#x2014;" d="M0 672v129h1229v-129h-1229z" />
<glyph unicode="&#x2018;" d="M471 1188q0 110 92 197t238 123v-140q-92 -24 -133 -68q66 -6 101.5 -48.5t35.5 -92.5q-3 -68 -47.5 -113.5t-116.5 -45.5q-83 3 -126.5 61t-43.5 127z" />
<glyph unicode="&#x2019;" d="M471 1348q0 65 46.5 110t119.5 45q82 -3 125 -60t43 -126q0 -110 -92.5 -196.5t-237.5 -120.5v136q93 26 129 68q-66 6 -99.5 49t-33.5 95z" />
<glyph unicode="&#x201c;" d="M244 1184q4 110 95 196.5t233 122.5v-139q-46 -12 -69 -24t-59 -44q66 -2 99 -46t33 -95q0 -44 -20 -80.5t-57 -57.5t-87 -21q-81 3 -124 61q-44 59 -44 127zM692 1188q0 106 92 192.5t236 122.5v-139q-46 -12 -68.5 -24t-58.5 -44q64 -2 97.5 -46t33.5 -95 q0 -68 -45 -113.5t-119 -45.5q-83 3 -125.5 61.5t-42.5 130.5z" />
<glyph unicode="&#x201d;" d="M244 1344q4 70 48 114q44 45 116 45q56 -2 94 -30.5t56 -70t18 -85.5q0 -111 -91 -198t-237 -123v140q46 12 68 24t65 44q-66 4 -101 48q-36 44 -36 92zM692 1348q4 67 48 111t116 44q56 -2 94 -30.5t56 -70t18 -85.5q0 -73 -41.5 -138t-116 -111t-170.5 -68v136 q48 12 68 23t64 45q-66 6 -101 50t-35 94z" />
<glyph unicode="&#x201e;" d="M248 -88q67 7 137 64q-53 4 -95 43.5t-42 101.5q0 72 49 113.5t111 41.5q89 -2 130.5 -61t41.5 -123q0 -102 -86 -191t-246 -129v140zM692 121q0 72 49 113.5t111 41.5q60 0 99 -30t56 -72t17 -82q0 -103 -84 -191.5t-244 -128.5v140q68 0 132 64q-52 4 -94 43.5 t-42 101.5z" />
<glyph unicode="&#x2022;" d="M408 792q0 68 56 129.5t148 61.5q67 0 114 -30.5t70 -74.5q23 -46 23 -86q0 -92 -61.5 -148t-145.5 -56q-96 0 -150 63.5t-54 140.5z" />
<glyph unicode="&#x2026;" d="M56 116q2 70 52 105t97 35q56 0 103.5 -36t47.5 -104q0 -42 -34.5 -93t-116.5 -51q-54 0 -101.5 40t-47.5 104zM469 116q2 70 51 105q48 35 96 35q56 0 102 -36t46 -104q0 -43 -33 -93.5t-115 -50.5q-52 0 -99.5 40t-47.5 104zM880 116q0 71 50 107.5t98 36.5 q57 -4 102.5 -40t45.5 -104q0 -43 -33 -93.5t-115 -50.5q-55 0 -101.5 40t-46.5 104z" />
<glyph unicode="&#x202f;" horiz-adv-x="394" />
<glyph unicode="&#x2039;" d="M244 731l561 529l94 -96l-459 -433l459 -434l-94 -101z" />
<glyph unicode="&#x203a;" d="M244 727l561 533l94 -101l-459 -428l459 -434l-94 -101z" />
<glyph unicode="&#x205f;" horiz-adv-x="493" />
<glyph unicode="&#x2122;" d="M12 1411v109h480v-109h-172v-459h-136v459h-172zM563 952v568h197l133 -336l127 336h196v-568h-120v459h-4l-164 -459h-72l-168 457v2v-459h-125z" />
<glyph unicode="&#x25fc;" horiz-adv-x="1095" d="M0 0v1095h1095v-1095h-1095z" />
</font>
</defs>
</svg>
