<?xml version="1.0" encoding="utf-8"?>
<!-- Generator: Adobe Illustrator 16.0.0, SVG Export Plug-In . SVG Version: 6.00 Build 0)  -->
<!DOCTYPE svg PUBLIC "-//W3C//DTD SVG 1.1//EN" "http://www.w3.org/Graphics/SVG/1.1/DTD/svg11.dtd">
<svg version="1.1" class="line-drawing" id="bluelogo" xmlns="http://www.w3.org/2000/svg" xmlns:xlink="http://www.w3.org/1999/xlink" x="0px" y="0px"
	 viewBox="0 0 898.611 337.5" enable-background="new 0 0 898.611 337.5" xml:space="preserve">
<g>
	<path d="M487.695,227.872
		c7.16,4.773,11.832,12.14,14.022,22.078c2.182,9.949,1.287,19.896-2.685,29.836c-3.981,9.948-11.338,18.6-22.078,25.957
		c-10.741,7.365-25.659,11.039-44.754,11.039c-20.688,0-36.203-4.672-46.543-14.023c-10.349-9.342-17.705-21.574-22.078-36.697
		c-11.542,15.916-25.863,29.443-42.963,40.576c-17.108,11.133-37.797,16.708-62.058,16.708c-17.509,0-31.131-4.476-40.875-13.427
		c-9.752-8.949-17.006-20.781-21.78-35.504c-11.542,16.709-25.761,30.638-42.665,41.77c-16.913,11.133-37.499,16.709-61.759,16.709
		c-16.316,0-29.239-4.084-38.786-12.233c-9.547-8.148-16.811-18.991-21.78-32.521c-4.979-13.52-8.158-28.838-9.547-45.946
		c-1.399-17.1-1.996-34.702-1.791-52.809c0.196-18.097,0.792-35.803,1.791-53.107c0.988-17.305,1.389-32.819,1.193-46.543
		c-0.205-13.724-1.492-24.856-3.879-33.416c-2.387-8.55-6.769-13.025-13.127-13.426c7.552-6.76,16.009-13.025,25.36-18.796
		c9.342-5.762,18.992-9.939,28.94-12.531c9.939-2.583,19.785-2.881,29.537-0.895c9.743,1.995,19.188,7.16,28.344,15.514
		c5.967,5.576,9.445,16.214,10.442,31.924c0.988,15.72,0.988,33.621,0,53.704c-0.998,20.092-2.592,40.874-4.774,62.356
		c-2.191,21.48-3.384,40.977-3.58,58.477c-0.205,17.51,1.091,31.328,3.878,41.472c2.779,10.144,8.354,14.022,16.708,11.636
		s16.605-8.056,24.763-17.006c8.149-8.951,15.813-19.589,22.974-31.924c-1.595-13.52-2.294-27.747-2.089-42.665
		c0.196-14.917,0.597-29.536,1.193-43.858c0.597-14.32,1.194-27.942,1.791-40.874c0.597-12.922,0.597-24.26,0-34.012
		c-0.597-9.743-2.191-17.603-4.774-23.57c-2.592-5.967-6.471-9.146-11.636-9.547c7.552-6.359,16.009-12.428,25.36-18.2
		c9.342-5.762,18.992-9.846,28.94-12.232c9.939-2.387,19.785-2.778,29.537-1.193c9.743,1.594,19.188,6.563,28.344,14.917
		c5.967,5.576,9.445,15.916,10.442,31.029c0.988,15.123,0.988,32.427,0,51.914c-0.998,19.496-2.592,39.681-4.774,60.566
		c-2.191,20.885-3.384,39.783-3.58,56.688c-0.205,16.912,1.091,30.338,3.878,40.277c2.779,9.948,8.354,13.725,16.708,11.338
		c9.146-2.387,17.901-8.354,26.255-17.901c8.354-9.548,16.307-20.885,23.868-34.013c-0.802-18.293-0.205-37.191,1.79-56.688
		c1.986-19.486,3.478-37.686,4.475-54.598c0.988-16.904,0.298-31.327-2.088-43.261c-2.387-11.935-7.962-19.486-16.708-22.675
		c4.773-8.745,11.934-15.906,21.481-21.481c9.547-5.566,19.99-8.951,31.327-10.144c11.338-1.193,22.675,0.103,34.013,3.879
		c11.338,3.785,21.276,10.741,29.835,20.885c8.55,10.144,14.713,23.672,18.498,40.576c3.776,16.913,3.674,37.891-0.298,62.953
		c-3.981,25.061-6.173,44.752-6.564,59.074c-0.4,14.321,0.094,24.969,1.492,31.924c1.39,6.965,3.375,10.946,5.967,11.935
		c2.583,0.998,4.774,0.4,6.564-1.791c1.79-2.182,2.983-5.164,3.58-8.95C491.574,233.344,490.474,230.258,487.695,227.872z"/>
	<path d="M759.787,202.213
		c4.372,3.188,8.447,8.261,12.232,15.217c3.775,6.964,6.061,14.619,6.862,22.973c0.792,8.354-0.299,17.108-3.282,26.255
		c-2.983,9.155-9.053,17.407-18.199,24.764c-9.156,7.365-21.78,13.426-37.892,18.199c-16.11,4.774-36.902,7.161-62.355,7.161
		c-33.416,0-60.771-7.459-82.048-22.377c-21.285-14.918-36.902-33.611-46.841-56.09c-9.948-22.471-14.116-46.842-12.531-73.098
		c1.585-26.255,8.447-50.617,20.587-73.096c12.13-22.47,29.536-41.173,52.212-56.091c22.675-14.917,50.318-22.376,82.942-22.376
		c22.273,0,41.266,4.28,56.985,12.829c15.71,8.559,27.243,19.197,34.608,31.924c7.356,12.736,10.536,26.554,9.548,41.471
		c-0.998,14.918-7.067,28.642-18.2,41.173c-11.142,12.531-27.448,22.973-48.93,31.327c-21.481,8.354-48.93,12.141-82.346,11.338
		c4.773,12.736,12.232,23.375,22.377,31.924c10.144,8.559,22.768,12.83,37.891,12.83c13.128,0,24.465-1.39,34.013-4.178
		c9.547-2.778,17.5-5.762,23.868-8.951C748.449,211.37,754.612,206.987,759.787,202.213z M678.635,87.646
		c-11.935,0-22.078,2.293-30.433,6.862c-8.354,4.578-15.02,10.545-19.989,17.901c-4.979,7.365-8.261,15.617-9.846,24.763
		c-1.595,9.156-1.595,18.498,0,28.045c20.68-1.986,37.191-5.165,49.526-9.547c12.326-4.373,21.379-9.445,27.15-15.216
		c5.762-5.762,8.951-11.729,9.548-17.901c0.597-6.163-0.401-11.832-2.984-17.006c-2.592-5.166-6.069-9.445-10.442-12.829
		C686.783,89.342,682.606,87.646,678.635,87.646z"/>
	<path d="M892.254,268.448
		c0,12.736-4.578,23.673-13.725,32.819c-9.155,9.155-20.092,13.724-32.818,13.724c-12.736,0-23.673-4.568-32.819-13.724
		c-9.155-9.146-13.725-20.083-13.725-32.819c0-12.727,4.569-23.663,13.725-32.818c9.146-9.146,20.083-13.725,32.819-13.725
		c12.727,0,23.663,4.578,32.818,13.725C887.676,244.785,892.254,255.721,892.254,268.448z"/>
</g>
</svg>
