<svg width="774" height="228" viewBox="0 0 774 228" fill="none" xmlns="http://www.w3.org/2000/svg">
<path d="M1.47 72.48L35 136.31C37.29 140.66 42.93 144.19 47.59 144.18L115.94 144.03C120.61 144.03 122.54 140.49 120.25 136.13L86.72 72.3C84.43 67.95 78.79 64.43 74.13 64.44L5.77 64.58H5.46C1.03 64.75 -0.77 68.22 1.46 72.48H1.47V72.48ZM131.32 146.86L151.61 184.72C152.385 186.053 153.479 187.173 154.793 187.979C156.107 188.785 157.601 189.253 159.14 189.34L199.87 188.92C202.65 188.92 203.77 186.77 202.39 184.18L182.11 146.32C181.331 144.988 180.235 143.869 178.92 143.063C177.605 142.257 176.11 141.789 174.57 141.7L133.84 142.13H133.7C131.03 142.23 129.96 144.31 131.32 146.86" fill="#7AD143"/>
<path d="M131.55 3.08999L90.83 55.36C88.05 58.93 87.68 65.36 90 69.67L124.05 133.21C126.37 137.54 130.51 138.21 133.29 134.61L174 82.33C176.78 78.76 177.15 72.33 174.83 68.02L140.79 4.46999C139.45 1.96999 137.49 0.699987 135.55 0.769987C134.754 0.839797 133.983 1.08381 133.292 1.48473C132.601 1.88565 132.006 2.43368 131.55 3.08999V3.08999ZM122 147.49L97.73 178.64C96.9044 179.891 96.4243 181.338 96.3383 182.834C96.2522 184.33 96.5633 185.823 97.24 187.16L117.54 225C118.92 227.59 121.39 228 123.05 225.83L147.31 194.69C148.135 193.437 148.614 191.988 148.7 190.491C148.786 188.993 148.476 187.499 147.8 186.16L127.52 148.3C127.26 147.674 126.828 147.134 126.274 146.742C125.721 146.351 125.067 146.125 124.39 146.09C123.916 146.129 123.456 146.272 123.044 146.511C122.632 146.75 122.279 147.077 122.01 147.47L122 147.49V147.49ZM567.26 56.24H580.86V158.6H567.26V56.24V56.24Z" fill="#00C2FF"/>
<path d="M323.65 88.58C319.012 88.58 314.42 89.4936 310.135 91.2688C305.85 93.0439 301.958 95.6457 298.679 98.9256C295.4 102.205 292.799 106.099 291.025 110.384C289.251 114.67 288.339 119.262 288.34 123.9V189.1H301.94V123.9H302C301.998 118.752 303.813 113.768 307.127 109.828C310.44 105.887 315.039 103.244 320.111 102.363C325.184 101.482 330.404 102.42 334.852 105.012C339.3 107.605 342.69 111.684 344.424 116.532C346.158 121.38 346.124 126.684 344.329 131.509C342.534 136.334 339.092 140.37 334.612 142.906C330.131 145.442 324.899 146.314 319.839 145.369C314.778 144.424 310.213 141.722 306.95 137.74V155C311.68 157.532 316.924 158.953 322.285 159.155C327.646 159.357 332.983 158.334 337.889 156.164C342.796 153.994 347.143 150.735 350.601 146.633C354.059 142.531 356.537 137.695 357.846 132.492C359.155 127.29 359.26 121.857 358.155 116.607C357.05 111.357 354.762 106.429 351.467 102.195C348.171 97.9621 343.954 94.5357 339.136 92.1764C334.318 89.8172 329.025 88.5872 323.66 88.58H323.65ZM400.29 88.58C395.654 88.5813 391.063 89.496 386.78 91.2718C382.497 93.0477 378.606 95.6498 375.329 98.9297C372.051 102.21 369.453 106.103 367.68 110.387C365.908 114.672 364.997 119.263 365 123.9V189.1H378.59V123.9H378.66C378.658 118.752 380.473 113.768 383.787 109.828C387.1 105.887 391.699 103.244 396.771 102.363C401.844 101.482 407.064 102.42 411.512 105.012C415.96 107.605 419.35 111.684 421.084 116.532C422.817 121.38 422.784 126.684 420.989 131.509C419.194 136.334 415.752 140.37 411.272 142.906C406.791 145.442 401.559 146.314 396.499 145.369C391.438 144.424 386.873 141.722 383.61 137.74V155C388.341 157.54 393.588 158.967 398.954 159.174C404.319 159.38 409.661 158.361 414.573 156.192C419.485 154.024 423.837 150.764 427.3 146.66C430.762 142.556 433.243 137.717 434.554 132.51C435.865 127.303 435.971 121.866 434.864 116.612C433.757 111.358 431.467 106.425 428.167 102.189C424.867 97.9538 420.645 94.5265 415.821 92.1682C410.997 89.8099 405.699 88.5827 400.33 88.58H400.29V88.58ZM244.7 56.24C235.334 56.2426 226.353 59.965 219.731 66.5885C213.11 73.212 209.39 82.1943 209.39 91.56V158.61H223V91.56C223 85.8074 225.285 80.2905 229.353 76.2228C233.421 72.1552 238.937 69.87 244.69 69.87C250.443 69.87 255.96 72.1552 260.027 76.2228C264.095 80.2905 266.38 85.8074 266.38 91.56V99.23H231.48V112.83H266.42V158.61H280V91.56C280 82.196 276.282 73.2153 269.662 66.592C263.043 59.9688 254.064 56.2453 244.7 56.24V56.24Z" fill="#7AD143"/>
<path d="M521.85 91.56C521.85 88.709 522.412 85.8859 523.503 83.2519C524.594 80.618 526.193 78.2247 528.209 76.2087C530.225 74.1927 532.618 72.5936 535.252 71.5026C537.886 70.4115 540.709 69.85 543.56 69.85H560.69V56.24H543.56C534.194 56.2426 525.213 59.965 518.591 66.5885C511.97 73.212 508.25 82.1943 508.25 91.56V158.61H521.85V114.22H559.43V100.62H521.85V91.56V91.56ZM637.78 89V131.74C637.676 135.868 635.963 139.792 633.007 142.675C630.051 145.558 626.084 147.172 621.955 147.172C617.826 147.172 613.86 145.558 610.903 142.675C607.947 139.792 606.234 135.868 606.13 131.74V89H592.53V131.79C592.612 138.347 594.882 144.688 598.98 149.806C603.079 154.925 608.77 158.527 615.15 160.04V189.04H628.74V160.04C635.118 158.523 640.808 154.921 644.906 149.803C649.003 144.685 651.275 138.346 651.36 131.79V89H637.78ZM714.23 129.25C713.061 133.834 710.425 137.91 706.723 140.855C703.022 143.801 698.459 145.456 693.729 145.566C689 145.677 684.364 144.238 680.529 141.468C676.694 138.698 673.87 134.75 672.488 130.226C671.106 125.702 671.242 120.85 672.875 116.41C674.507 111.97 677.547 108.186 681.531 105.635C685.515 103.084 690.224 101.906 694.94 102.28C699.655 102.655 704.119 104.562 707.65 107.71L677.11 125.34L683.91 137.12L726.62 112.46C723.835 104.294 718.155 97.4301 710.653 93.1664C703.152 88.9028 694.349 87.5342 685.907 89.3194C677.465 91.1045 669.969 95.9196 664.836 102.855C659.703 109.79 657.288 118.366 658.047 126.961C658.806 135.556 662.686 143.575 668.956 149.504C675.225 155.432 683.448 158.859 692.072 159.137C700.696 159.415 709.123 156.525 715.761 151.013C722.399 145.501 726.789 137.748 728.1 129.22L714.23 129.25ZM770.74 88.58C762.859 88.5636 755.202 91.1981 749 96.06V88.91H735.4V158.61H749V123.9C749 118.144 751.286 112.623 755.355 108.552C759.424 104.481 764.944 102.193 770.7 102.19H773.45V88.59L770.74 88.58Z" fill="#00C2FF"/>
<path d="M487.21 126.28L453.38 110.5C452.701 110.168 452.155 109.615 451.831 108.932C451.507 108.249 451.424 107.477 451.596 106.741C451.767 106.005 452.184 105.349 452.777 104.88C453.37 104.411 454.104 104.157 454.86 104.16H493.45V90.56H454.87C451.018 90.5581 447.28 91.8684 444.272 94.2752C441.264 96.682 439.165 100.042 438.322 103.8C437.479 107.559 437.942 111.493 439.634 114.954C441.325 118.415 444.146 121.196 447.63 122.84L481.46 138.61C482.174 138.921 482.757 139.471 483.108 140.166C483.459 140.861 483.556 141.656 483.383 142.415C483.21 143.174 482.777 143.849 482.159 144.323C481.542 144.796 480.778 145.04 480 145.01H440.5V158.61H480C483.834 158.561 487.538 157.218 490.513 154.799C493.487 152.38 495.558 149.027 496.388 145.284C497.218 141.541 496.759 137.628 495.086 134.178C493.413 130.729 490.623 127.945 487.17 126.28H487.21V126.28Z" fill="#7AD143"/>
</svg>
