<svg width="600" height="247" viewBox="0 0 600 247" fill="none" xmlns="http://www.w3.org/2000/svg">
<path d="M229.3 128.3V158.6C233.6 165.2 241.1 169.6 250.7 169.6C265.2 169.6 275.3 158.8 275.3 143.7C275.3 128.9 264.7 118.1 250.4 118.1C241.1 118 233.8 122 229.3 128.3ZM254.3 185.2C244.3 185.2 235.7 182.2 229.1 176.2V183.5H210.4V62.0996H229.3V112.6C236 105.4 245.1 102 255.7 102C276.9 102 294.2 119 294.2 143.5C294.3 167.6 276.3 185.2 254.3 185.2ZM307 62.0996H325.9V183.5H307V62.0996ZM357.9 134H397.4C395.1 124.4 388.3 117.4 377.8 117.4C368.2 117.3 360.5 123.3 357.9 134ZM383.1 185.1C357 185.1 338.4 168.3 338.4 143.6C338.4 119 357 102 377.8 102C402.2 102 416.2 119.5 416.2 143.9V147.9H357.3C359.1 161 368.4 169.5 384.5 169.5C394.9 169.5 406.9 165.3 414 159.7V176C407.2 181.2 395.4 185.1 383.1 185.1ZM448.6 127.6V183.5H429.7V103.7H448.3V112.5C453.9 106 462.7 101.9 473.4 101.9C493 101.9 503.9 115 503.9 134.1V183.5H485V136.3C485 126 478.8 118.5 468.2 118.5C459.3 118.5 452.8 122.2 448.6 127.6ZM560 169.4C569.3 169.4 576.6 165.4 581.1 159.1V128.8C576.8 122.2 569.3 117.8 559.7 117.8C545.2 117.8 535.1 128.6 535.1 143.6C535.1 158.6 545.7 169.4 560 169.4ZM581.4 174.4C574.9 181.5 565.8 185.2 555.3 185.2C533.7 185.2 516.1 168.4 516.1 144C516.1 119.9 534 102.1 556.1 102.1C565.9 102.1 574.5 104.9 581 110.9V62.1996H600V183.6H581.4V174.4ZM94.9 96.6996L103.2 90.4996C120.8 77.5996 120.1 61.8996 117 52.5996C113.6 41.9996 103.8 30.5996 86.8 30.5996H0V0.599609H86.8C114.1 0.599609 137.1 17.3996 145.5 43.2996C153.9 69.2996 145.1 96.3996 123.1 112.4L119.8 114.8L94.9 96.6996ZM107.7 123.6L123 134.8C145.1 150.8 153.9 177.9 145.5 203.9C137.1 229.9 114 246.6 86.8 246.6H0V216.6H86.7C103.7 216.6 113.5 205.2 116.9 194.6C120.4 184 119.1 169.1 105.4 159.1L82.2 142.2L56.7 123.7L30 104.3V143.1L44.4 132.6L69.9 151.1L23.8 184.6C19.3 187.9 13.2 188.4 8.2 185.8C3.2 183.2 0 178.1 0 172.4V74.6996C0 69.0996 3.2 63.8996 8.2 61.3996C13.2 58.7996 19.2 59.2996 23.8 62.5996L82.2 105L107.7 123.6Z" fill="#0F216B"/>
</svg>
