<svg width="178" height="39" viewBox="0 0 178 39" fill="none" xmlns="http://www.w3.org/2000/svg">
<g clip-path="url(#clip0_5754_281098)">
<path d="M63.943 9.194V26.527H61.162V9.194H63.943ZM114.047 19.363V26.526H111.266V19.826C111.279 19.4538 111.218 19.0826 111.086 18.7343C110.954 18.3861 110.754 18.0677 110.497 17.798C110.24 17.5283 109.932 17.3127 109.59 17.1638C109.249 17.0149 108.881 16.9358 108.509 16.9312C108.136 16.9265 107.767 16.9964 107.422 17.1366C107.077 17.2769 106.763 17.4847 106.5 17.7479C106.236 18.0111 106.028 18.3243 105.887 18.6692C105.746 19.014 105.676 19.3836 105.68 19.756V26.526H102.899V19.826C102.926 19.4473 102.873 19.0672 102.743 18.7104C102.613 18.3537 102.409 18.0284 102.145 17.7558C101.88 17.4832 101.562 17.2693 101.209 17.1282C100.857 16.9872 100.478 16.922 100.099 16.937C99.7233 16.9392 99.3519 17.0171 99.0069 17.1659C98.6619 17.3147 98.3503 17.5314 98.0908 17.8031C97.8313 18.0748 97.6292 18.396 97.4964 18.7475C97.3636 19.099 97.303 19.4736 97.318 19.849V26.526H94.537V14.602H97.318V15.988C97.7553 15.4761 98.2993 15.066 98.9119 14.7865C99.5244 14.507 100.191 14.3648 100.864 14.37C101.645 14.351 102.419 14.527 103.115 14.8822C103.811 15.2373 104.407 15.7604 104.85 16.404C105.337 15.7611 105.968 15.242 106.693 14.8886C107.418 14.5352 108.216 14.3576 109.022 14.37C109.686 14.3426 110.349 14.4528 110.969 14.6936C111.589 14.9344 112.153 15.3006 112.625 15.7694C113.096 16.2382 113.466 16.7993 113.711 17.4177C113.956 18.0361 114.07 18.6983 114.047 19.363V19.363ZM123.175 14.371V17.306C120.487 17.121 119.142 18.506 119.142 20.334V26.526H116.361V14.602H119.142V16.289C119.626 15.6856 120.24 15.1996 120.939 14.8674C121.637 14.5352 122.402 14.3655 123.175 14.371V14.371ZM135.782 21.558H126.372C126.551 22.36 127.007 23.0732 127.66 23.5722C128.313 24.0711 129.121 24.3239 129.942 24.286C130.622 24.3125 131.297 24.1464 131.887 23.807C132.477 23.4675 132.96 22.9684 133.279 22.367L135.597 23.338C135.097 24.3725 134.312 25.2433 133.336 25.8488C132.359 26.4544 131.23 26.7697 130.081 26.758C129.247 26.7961 128.414 26.6637 127.633 26.3688C126.851 26.074 126.138 25.6229 125.538 25.0431C124.937 24.4634 124.46 23.7671 124.138 22.997C123.815 22.2268 123.653 21.399 123.661 20.564C123.644 19.7464 123.792 18.9338 124.097 18.1749C124.402 17.4161 124.857 16.7267 125.435 16.1481C126.013 15.5696 126.702 15.1139 127.46 14.8083C128.219 14.5027 129.031 14.3536 129.849 14.37C130.744 14.3573 131.63 14.5457 132.442 14.9213C133.254 15.2969 133.971 15.8502 134.541 16.5402C135.11 17.2302 135.517 18.0393 135.732 18.9078C135.947 19.7763 135.964 20.682 135.782 21.558V21.558ZM126.396 19.458H133.279C133.09 18.7104 132.656 18.0474 132.048 17.5742C131.439 17.101 130.689 16.8447 129.918 16.846C129.123 16.8224 128.343 17.067 127.705 17.5405C127.066 18.0139 126.605 18.6887 126.396 19.456V19.458ZM149.872 14.602V26.526H147.091V24.926C146.603 25.5123 145.989 25.9809 145.295 26.2971C144.6 26.6132 143.844 26.7687 143.081 26.752C139.744 26.752 137.264 24.21 137.264 20.558C137.264 16.906 139.744 14.364 143.081 14.364C143.844 14.3474 144.6 14.5028 145.294 14.8188C145.989 15.1347 146.603 15.6031 147.091 16.189V14.595L149.872 14.602ZM147.091 20.564C147.109 20.0893 147.032 19.6157 146.863 19.1716C146.694 18.7275 146.438 18.3219 146.109 17.9789C145.781 17.636 145.386 17.3627 144.95 17.1755C144.513 16.9882 144.043 16.8908 143.568 16.889C142.63 16.9426 141.747 17.3532 141.102 18.0365C140.457 18.7198 140.097 19.6241 140.097 20.564C140.097 21.5039 140.457 22.4082 141.102 23.0915C141.747 23.7748 142.63 24.1854 143.568 24.239C144.043 24.2371 144.513 24.1396 144.949 23.9523C145.386 23.7651 145.78 23.4919 146.109 23.1491C146.437 22.8063 146.694 22.4009 146.863 21.9569C147.031 21.513 147.109 21.0396 147.091 20.565V20.564ZM151.817 20.565C151.799 19.7492 151.946 18.9382 152.25 18.1806C152.553 17.423 153.006 16.7344 153.581 16.156C154.157 15.5776 154.843 15.1214 155.6 14.8147C156.356 14.508 157.166 14.3571 157.982 14.371C159.224 14.3419 160.445 14.6911 161.484 15.3723C162.523 16.0535 163.33 17.0344 163.799 18.185L161.226 19.063C160.955 18.4426 160.512 17.9128 159.949 17.5361C159.387 17.1594 158.728 16.9515 158.051 16.937C157.581 16.9329 157.116 17.0253 156.684 17.2085C156.251 17.3917 155.861 17.6617 155.537 18.0018C155.213 18.3419 154.963 18.7449 154.801 19.1858C154.639 19.6267 154.57 20.0962 154.597 20.565C154.559 21.392 154.819 22.2051 155.328 22.8578C155.837 23.5104 156.563 23.9596 157.374 24.1242C158.185 24.2888 159.029 24.1581 159.752 23.7555C160.476 23.353 161.031 22.7052 161.319 21.929L163.819 22.899C163.358 24.0588 162.554 25.05 161.514 25.7399C160.474 26.4298 159.249 26.7854 158.001 26.759C157.183 26.7786 156.369 26.6318 155.609 26.3273C154.849 26.0229 154.159 25.5672 153.581 24.9879C153.003 24.4087 152.548 23.7179 152.245 22.9576C151.942 22.1973 151.796 21.3833 151.817 20.565V20.565ZM177.101 19.617V26.527H174.32V20.056C174.345 19.645 174.283 19.2333 174.139 18.8476C173.994 18.4619 173.771 18.1108 173.483 17.8168C173.194 17.5228 172.847 17.2925 172.465 17.1408C172.082 16.9891 171.671 16.9193 171.26 16.936C170.846 16.9282 170.435 17.0054 170.052 17.1628C169.669 17.3202 169.322 17.5546 169.033 17.8513C168.744 18.1481 168.519 18.5009 168.372 18.888C168.225 19.2751 168.159 19.6883 168.178 20.102V26.527H165.396V9.194H168.175V16.151C168.858 15.3505 169.772 14.7822 170.792 14.5249C171.812 14.2676 172.887 14.3341 173.868 14.7151C174.849 15.0961 175.686 15.7728 176.265 16.6513C176.844 17.5298 177.135 18.5666 177.098 19.618L177.101 19.617ZM49.251 15.45V9.195H46.474V26.528H49.255V25.676C50.2724 26.3168 51.4527 26.6514 52.655 26.64C53.4561 26.6428 54.2506 26.4963 54.998 26.208C56.0843 25.7154 57.0055 24.9199 57.6511 23.9169C58.2966 22.9139 58.6392 21.746 58.6376 20.5532C58.636 19.3604 58.2904 18.1933 57.6421 17.192C56.9939 16.1908 56.0706 15.3977 54.983 14.908C54.2399 14.6237 53.4506 14.4792 52.655 14.482C51.4527 14.4705 50.2724 14.8052 49.255 15.446L49.251 15.45ZM52.336 24.19C51.7031 24.1986 51.0801 24.0317 50.5362 23.7078C49.9924 23.3839 49.5489 22.9156 49.255 22.355C48.9644 21.8017 48.8125 21.186 48.8125 20.561C48.8125 19.936 48.9644 19.3203 49.255 18.767C49.549 18.2065 49.9926 17.7385 50.5364 17.4148C51.0803 17.091 51.7032 16.9243 52.336 16.933C53.2803 16.9602 54.1768 17.3543 54.8351 18.0319C55.4934 18.7094 55.8617 19.6168 55.8617 20.5615C55.8617 21.5062 55.4934 22.4136 54.8351 23.0911C54.1768 23.7687 53.2803 24.1628 52.336 24.19ZM66.007 20.564C65.9862 19.3137 66.3379 18.0855 67.0173 17.0358C67.6968 15.986 68.6733 15.1622 69.8224 14.6692C70.9716 14.1763 72.2415 14.0364 73.4704 14.2675C74.6994 14.4986 75.8317 15.0902 76.7233 15.967C77.6149 16.8437 78.2254 17.9659 78.4772 19.1908C78.7289 20.4157 78.6104 21.6877 78.1368 22.845C77.6632 24.0023 76.8559 24.9925 75.8178 25.6895C74.7796 26.3865 73.5575 26.7588 72.307 26.759C71.4816 26.7846 70.6596 26.6427 69.8906 26.3418C69.1216 26.0409 68.4215 25.5872 67.8327 25.0082C67.2439 24.4292 66.7786 23.7369 66.4648 22.9731C66.151 22.2092 65.9953 21.3897 66.007 20.564ZM72.307 24.194C73.0294 24.2153 73.7416 24.0206 74.3527 23.6347C74.9637 23.2488 75.4457 22.6894 75.737 22.028C76.0283 21.3667 76.1156 20.6334 75.9877 19.9221C75.8599 19.2109 75.5226 18.5539 75.0193 18.0354C74.5159 17.5169 73.8692 17.1603 73.162 17.0115C72.4549 16.8626 71.7193 16.9281 71.0496 17.1997C70.3799 17.4712 69.8065 17.9364 69.4027 18.5358C68.9989 19.1351 68.7831 19.8413 68.783 20.564C68.7694 21.0355 68.8504 21.5049 69.0213 21.9445C69.1923 22.3841 69.4496 22.785 69.7782 23.1234C70.1067 23.4619 70.4998 23.731 70.9341 23.9149C71.3685 24.0987 71.8353 24.1937 72.307 24.194V24.194ZM80.002 20.564C79.9802 19.3123 80.3314 18.0825 81.011 17.0311C81.6906 15.9798 82.6679 15.1546 83.8181 14.6606C84.9684 14.1666 86.2397 14.0263 87.4701 14.2574C88.7004 14.4885 89.8341 15.0807 90.7267 15.9584C91.6193 16.8361 92.2305 17.9597 92.4822 19.186C92.734 20.4123 92.615 21.6858 92.1404 22.8442C91.6658 24.0026 90.8572 24.9935 89.8174 25.6907C88.7776 26.3879 87.5539 26.7598 86.302 26.759C85.4766 26.7846 84.6546 26.6427 83.8856 26.3418C83.1166 26.0409 82.4165 25.5872 81.8277 25.0082C81.2389 24.4292 80.7736 23.7369 80.4598 22.9731C80.146 22.2092 79.9903 21.3897 80.002 20.564V20.564ZM86.302 24.194C87.0244 24.2155 87.7368 24.0209 88.348 23.6352C88.9591 23.2495 89.4413 22.6901 89.7327 22.0288C90.0241 21.3674 90.1116 20.6341 89.9838 19.9228C89.8561 19.2115 89.519 18.5544 89.0156 18.0358C88.5123 17.5172 87.8656 17.1605 87.1584 17.0116C86.4512 16.8626 85.7157 16.9281 85.0459 17.1996C84.3761 17.4711 83.8026 17.9363 83.3988 18.5357C82.9949 19.135 82.7791 19.8413 82.779 20.564C82.7654 21.0358 82.8465 21.5056 83.0177 21.9455C83.1889 22.3853 83.4466 22.7864 83.7756 23.1249C84.1045 23.4634 84.4981 23.7324 84.9329 23.916C85.3677 24.0997 85.835 24.1942 86.307 24.194H86.302Z" fill="#002840"/>
<path d="M19.179 38.25C29.7713 38.25 38.358 29.6874 38.358 19.125C38.358 8.56255 29.7713 0 19.179 0C8.58673 0 0 8.56255 0 19.125C0 29.6874 8.58673 38.25 19.179 38.25Z" fill="#FFD500"/>
<path d="M23.067 15.154L22.127 17.537C22.6301 17.8577 23.0427 18.3017 23.3259 18.8267C23.6091 19.3518 23.7534 19.9405 23.745 20.537C23.7261 21.1998 23.5141 21.8426 23.1351 22.3867C22.756 22.9307 22.2265 23.3523 21.6113 23.5997C20.9961 23.8471 20.3221 23.9095 19.672 23.7794C19.0218 23.6493 18.4238 23.3322 17.9512 22.8671C17.4787 22.402 17.1521 21.809 17.0117 21.161C16.8713 20.513 16.923 19.8381 17.1606 19.2191C17.3982 18.6001 17.8114 18.0639 18.3493 17.6763C18.8873 17.2886 19.5267 17.0665 20.189 17.037L21.072 14.594C20.2332 14.4586 19.375 14.5066 18.5565 14.7347C17.7381 14.9628 16.9787 15.3655 16.3308 15.9153C15.6829 16.465 15.1619 17.1486 14.8035 17.919C14.4452 18.6894 14.2581 19.5283 14.255 20.378H14.248V26.526H16.936V25.562C17.9534 26.2029 19.1337 26.5375 20.336 26.526C21.1334 26.5494 21.9272 26.4113 22.6698 26.1201C23.4123 25.8289 24.0884 25.3905 24.6572 24.8314C25.2261 24.2722 25.676 23.6038 25.98 22.8664C26.284 22.1289 26.4357 21.3376 26.426 20.54C26.4429 19.4144 26.135 18.3078 25.5393 17.3526C24.9436 16.3974 24.0853 15.6341 23.067 15.154V15.154ZM14.248 14.861C15.0137 14.0834 15.9259 13.4655 16.932 13.043V9.194H14.248V14.861Z" fill="#002840"/>
</g>
<defs>
<clipPath id="clip0_5754_281098">
<rect width="177.101" height="38.25" fill="white"/>
</clipPath>
</defs>
</svg>
