<svg width="1000" height="376" viewBox="0 0 1000 376" fill="none" xmlns="http://www.w3.org/2000/svg">
<path d="M97.6 179.4C73 179.4 54.4 187.1 41.9 204.8V88.8C41.9 87.5 40.8 86.4 39.5 86.4H17.4C16.1 86.4 15 87.5 15 88.8V357.5C15 358.8 16.1 359.9 17.4 359.9H39.5C40.8 359.9 41.9 358.8 41.9 357.5V337C48 345.6 56.3 352.4 66 356.7C76 361.1 86.8 363.2 97.7 363.1C120.8 363.1 138.9 355 151.9 338.9C164.9 322.8 171.4 300.1 171.4 270.9C171.4 241.7 164.9 219.2 152 203.3C139.1 187.3 120.9 179.4 97.6 179.4V179.4ZM133.2 319C125.2 330.2 113.1 335.8 96.9 335.8C78.8 335.8 65.7 330.8 57.5 320.8C49.3 310.8 45.2 294.2 45.2 270.9C45.2 247.6 49.2 231.1 57.2 221.3C65.2 211.5 78.2 206.6 96.2 206.6C112.9 206.6 125.2 211.9 133.2 222.5C141.2 233.1 145.2 249.1 145.2 270.7C145.2 291.7 141.2 307.8 133.2 319V319ZM581 179.1C548.8 179.1 529.4 194.1 524 204.3V184.8C524 183.5 522.9 182.4 521.6 182.4H499.4C498.1 182.4 497 183.5 497 184.8V357.6C497 358.9 498.1 360 499.4 360H521.5C522.8 360 523.9 358.9 523.9 357.6V269.2C523.9 246.1 528.2 229.5 536.9 219.5C545.5 209.5 559.1 202.1 577.7 202.1C591.7 202.1 602.1 205.7 608.6 212.8C615.2 219.9 618.5 230.7 618.5 245.2V357.7C618.5 359 619.6 360.1 620.9 360.1H643C644.3 360.1 645.4 359 645.4 357.7V244C645.4 221.3 640 204.8 629.2 194.5C618.5 184.2 602.4 179 581 179.1V179.1ZM804.5 187.3C798.7 184.9 792.6 183 786.5 181.8C778.1 180 769.5 179.1 760.9 179C734.4 179 714.1 187.1 699.7 203.3C685.4 219.5 678.2 242.5 678.2 272.2C678.2 301.1 685.2 323.5 699.3 339.3C713.4 355.1 733.3 363 759 363C776.4 363 790.9 360.1 802.5 354.4C803.3 354 803.8 353.2 803.8 352.2V333.4C803.8 332.1 802.7 331 801.4 331C801.1 331 800.8 331.1 800.5 331.2C787 336.5 772.7 339.3 758.2 339.5C740.9 339.5 727.9 333.7 719.1 322C710.3 310.3 705.9 293.6 705.9 271.8C705.9 225.8 723.9 202.8 760 202.8C766.3 202.9 772.5 203.7 778.6 205.2C784.4 206.5 790.2 208.1 795.8 210.2C797 210.7 798.4 210.1 798.9 208.8L805.6 190.3C806.3 189.1 805.7 187.8 804.5 187.3V187.3ZM447.5 188.7C437.3 179.3 421.6 174.6 400.4 174.6C389.8 174.6 379.3 175.9 369 178.6C359.7 181 350.7 184.4 342.1 188.8C341 189.4 340.5 190.7 341 191.8L347.5 208C348 209.2 349.4 209.8 350.6 209.3C350.6 209.3 350.7 209.3 350.7 209.2C368.5 200.9 384.4 196.7 398.6 196.7C411.8 196.7 421.4 200 427.4 206.7C431.5 211.2 435 220.6 435.4 228.9L410.5 229.1C400 229.2 387.5 229.9 374.9 234.8C363.4 239.1 353.1 246 344.6 254.9C331.3 269.1 324.8 288.4 326.7 307.8C328.5 326.3 337.6 340.1 352.4 350.7C363.6 358.7 376.9 362.9 390.6 362.9C397.8 362.9 405 361.7 411.8 359.3C420.9 356.1 429.3 350.9 436.3 344.2V357.3C436.3 358.6 437.4 359.7 438.7 359.7H460.2C461.5 359.7 462.6 358.6 462.6 357.3V235.1C462.8 214.4 457.7 198.1 447.5 188.7V188.7ZM437.1 282.2C437 305.3 425.5 330.6 402.4 338.8C389.9 343.1 376 341 365.3 333.3C345.1 318.8 344.6 288.9 361.1 271.4C367.2 265.1 374.6 260.2 382.8 257.2C391.7 253.8 401 253.1 410.5 253L437.2 253.1L437.1 282.2V282.2ZM304.7 182.3C298.3 181.4 291.9 181 285.5 181C253.9 182.1 231.6 202.4 231.7 204.5V186.3C231.7 185 230.6 183.9 229.3 183.9H207.2C205.9 183.9 204.8 185 204.8 186.3V359.1C204.8 360.4 205.9 361.5 207.2 361.5H229.3C230.6 361.5 231.7 360.4 231.7 359.1V266.2C231.7 248.8 236.8 234.3 247 222.6C257.2 210.9 269.5 205.1 283.9 205.1C289.6 205.2 295.3 205.8 300.9 207C302.2 207.3 303.5 206.4 303.7 205.1V205L306.7 184.9C307 183.7 306.1 182.5 304.7 182.3V182.3Z" fill="#333E48"/>
<path d="M971.8 194.5C961 184.2 944.9 179 923.5 179C891.3 179 871.9 194 866.5 204.2L865.3 169.7L894.2 152C904.2 159 918 156.5 925 146.5C932 136.5 929.5 122.7 919.5 115.7C909.5 108.7 895.7 111.2 888.7 121.2C885.4 125.9 884.1 131.7 885 137.4L864.6 150L863.1 108.4L891.6 91C902.9 99.5 919 97.2 927.5 85.9C936 74.6 933.7 58.5 922.4 50C911.1 41.5 895 43.8 886.5 55.1C881.9 61.2 880.3 69.1 882.1 76.6L862.5 88.7L861.3 55.4C873.3 50.8 879.3 37.3 874.6 25.3C870 13.3 856.5 7.30001 844.5 12C832.5 16.7 826.5 30.1 831.2 42.1C833.6 48.2 838.4 53.1 844.5 55.4L842.4 124.3L821.1 110.7C824.5 96.2 815.4 81.7 800.9 78.3C786.4 74.9 771.9 84 768.5 98.5C765.1 113 774.2 127.5 788.7 130.9C796.9 132.8 805.6 130.8 812.1 125.3L841.8 144.1L840.3 194.5L839.5 221.3V357.3C839.5 358.6 840.6 359.7 841.9 359.7H864.2C865.5 359.7 866.6 358.6 866.6 357.3V268.9C866.6 245.8 870.9 229.2 879.6 219.2C887.6 209.9 899.8 202.9 916.3 201.9C917.5 201.9 918.7 201.8 919.9 201.8H920.3C934.3 201.8 944.6 205.4 951.2 212.5C957.8 219.6 961.1 230.4 961.1 244.9V357.4C961.1 358.7 962.2 359.8 963.5 359.8H985.7C987 359.8 988.1 358.7 988.1 357.4V243.9C988 221.3 982.6 204.8 971.8 194.5Z" fill="#333E48"/>
<path d="M852.9 19.7C845.1 19.7 838.8 26 838.8 33.8C838.8 41.6 845.1 47.9 852.9 47.9C860.7 47.9 867 41.6 867 33.8C867.1 26 860.7 19.7 852.9 19.7V19.7ZM906.2 121.5C899.1 121.5 893.4 127.2 893.4 134.3C893.4 141.4 899.1 147.1 906.2 147.1C913.3 147.1 919 141.4 919 134.3C919 127.2 913.3 121.5 906.2 121.5V121.5ZM914.1 84.3C921.6 80.7 924.7 71.6 921.1 64.1C917.5 56.6 908.4 53.5 900.9 57.1C893.4 60.7 890.3 69.8 893.9 77.2C897.5 84.8 906.6 87.9 914.1 84.3V84.3ZM794.9 88.5C785.9 88.5 778.6 95.8 778.6 104.8C778.6 113.8 785.9 121.1 794.9 121.1C803.9 121.1 811.2 113.8 811.2 104.8C811.1 95.8 803.9 88.5 794.9 88.5Z" fill="#009BDE"/>
</svg>
