<svg width="88" height="22" viewBox="0 0 88 22" fill="none" xmlns="http://www.w3.org/2000/svg">
<g clip-path="url(#clip0_5754_281135)">
<path d="M36.2999 14.6C34.8999 16.3 32.8999 17.4 30.6999 17.4C26.8999 17.4 23.8999 14.7 23.8999 11.2C23.8999 9.5 24.5999 7.9 25.8999 6.7C27.0999 5.5 28.7999 4.9 30.4999 5C32.6999 5 34.7999 6 36.0999 7.8L33.5999 9.6C32.8999 8.5 31.7999 7.8 30.4999 7.8C28.5999 7.8 26.9999 9.4 26.9999 11.3C27.0999 13.3 28.6999 14.8 30.5999 14.8C31.8999 14.8 33.0999 14.2 33.7999 13.1L36.2999 14.6V14.6ZM37.6999 0H40.7999V17.1H37.6999V0ZM49.0999 14.7C51.0999 14.7 52.7999 13.1 52.8999 11.1C52.7999 9.1 51.0999 7.5 49.0999 7.5C47.0999 7.5 45.3999 9.1 45.2999 11.1C45.3999 13.1 46.9999 14.7 49.0999 14.7ZM49.0999 4.9C50.7999 4.8 52.4999 5.4 53.7999 6.6C55.0999 7.8 55.7999 9.4 55.8999 11.1C55.7999 12.8 55.0999 14.5 53.7999 15.6C52.4999 16.8 50.7999 17.4 49.0999 17.3C45.2999 17.3 42.2999 14.6 42.2999 11.1C42.2999 7.6 45.2999 4.9 49.0999 4.9V4.9ZM55.2999 5.1H58.9999L61.9999 11.5L65.1999 5.1H68.5999L61.9999 17.8L55.2999 5.1ZM77.4999 9.4C76.9999 8.2 75.8999 7.5 74.5999 7.5C73.2999 7.5 72.0999 8.2 71.4999 9.4H77.4999ZM79.4999 15.7C78.1999 16.8 76.5999 17.3 74.8999 17.3C71.0999 17.3 68.0999 14.6 68.0999 11.1C68.0999 9.4 68.7999 7.8 69.9999 6.6C71.1999 5.4 72.8999 4.8 74.5999 4.9C76.2999 4.8 77.8999 5.5 79.0999 6.7C80.2999 7.9 80.8999 9.5 80.7999 11.2V12H71.1999C71.6999 13.6 73.1999 14.7 74.8999 14.7C75.8999 14.7 76.8999 14.3 77.6999 13.5L79.4999 15.7V15.7ZM82.2999 10.4C82.2999 7.5 84.4999 5.2 87.9999 5.2V8C87.2999 8 86.4999 8.3 85.9999 8.8C85.4999 9.3 85.2999 10.1 85.3999 10.8V17.1H82.2999V10.4V10.4Z" fill="#5A5A5A"/>
<path d="M9.70003 5.6C9.70003 3.6 8.50003 1.9 6.70003 1.1C4.90003 0.299995 2.80003 0.699995 1.40003 2.1C3.06368e-05 3.49999 -0.399969 5.6 0.300031 7.4C1.00003 9.2 2.80003 10.4 4.80003 10.4H9.70003V5.6ZM11.1 5.6C11.1 3.6 12.3 1.9 14.1 1.1C15.9 0.299995 18 0.699995 19.4 2.1C20.8 3.49999 21.2 5.6 20.5 7.4C19.8 9.2 18 10.4 16 10.4H11.1V5.6ZM11.1 16.6C11.1 18.6 12.3 20.3 14.1 21.1C15.9 21.9 18 21.5 19.4 20.1C20.8 18.7 21.2 16.6 20.5 14.8C19.8 13 18 11.8 16 11.8H11.1V16.6ZM4.80003 20.1C6.70003 20.1 8.30003 18.6 8.30003 16.6V13.1H4.80003C2.90003 13.1 1.30003 14.6 1.30003 16.6C1.30003 18.6 2.90003 20.1 4.80003 20.1ZM9.70003 16.6C9.70003 18.6 8.50003 20.3 6.70003 21.1C4.90003 21.9 2.80003 21.5 1.40003 20.1C3.06368e-05 18.7 -0.399969 16.6 0.300031 14.8C1.00003 13 2.80003 11.8 4.80003 11.8H9.70003V16.6Z" fill="#228800"/>
</g>
<defs>
<clipPath id="clip0_5754_281135">
<rect width="88" height="22" fill="white"/>
</clipPath>
</defs>
</svg>
