<svg width="601" height="215" viewBox="0 0 601 215" fill="none" xmlns="http://www.w3.org/2000/svg">
<path d="M71.8 84.5C71.5 71.1 62.6 60.5 46 60.5C30.6 60.5 21.2 72.4 20.4 84.5H71.8ZM91 93.5C91 95.8 90.8 98.2 90.5 99.4H19.8C20.3 116.2 32.4 128 48.2 128C62.2 128 69.8 120.9 73.6 111.5L89.5 117C83.5 132.4 68.9 144.1 48.2 144.1C22.8 144.1 0.699997 125.7 0.699997 93.8C0.799997 64.3 22 44.2 45.5 44.2C74.4 44.2 90.7 64.1 90.7 93.5H91ZM325.6 88.7C325.6 72.6 314.8 62.3 300.3 62.3C285.5 62.3 274.5 72.5 274.5 88.6C274.5 102.9 285.1 112.6 299.9 125.1C314.2 113.1 325.3 102.5 325.3 88.3L325.6 88.7V88.7ZM312.7 138C324.5 148.3 336.4 159.2 336.4 177.3C336.4 198.7 320.9 214.2 299.7 214.2C278.5 214.2 263 198.7 263 177.3C263 166.8 267.2 158.4 272.9 151.5L285.4 162.2C281.7 166.8 279.4 171.7 279.4 177.3C279.4 190.2 288 197.9 299.6 197.9C311.1 197.9 319.9 190.3 319.9 177.3C319.9 165.8 311.3 158.5 299.8 148.6L288.4 138.8L287.2 137.7C272.1 124.7 257 111 257 88.6C257 76.1 261.5 64.9 269.5 56.8C277.7 48.7 288.8 44.3 300.3 44.5C325.2 44.5 343.2 63.1 343.2 88.7C343.2 111.9 325.2 127.5 312.2 138H312.7ZM226.5 0.5C220.3 0.5 215.2 5.6 215.3 11.9V12C215.3 18.2 220.3 23.3 226.6 23.3C232.9 23.3 238 18.2 238 11.9C237.9 5.6 232.8 0.5 226.5 0.5V0.5ZM217.6 141.2H235.7V47.5H217.6V141.2ZM581.2 96.6L552.6 100.9C544.7 102 538.9 106.5 538.9 114.9C538.9 121.8 544.8 128.3 554.1 128.3C569.1 128.3 581.2 120.9 581.2 100.6V96V96.6ZM600.8 141H582.8C582.5 138.7 581.9 135.2 581.9 128.4C577.8 135.3 568.4 144.1 551.7 144.1C532.6 144.1 520.3 130.7 520.3 115.9C520.3 99.3 532.6 90.1 548.8 87.8L574.2 84.1C579.8 83.5 581.3 80.4 581.3 77.1C581.3 67.9 575.3 60.4 561 60.4C548.2 60.4 541 68.4 539.8 79.3L522.3 75.2C524.2 57.2 540.4 44.7 560.7 44.7C588.4 44.7 599.5 60.8 599.5 79.1V126.2C599.5 134.3 600 139.1 600.4 141.4L600.8 141V141ZM469.7 44.6C457.7 44.6 445.7 48.9 438.2 62.4C433.1 50.2 421.8 44.6 410.1 44.6C399.2 44.6 387.5 49.4 381.6 59.8V47.3H364.1V141.1H382.5V84.6C382.5 70.5 391.3 60.8 404.5 60.8C418.6 60.8 424.4 70 424.4 82V141.1H442.8V84.4C442.8 70.9 451.6 60.8 464.5 60.8C478.3 60.8 484.4 70 484.4 82.3V141.2H502.5V80.2C502.5 55.7 486.5 44.5 470.2 44.5L469.7 44.6V44.6ZM191.6 81.7V141.2H173.3V84.9C173.3 71.8 167.8 61.3 151.4 61.3C137 61.3 129.5 72.8 129.5 87.1V141.2H111.1V47.4H129.1V60.9C136 48.9 147.1 44.8 158 44.8C180.4 44.7 191.5 60.8 191.6 81.7V81.7Z" fill="#343C44"/>
</svg>
