<svg width="639" height="136" viewBox="0 0 639 136" fill="none" xmlns="http://www.w3.org/2000/svg">
<g clip-path="url(#clip0_5754_281257)">
<path d="M60.9 40.5C77.7 23.5 108.3 0 108.3 0H39.7L0 42V93.7L39.7 135.7H100.6C100.6 135.7 73.5 108.8 57.6 92.6C41.7 76.4 44.8 56.7 60.9 40.5Z" fill="#003787"/>
<path d="M108.3 126.2L116.5 135.7H142.3V42C142.3 42 125.1 52.3 107.6 63.2C83.1 78.5 87.3 103.3 108.3 126.2Z" fill="#003787"/>
<path d="M220.9 70.8V80.7H238.5V84.3C238.5 95.4 230.3 101.4 219.2 101.4C204.7 101.5 197.7 90.7 197.7 73.6C197.7 56.5 205 45.1 219.2 45.1C228.7 45.1 234.6 49.1 239 56.4L246.9 49.6C240.6 39.3 230.6 34.9 219.3 34.9C202.3 34.9 185.5 46.1 185.5 73.8C185.5 101.5 203.1 111.8 218.2 111.8C226.9 111.8 234 108.9 239 102.9V109.9H250.5V70.8H220.9V70.8Z" fill="#003787"/>
<path d="M304.8 36.8H289.5L265.3 109.9H277.5L281.5 97.1H312.2L316.2 109.9H329L304.8 36.8ZM284.6 87L296.8 46.5L309 87H284.6Z" fill="#003787"/>
<path d="M357.4 99.3V36.8H345.6V109.9H390.1V99.3H357.4Z" fill="#003787"/>
<path d="M407.6 36.8V109.9H419.4V36.8H407.6Z" fill="#003787"/>
<path d="M455.1 99.3V36.8H443.3V109.9H487.7V99.3H455.1Z" fill="#003787"/>
<path d="M517.1 99.6V77.7H549.3V67.5H517.1V47H551.5V36.8H505.3V109.9H552.4V99.6H517.1Z" fill="#003787"/>
<path d="M604.4 34.9C587.6 34.9 570 45.5 570 73.2C570 102.4 589.2 111.7 604.4 111.7C621.3 111.7 638.9 100.9 638.9 73.4C638.9 44.1 619.6 34.9 604.4 34.9ZM604.4 101.5C589.9 101.5 582.3 90.3 582.3 73.1C582.3 55.9 591.1 45.1 604.4 45.1C617.7 45.1 626.6 56.3 626.6 73.5C626.6 90.7 617.4 101.5 604.4 101.5V101.5Z" fill="#003787"/>
</g>
<defs>
<clipPath id="clip0_5754_281257">
<rect width="638.9" height="135.7" fill="white"/>
</clipPath>
</defs>
</svg>
