<svg width="470" height="74" viewBox="0 0 470 74" fill="none" xmlns="http://www.w3.org/2000/svg">
<g clip-path="url(#clip0_5754_281246)">
<path d="M103.245 30.843C99.56 12.683 88.707 0 76.85 0C71.519 0 68.167 1.293 64.927 2.545C61.677 3.8 58.597 4.987 53.203 5.111C47.81 4.987 44.729 3.799 41.479 2.545C38.239 1.294 34.885 0 29.556 0C17.7 0 6.84603 12.683 3.16103 30.843C-0.563974 49.197 -3.45797 69.085 9.44103 72.772C18.252 75.293 24.201 67.614 29.948 60.19C30.666 59.264 31.394 58.327 32.128 57.407C38.261 48.126 51.01 26.1 51.155 25.85C51.3499 25.5144 51.6242 25.2319 51.9538 25.0272C52.2835 24.8225 52.6584 24.702 53.0456 24.6762C53.4327 24.6505 53.8203 24.7202 54.1742 24.8794C54.5281 25.0385 54.8374 25.2822 55.075 25.589L61.35 33.703C61.98 34.518 63.222 34.486 63.81 33.641L73.888 19.117C73.9582 19.0157 73.9976 18.8964 74.0016 18.7733C74.0055 18.6502 73.9739 18.5285 73.9104 18.4229C73.847 18.3173 73.7544 18.2323 73.6438 18.1781C73.5332 18.1238 73.4094 18.1026 73.287 18.117L67.505 18.816C67.0475 18.8713 66.5868 18.7427 66.2241 18.4584C65.8615 18.1741 65.6265 17.7575 65.571 17.3C65.5215 16.8729 65.631 16.4426 65.8785 16.091C66.126 15.7395 66.4943 15.4914 66.913 15.394L78.912 12.675C79.4224 12.5597 79.957 12.6281 80.4219 12.8683C80.8867 13.1085 81.2519 13.505 81.453 13.988L81.456 13.996L85.667 24.125C85.986 24.891 85.808 25.814 85.158 26.329C84.9458 26.5006 84.6983 26.6232 84.4332 26.6881C84.1681 26.7531 83.8919 26.7587 83.6244 26.7047C83.3569 26.6506 83.1046 26.5382 82.8855 26.3754C82.6665 26.2126 82.486 26.0035 82.357 25.763L79.967 21.266C79.8849 21.1117 79.7645 20.9811 79.6174 20.8867C79.4703 20.7923 79.3014 20.7373 79.1269 20.7269C78.9524 20.7166 78.7782 20.7513 78.621 20.8276C78.4638 20.904 78.3288 21.0195 78.229 21.163L64.687 40.672C64.299 41.233 63.692 41.627 63.015 41.701C62.111 41.799 61.357 41.449 60.852 40.799L54.442 32.51C54.3373 32.3722 54.2002 32.2623 54.043 32.19C53.8857 32.1178 53.7131 32.0853 53.5403 32.0956C53.3675 32.1059 53.1999 32.1586 53.0523 32.249C52.9047 32.3394 52.7817 32.4648 52.694 32.614C49.8008 37.5669 46.8761 42.5013 43.92 47.417C43.472 48.158 44.096 49.079 44.949 48.93C47.116 48.545 49.815 48.274 53.117 48.274H53.284C63.842 48.274 68.276 51.055 68.725 51.356C71.416 53.684 73.978 56.991 76.457 60.19C81.443 66.629 86.578 73.259 93.605 73.259C94.678 73.259 95.795 73.104 96.963 72.772C109.864 69.085 106.971 49.197 103.245 30.843V30.843Z" fill="#607EEB"/>
<path d="M192.522 28.9195C192.167 27.8327 191.699 26.8588 191.118 25.998C190.548 25.1264 189.864 24.3839 189.068 23.7705C188.283 23.1572 187.389 22.6891 186.389 22.3663C185.388 22.0434 184.29 21.882 183.096 21.882C181.137 21.882 179.357 22.3878 177.753 23.3993C176.15 24.4108 174.875 25.9011 173.928 27.8703C172.981 29.8395 172.507 32.2553 172.507 35.1176C172.507 37.98 172.986 40.3957 173.944 42.3649C174.902 44.3341 176.198 45.8245 177.834 46.836C179.47 47.8475 181.31 48.3532 183.354 48.3532C185.248 48.3532 186.916 47.9497 188.358 47.1427C189.811 46.3249 190.94 45.1735 191.747 43.6885C192.565 42.1928 192.974 40.4334 192.974 38.4104L194.201 38.6686H184.258V35.1176H196.848V38.6686C196.848 41.3911 196.267 43.7584 195.105 45.7707C193.953 47.7829 192.361 49.3432 190.327 50.4516C188.304 51.5492 185.98 52.0979 183.354 52.0979C180.427 52.0979 177.855 51.4093 175.639 50.0319C173.433 48.6545 171.711 46.6961 170.474 44.1566C169.247 41.6171 168.634 38.6041 168.634 35.1176C168.634 32.5028 168.983 30.1516 169.683 28.064C170.393 25.9657 171.394 24.1794 172.685 22.7052C173.976 21.231 175.504 20.1011 177.269 19.3156C179.034 18.5301 180.976 18.1373 183.096 18.1373C184.839 18.1373 186.464 18.401 187.97 18.9282C189.488 19.4447 190.838 20.1818 192.022 21.1395C193.216 22.0865 194.212 23.2217 195.008 24.5453C195.804 25.8581 196.353 27.3162 196.654 28.9195H192.522ZM204.039 51.646H199.842L211.98 18.5893H216.112L228.25 51.646H224.054L214.175 23.8189H213.917L204.039 51.646ZM205.588 38.7332H222.504V42.2842H205.588V38.7332ZM233.399 18.5893H238.177L249.411 46.0289H249.798L261.033 18.5893H265.81V51.646H262.066V26.5306H261.743L251.413 51.646H247.797L237.467 26.5306H237.144V51.646H233.399V18.5893ZM273.836 51.646V18.5893H293.787V22.1403H277.839V33.3098H292.754V36.8609H277.839V48.095H294.045V51.646H273.836ZM319.08 26.8535C318.886 25.2178 318.1 23.9481 316.723 23.0442C315.346 22.1403 313.656 21.6883 311.655 21.6883C310.191 21.6883 308.911 21.9251 307.813 22.3985C306.726 22.872 305.876 23.523 305.263 24.3516C304.66 25.1802 304.359 26.1217 304.359 27.1763C304.359 28.0586 304.569 28.8173 304.989 29.4521C305.419 30.0763 305.968 30.5982 306.635 31.0178C307.302 31.4267 308.002 31.7657 308.733 32.0347C309.465 32.293 310.137 32.5028 310.751 32.6642L314.108 33.5681C314.969 33.7941 315.927 34.1061 316.981 34.5043C318.047 34.9024 319.063 35.4458 320.032 36.1345C321.011 36.8124 321.818 37.684 322.453 38.7494C323.088 39.8147 323.405 41.1221 323.405 42.6716C323.405 44.4579 322.937 46.072 322.001 47.5139C321.076 48.9558 319.72 50.1018 317.934 50.9519C316.158 51.802 314.001 52.2271 311.461 52.2271C309.094 52.2271 307.044 51.8451 305.311 51.0811C303.59 50.3171 302.234 49.2518 301.244 47.8851C300.265 46.5185 299.71 44.9313 299.581 43.1236H303.713C303.821 44.3718 304.241 45.4048 304.972 46.2226C305.715 47.0297 306.651 47.6323 307.781 48.0304C308.922 48.4178 310.148 48.6115 311.461 48.6115C312.989 48.6115 314.361 48.364 315.577 47.869C316.793 47.3633 317.756 46.6638 318.466 45.7707C319.176 44.8668 319.532 43.8122 319.532 42.607C319.532 41.5095 319.225 40.6163 318.612 39.9276C317.998 39.239 317.191 38.6794 316.19 38.249C315.19 37.8186 314.108 37.4419 312.946 37.1191L308.878 35.957C306.296 35.2145 304.251 34.1546 302.745 32.7772C301.238 31.3998 300.485 29.5974 300.485 27.37C300.485 25.5191 300.986 23.905 301.986 22.5277C302.998 21.1395 304.354 20.0635 306.054 19.2995C307.765 18.5247 309.675 18.1373 311.784 18.1373C313.914 18.1373 315.808 18.5193 317.465 19.2833C319.123 20.0366 320.435 21.0696 321.404 22.3824C322.383 23.6952 322.9 25.1855 322.953 26.8535H319.08ZM333.99 18.5893V51.646H329.987V18.5893H333.99ZM364.613 28.9195C364.258 27.8327 363.79 26.8588 363.209 25.998C362.639 25.1264 361.955 24.3839 361.159 23.7705C360.374 23.1572 359.48 22.6891 358.48 22.3663C357.479 22.0434 356.381 21.882 355.187 21.882C353.229 21.882 351.448 22.3878 349.844 23.3993C348.241 24.4108 346.966 25.9011 346.019 27.8703C345.072 29.8395 344.598 32.2553 344.598 35.1176C344.598 37.98 345.077 40.3957 346.035 42.3649C346.993 44.3341 348.289 45.8245 349.925 46.836C351.561 47.8475 353.401 48.3532 355.445 48.3532C357.339 48.3532 359.007 47.9497 360.449 47.1427C361.902 46.3249 363.031 45.1735 363.839 43.6885C364.656 42.1928 365.065 40.4334 365.065 38.4104L366.292 38.6686H356.349V35.1176H368.939V38.6686C368.939 41.3911 368.358 43.7584 367.196 45.7707C366.044 47.7829 364.452 49.3432 362.418 50.4516C360.395 51.5492 358.071 52.0979 355.445 52.0979C352.518 52.0979 349.947 51.4093 347.73 50.0319C345.524 48.6545 343.802 46.6961 342.565 44.1566C341.338 41.6171 340.725 38.6041 340.725 35.1176C340.725 32.5028 341.074 30.1516 341.774 28.064C342.484 25.9657 343.485 24.1794 344.776 22.7052C346.067 21.231 347.595 20.1011 349.36 19.3156C351.125 18.5301 353.067 18.1373 355.187 18.1373C356.93 18.1373 358.555 18.401 360.062 18.9282C361.579 19.4447 362.929 20.1818 364.113 21.1395C365.307 22.0865 366.303 23.2217 367.099 24.5453C367.895 25.8581 368.444 27.3162 368.745 28.9195H364.613ZM375.795 51.646V18.5893H379.798V33.3098H397.424V18.5893H401.427V51.646H397.424V36.8609H379.798V51.646H375.795ZM407.633 22.1403V18.5893H432.426V22.1403H422.031V51.646H418.028V22.1403H407.633Z" fill="#607EEB"/>
</g>
<defs>
<clipPath id="clip0_5754_281246">
<rect width="470" height="73.5" fill="white"/>
</clipPath>
</defs>
</svg>
