<svg width="503" height="169" viewBox="0 0 503 169" fill="none" xmlns="http://www.w3.org/2000/svg">
<path fill-rule="evenodd" clip-rule="evenodd" d="M496.222 96.82C492.247 96.82 489.549 93.84 489.549 90.149V6.67298C489.549 2.98098 492.247 0.000976562 496.222 0.000976562C500.197 0.000976562 502.895 2.98098 502.895 6.67298V90.149C502.895 93.839 500.197 96.821 496.222 96.821V96.82ZM451.076 43.016C441.281 43.016 434.608 49.972 433.331 58.776H468.254C467.119 50.256 460.729 43.016 451.076 43.016ZM480.604 65.02C480.604 67.291 479.327 69.564 475.495 69.564H433.048C433.757 79.36 440.429 86.741 452.212 86.741C459.595 86.741 463.996 84.186 468.68 79.786C469.816 78.65 471.377 77.656 473.081 77.656C476.063 77.656 478.618 79.786 478.618 83.192C478.618 84.612 477.907 85.889 476.915 87.025C471.52 93.272 461.867 97.388 451.645 97.388C430.49 97.388 419.276 82.624 419.276 64.878C419.276 46.281 432.763 32.369 451.076 32.369C468.965 32.369 480.604 46.849 480.604 65.02V65.02ZM411.184 62.04C411.184 45.43 398.55 32.369 381.372 32.369C364.194 32.369 351.7 45.429 351.7 62.039V90.149C351.699 91.0255 351.871 91.8935 352.206 92.7034C352.541 93.5133 353.033 94.2492 353.653 94.8689C354.273 95.4886 355.009 95.98 355.818 96.315C356.628 96.65 357.497 96.8219 358.373 96.821C359.249 96.8219 360.118 96.65 360.927 96.315C361.737 95.98 362.473 95.4886 363.093 94.8689C363.713 94.2492 364.205 93.5133 364.54 92.7034C364.875 91.8935 365.047 91.0255 365.046 90.149V60.478C365.046 51.534 372.003 44.578 381.372 44.578C390.74 44.578 397.839 51.534 397.839 60.478V90.148C397.838 91.0246 398.01 91.8928 398.345 92.7029C398.68 93.5129 399.171 94.249 399.791 94.8689C400.411 95.4887 401.147 95.9802 401.957 96.3152C402.767 96.6501 403.635 96.822 404.512 96.821C405.388 96.822 406.257 96.6502 407.066 96.3152C407.876 95.9803 408.612 95.4889 409.232 94.8691C409.852 94.2494 410.343 93.5134 410.678 92.7035C411.013 91.8935 411.185 91.0255 411.184 90.149V62.039V62.04ZM308.543 43.725C297.186 43.725 289.235 53.238 289.235 64.878C289.235 77.088 295.908 86.032 308.543 86.032C320.325 86.032 327.85 75.952 327.85 64.878C327.85 51.818 319.899 43.725 308.543 43.725ZM341.194 90.149C341.194 93.839 338.64 96.821 334.522 96.821C330.547 96.821 327.992 93.839 327.992 90.149V87.025C324.018 92.988 316.493 97.388 307.266 97.388C287.39 97.388 275.891 82.909 275.891 64.878C275.891 47.132 288.668 32.369 308.685 32.369C329.128 32.369 341.194 45.713 341.194 64.879V90.149V90.149ZM219.245 64.88C219.245 53.522 226.912 43.443 238.411 43.443C249.911 43.443 257.435 52.103 257.435 64.88C257.435 77.656 249.911 86.316 238.411 86.316C226.912 86.316 219.245 76.236 219.245 64.88ZM219.245 85.18C223.788 92.422 231.597 97.389 241.109 97.389C257.435 97.389 270.78 84.471 270.78 64.879C270.78 45.998 257.435 32.369 241.109 32.369C231.597 32.369 223.079 37.196 218.82 44.579V39.75C218.82 36.058 216.407 32.935 212.289 32.935C208.172 32.935 205.901 35.917 205.901 39.608V116.695C205.901 120.387 208.599 123.368 212.574 123.368C216.549 123.368 219.245 120.387 219.245 116.695V85.179V85.18ZM168.28 55.934L185.174 34.924C186.31 33.646 187.729 32.936 189.574 32.936C193.266 32.936 195.679 35.349 195.679 38.756C195.679 40.036 195.253 41.312 194.118 42.59L175.52 64.737L194.402 87.025C195.395 88.161 195.964 89.297 195.964 91C195.964 94.265 193.124 96.821 190.001 96.821C188.013 96.821 186.452 96.111 185.316 94.691L168.28 73.538L151.244 94.691C150.108 96.111 148.547 96.821 146.559 96.821C143.436 96.821 140.596 94.265 140.596 91.001C140.596 89.297 141.164 88.161 142.158 87.025L161.039 64.737L142.442 42.59C141.306 41.312 140.881 40.035 140.881 38.756C140.881 35.349 143.294 32.936 146.985 32.936C148.83 32.936 150.25 33.646 151.386 34.923L168.28 55.934V55.934ZM117.316 90.15C117.316 93.84 120.013 96.822 123.988 96.822C127.963 96.822 130.66 93.841 130.66 90.15V39.61C130.66 35.919 127.821 32.937 123.988 32.937C120.155 32.937 117.316 35.919 117.316 39.61V90.15ZM131.796 15.475C131.796 11.217 128.247 7.66698 123.988 7.66698C119.729 7.66698 116.18 11.217 116.18 15.475C116.18 19.735 119.729 23.284 123.988 23.284C128.247 23.284 131.796 19.734 131.796 15.474V15.475ZM98.576 96.82C94.743 96.82 91.904 93.839 91.904 90.148V61.756C91.904 51.96 87.219 44.435 76.713 44.435C66.208 44.435 59.819 52.528 59.819 61.897V90.149C59.819 93.839 57.264 96.821 53.147 96.821C49.172 96.821 46.474 93.84 46.474 90.149V61.756C46.474 51.96 41.363 44.435 30.858 44.435C20.068 44.435 14.389 52.528 14.389 61.897V90.149C14.389 93.839 11.692 96.821 7.71801 96.821C3.88401 96.821 1.04501 93.84 1.04501 90.149V39.75C1.04501 35.774 3.60001 32.935 7.71801 32.935C12.261 32.935 14.389 36.058 14.389 39.75V44.293C18.223 36.768 26.031 32.368 34.407 32.368C44.629 32.368 52.295 37.478 56.128 45.003C61.665 36.483 69.757 32.368 79.836 32.368C97.014 32.368 105.248 44.151 105.248 60.761V90.148C105.248 93.838 102.551 96.82 98.576 96.82ZM22.272 168.962C34.358 168.751 43.986 158.782 43.775 146.694C43.564 134.606 33.594 124.979 21.507 125.19C9.42101 125.401 -0.206987 135.37 0.00401322 147.458C0.214013 159.547 10.184 169.173 22.272 168.962V168.962ZM114.579 146.847C114.705 154.099 108.929 160.08 101.677 160.207C94.425 160.333 88.443 154.558 88.316 147.305C88.189 140.052 93.966 134.071 101.218 133.945C108.471 133.818 114.452 139.594 114.579 146.847ZM168.819 154.955C170.909 154.918 172.898 154.053 174.35 152.55C175.802 151.046 176.597 149.028 176.56 146.938C176.523 144.848 175.658 142.859 174.155 141.407C172.651 139.955 170.633 139.16 168.543 139.197C166.453 139.234 164.464 140.099 163.012 141.602C161.56 143.106 160.765 145.124 160.802 147.214C160.839 149.304 161.704 151.293 163.207 152.745C164.711 154.197 166.729 154.992 168.819 154.955Z" fill="#7856FF"/>
</svg>
