<svg width="176" height="40" viewBox="0 0 176 40" fill="none" xmlns="http://www.w3.org/2000/svg">
<path d="M40.8929 20C40.8929 31.045 31.9379 40 20.8929 40C9.84694 40 0.892944 31.045 0.892944 20C0.892944 8.955 9.84694 0 20.8929 0C31.9399 0 40.8929 8.955 40.8929 20Z" fill="#2081E2"/>
<path d="M10.7599 20.672L10.8459 20.536L16.0489 12.397C16.0662 12.37 16.0905 12.3482 16.1191 12.3339C16.1478 12.3196 16.1798 12.3133 16.2117 12.3157C16.2437 12.318 16.2744 12.329 16.3007 12.3473C16.3269 12.3657 16.3477 12.3908 16.3609 12.42C17.2309 14.368 17.9809 16.79 17.6289 18.299C17.4789 18.919 17.0689 19.759 16.6059 20.536C16.5459 20.649 16.4809 20.76 16.4109 20.867C16.3946 20.8912 16.3725 20.9109 16.3467 20.9246C16.3209 20.9382 16.2921 20.9452 16.2629 20.945H10.9129C10.8809 20.9454 10.8493 20.9372 10.8215 20.9212C10.7937 20.9052 10.7708 20.882 10.7551 20.854C10.7395 20.826 10.7316 20.7944 10.7325 20.7623C10.7333 20.7303 10.7428 20.6991 10.7599 20.672V20.672Z" fill="white"/>
<path d="M33.9499 22.184V23.473C33.9499 23.547 33.9059 23.613 33.8399 23.641C33.4369 23.814 32.0579 24.447 31.4849 25.244C30.0219 27.28 28.9049 30.192 26.4049 30.192H15.9819C12.2879 30.192 9.29395 27.188 9.29395 23.481V23.361C9.29395 23.263 9.37395 23.183 9.47295 23.183H15.2829C15.3989 23.183 15.4829 23.29 15.4729 23.403C15.4319 23.781 15.5019 24.167 15.6799 24.519C16.0249 25.219 16.7399 25.657 17.5129 25.657H20.3899V23.411H17.5459C17.5126 23.4107 17.48 23.4012 17.4517 23.3837C17.4233 23.3662 17.4003 23.3413 17.3851 23.3117C17.3698 23.282 17.363 23.2488 17.3652 23.2155C17.3675 23.1823 17.3788 23.1503 17.3979 23.123L17.5009 22.971C17.7709 22.589 18.1539 21.995 18.5359 21.319C18.7979 20.863 19.0499 20.376 19.2539 19.887C19.2939 19.799 19.3279 19.708 19.3609 19.62C19.4159 19.464 19.4739 19.318 19.5149 19.172C19.5549 19.049 19.5889 18.919 19.6209 18.798C19.7179 18.383 19.7589 17.943 19.7589 17.488C19.7589 17.308 19.7509 17.121 19.7349 16.943C19.7238 16.7469 19.7044 16.5514 19.6769 16.357C19.6579 16.1819 19.6312 16.0078 19.5969 15.835C19.5538 15.5726 19.4987 15.3124 19.4319 15.055L19.4099 14.955C19.3599 14.777 19.3199 14.606 19.2619 14.428C19.1029 13.8804 18.9204 13.3399 18.7149 12.808C18.6429 12.605 18.5609 12.41 18.4789 12.214C18.3579 11.921 18.2339 11.654 18.1209 11.401C18.0639 11.286 18.0149 11.181 17.9649 11.074C17.9103 10.954 17.8537 10.835 17.7949 10.717C17.7539 10.628 17.7059 10.546 17.6729 10.464L17.3229 9.814C17.3124 9.79439 17.3078 9.77215 17.3097 9.74997C17.3116 9.72779 17.3198 9.70663 17.3335 9.68906C17.3471 9.67148 17.3656 9.65825 17.3866 9.65096C17.4077 9.64367 17.4303 9.64264 17.4519 9.648L19.6499 10.244H19.6559C19.6609 10.244 19.6629 10.246 19.6649 10.246L19.9549 10.326L20.2729 10.416L20.3899 10.449V9.142C20.3899 8.512 20.8949 8 21.5199 8C21.8319 8 22.1159 8.127 22.3199 8.335C22.5229 8.542 22.6499 8.826 22.6499 9.142V11.082L22.8849 11.148C22.9039 11.1541 22.9218 11.1632 22.9379 11.175L23.1819 11.36C23.2649 11.425 23.3529 11.506 23.4599 11.588C23.6719 11.758 23.9239 11.978 24.2019 12.231C24.2759 12.295 24.3469 12.361 24.4129 12.426C24.7709 12.759 25.1719 13.149 25.5529 13.581C25.6609 13.702 25.7649 13.825 25.8729 13.955C25.9789 14.086 26.0929 14.215 26.1909 14.345C26.3209 14.518 26.4599 14.697 26.5809 14.884C26.6389 14.972 26.7039 15.062 26.7599 15.151C26.9159 15.387 27.0539 15.631 27.1849 15.876C27.2409 15.989 27.2979 16.112 27.3479 16.234C27.4929 16.56 27.6079 16.894 27.6819 17.226C27.7049 17.298 27.7219 17.376 27.7299 17.446V17.462C27.7539 17.561 27.7629 17.666 27.7699 17.772C27.82 18.2645 27.7592 18.762 27.5919 19.228C27.5419 19.368 27.4929 19.513 27.4299 19.651C27.3069 19.936 27.1599 20.222 26.9879 20.489C26.9293 20.5919 26.8669 20.6927 26.8009 20.791C26.7289 20.896 26.6549 20.995 26.5889 21.091C26.4989 21.214 26.4019 21.344 26.3039 21.459C26.2181 21.5809 26.1253 21.6978 26.0259 21.809C25.8889 21.971 25.7569 22.125 25.6199 22.273C25.5369 22.369 25.4489 22.468 25.3589 22.556C25.2699 22.655 25.1789 22.743 25.0969 22.826C24.9599 22.963 24.8449 23.07 24.7479 23.158L24.5219 23.366C24.4884 23.3951 24.4454 23.4111 24.4009 23.411H22.6509V25.657H24.8529C25.3444 25.6571 25.8196 25.4815 26.1929 25.162C26.3229 25.049 26.8869 24.56 27.5549 23.822C27.5773 23.7971 27.6065 23.7794 27.6389 23.771L33.7239 22.011C33.7506 22.0036 33.7787 22.0025 33.8059 22.0077C33.8331 22.0129 33.8587 22.0243 33.8807 22.0411C33.9028 22.0578 33.9207 22.0794 33.9331 22.1042C33.9454 22.129 33.9519 22.1563 33.9519 22.184H33.9499Z" fill="white"/>
<path d="M60.3809 29.599C58.5729 29.599 56.9109 29.194 55.3959 28.383C53.9208 27.5939 52.6821 26.4267 51.8069 25.001C50.9309 23.539 50.4919 21.901 50.4919 20.086C50.4919 18.272 50.9309 16.642 51.8069 15.198C52.6821 13.7722 53.9208 12.605 55.3959 11.816C56.9109 11.006 58.5729 10.6 60.3809 10.6C62.1889 10.6 63.8419 11.005 65.3399 11.816C66.8559 12.626 68.0429 13.753 68.9009 15.198C69.7779 16.642 70.2159 18.272 70.2159 20.086C70.2159 21.901 69.7779 23.539 68.9009 25.001C68.0413 26.4293 66.8107 27.5981 65.3399 28.383C63.8419 29.193 62.1899 29.599 60.3809 29.599ZM60.3809 25.477C61.9149 25.477 63.1389 24.983 64.0519 23.997C64.9839 23.01 65.4489 21.707 65.4489 20.087C65.4489 18.447 64.9839 17.144 64.0519 16.175C63.1389 15.189 61.9149 14.695 60.3819 14.695C58.8289 14.695 57.5869 15.18 56.6559 16.149C55.7429 17.118 55.2859 18.43 55.2859 20.086C55.2859 21.725 55.7429 23.036 56.6559 24.023C57.5869 24.993 58.8289 25.477 60.3809 25.477V25.477ZM77.5069 16.757C77.9629 16.07 78.5929 15.515 79.3969 15.092C80.1999 14.669 81.1409 14.458 82.2179 14.458C83.4779 14.458 84.6199 14.766 85.6429 15.383C86.6649 15.999 87.4689 16.88 88.0529 18.025C88.6559 19.17 88.9569 20.5 88.9569 22.015C88.9569 23.53 88.6559 24.869 88.0529 26.031C87.4689 27.176 86.6649 28.066 85.6429 28.701C84.6199 29.317 83.4779 29.625 82.2179 29.625C81.1589 29.625 80.2179 29.414 79.3969 28.991C78.5929 28.568 77.9629 28.022 77.5069 27.352V33.8H72.8219V14.67H77.5069V16.757ZM84.1909 22.015C84.1909 20.888 83.8609 20.007 83.2039 19.373C82.5649 18.721 81.7709 18.395 80.8209 18.395C79.8899 18.395 79.0959 18.721 78.4379 19.373C77.7979 20.024 77.4789 20.914 77.4789 22.041C77.4789 23.169 77.7989 24.058 78.4379 24.711C78.748 25.027 79.1192 25.2766 79.5289 25.4446C79.9386 25.6126 80.3782 25.6954 80.8209 25.688C81.2638 25.6954 81.7034 25.6125 82.1131 25.4443C82.5228 25.2762 82.894 25.0263 83.2039 24.71C83.8619 24.04 84.1909 23.142 84.1909 22.015V22.015ZM105.824 21.804C105.824 22.226 105.797 22.667 105.742 23.124H95.1399C95.2129 24.041 95.5149 24.745 96.0439 25.239C96.5919 25.714 97.2589 25.952 98.0439 25.952C99.2129 25.952 100.025 25.476 100.482 24.525H105.468C105.212 25.4938 104.734 26.3896 104.071 27.141C103.413 27.916 102.582 28.524 101.578 28.964C100.573 29.404 99.4499 29.625 98.2079 29.625C96.7109 29.625 95.3779 29.317 94.2089 28.7C93.0596 28.1024 92.1079 27.1848 91.4689 26.058C90.8119 24.913 90.4829 23.574 90.4829 22.041C90.4829 20.509 90.8029 19.17 91.4429 18.025C92.0813 16.8983 93.0322 15.9807 94.1809 15.383C95.3509 14.766 96.6929 14.458 98.2089 14.458C99.6879 14.458 101.003 14.758 102.153 15.356C103.278 15.9305 104.212 16.8214 104.838 17.919C105.495 19.029 105.824 20.324 105.824 21.804V21.804ZM101.03 20.614C101.03 19.839 100.756 19.223 100.208 18.764C99.6599 18.307 98.9749 18.078 98.1539 18.078C97.3679 18.078 96.7019 18.298 96.1539 18.738C95.6239 19.178 95.2949 19.804 95.1679 20.615H101.03V20.614ZM117.61 14.51C119.4 14.51 120.824 15.074 121.883 16.202C122.961 17.312 123.5 18.844 123.5 20.8V29.414H118.842V21.407C118.842 20.421 118.578 19.654 118.048 19.108C117.518 18.562 116.806 18.289 115.912 18.289C115.016 18.289 114.304 18.562 113.775 19.109C113.245 19.654 112.98 20.421 112.98 21.407V29.414H108.296V14.669H112.98V16.625C113.455 15.973 114.094 15.462 114.898 15.092C115.701 14.704 116.605 14.511 117.61 14.511V14.51ZM133.713 29.599C132.307 29.599 131.047 29.379 129.933 28.939C128.819 28.498 127.924 27.846 127.248 26.983C126.591 26.12 126.243 25.08 126.207 23.865H131.193C131.266 24.552 131.512 25.08 131.933 25.45C132.353 25.802 132.9 25.979 133.576 25.979C134.27 25.979 134.818 25.829 135.22 25.529C135.621 25.212 135.823 24.781 135.823 24.235C135.828 24.0211 135.787 23.8086 135.701 23.6124C135.616 23.4162 135.489 23.241 135.329 23.099C135.019 22.799 134.626 22.552 134.151 22.359C133.695 22.165 133.037 21.945 132.179 21.699C130.937 21.329 129.923 20.959 129.138 20.589C128.342 20.2104 127.648 19.6488 127.111 18.95C126.545 18.228 126.262 17.285 126.262 16.123C126.262 14.396 126.91 13.049 128.207 12.08C129.503 11.093 131.193 10.6 133.275 10.6C135.393 10.6 137.101 11.093 138.397 12.08C139.694 13.049 140.388 14.405 140.479 16.15H135.411C135.375 15.55 135.147 15.083 134.727 14.749C134.307 14.396 133.768 14.22 133.11 14.22C132.544 14.22 132.088 14.37 131.741 14.67C131.394 14.951 131.22 15.365 131.22 15.911C131.22 16.511 131.512 16.977 132.097 17.311C132.681 17.646 133.594 18.008 134.836 18.395C136.078 18.8 137.083 19.188 137.849 19.558C138.635 19.928 139.311 20.465 139.877 21.17C140.443 21.874 140.726 22.781 140.726 23.891C140.736 24.9141 140.44 25.9169 139.877 26.771C139.329 27.635 138.525 28.321 137.466 28.832C136.407 29.343 135.156 29.599 133.713 29.599V29.599ZM158.018 21.804C158.018 22.226 157.99 22.667 157.935 23.124H147.334C147.407 24.041 147.708 24.745 148.238 25.239C148.786 25.714 149.452 25.952 150.238 25.952C151.406 25.952 152.219 25.476 152.676 24.525H157.661C157.406 25.494 156.927 26.3899 156.264 27.141C155.607 27.916 154.776 28.524 153.771 28.964C152.767 29.404 151.644 29.625 150.402 29.625C148.904 29.625 147.571 29.317 146.402 28.7C145.253 28.1023 144.302 27.1847 143.663 26.058C143.006 24.913 142.677 23.574 142.677 22.041C142.677 20.509 142.996 19.17 143.636 18.025C144.274 16.8981 145.226 15.9804 146.375 15.383C147.544 14.766 148.886 14.458 150.402 14.458C151.881 14.458 153.196 14.758 154.347 15.356C155.472 15.9308 156.405 16.8216 157.031 17.919C157.689 19.029 158.018 20.324 158.018 21.804V21.804ZM153.224 20.614C153.224 19.839 152.95 19.223 152.402 18.764C151.854 18.307 151.169 18.078 150.347 18.078C149.562 18.078 148.895 18.298 148.347 18.738C147.818 19.178 147.489 19.804 147.361 20.615H153.224V20.614ZM159.558 22.015C159.558 20.5 159.85 19.17 160.434 18.025C161.037 16.88 161.85 15.999 162.872 15.383C163.895 14.766 165.036 14.458 166.297 14.458C167.374 14.458 168.315 14.669 169.118 15.092C169.94 15.515 170.57 16.07 171.008 16.757V14.669H175.693V29.414H171.008V27.326C170.552 28.013 169.913 28.568 169.091 28.991C168.287 29.414 167.347 29.625 166.269 29.625C165.027 29.625 163.895 29.317 162.872 28.7C161.85 28.066 161.037 27.176 160.434 26.031C159.85 24.869 159.558 23.53 159.558 22.015V22.015ZM171.008 22.041C171.008 20.914 170.68 20.024 170.022 19.373C169.383 18.721 168.598 18.395 167.666 18.395C167.223 18.3876 166.783 18.4705 166.374 18.6386C165.964 18.8068 165.593 19.0566 165.283 19.373C164.644 20.007 164.324 20.888 164.324 22.015C164.324 23.142 164.644 24.041 165.283 24.71C165.593 25.0263 165.964 25.2762 166.374 25.4443C166.783 25.6125 167.223 25.6954 167.666 25.688C168.598 25.688 169.383 25.362 170.022 24.71C170.68 24.058 171.008 23.169 171.008 22.041Z" fill="#04111D"/>
</svg>
