<svg width="512" height="142" viewBox="0 0 512 142" fill="none" xmlns="http://www.w3.org/2000/svg">
<path d="M97.363 0C111.94 6.489 124.859 16.48 125.369 16.876L125.385 16.888C123.327 8.748 121.836 4.392 121.836 4.392C126.416 6.883 131.886 10.09 137.268 13.439L138.462 14.185C147.004 19.545 155.137 25.155 158.903 28.691C162.562 28.52 165.489 27.601 167.366 26.815C170.565 25.475 173.254 28.765 174.271 32.112C175.283 35.442 176.501 40.58 176.557 46.152C176.62 52.366 175.241 57.735 172.458 62.11C167.189 70.397 156.958 76.01 145.913 81.767L144.683 82.407L144.066 82.729C131.816 89.099 121.597 95.562 113.61 107.451C109.465 113.64 106.268 120.413 104.124 127.546C101.846 135.113 100.046 141.247 94.926 141.247C90.293 141.247 87.529 135.278 85.439 131.907C81.42 125.425 76.421 117.362 68.329 116.68C61.141 115.615 55.241 118.276 50.977 121.791C49.0081 123.424 47.2631 125.31 45.787 127.399C44.588 128.832 43.459 130.303 42.362 131.733C39.008 136.105 36.112 139.882 32.284 140.977C31.658 141.157 31.043 141.247 30.454 141.247C30.034 141.247 29.56 141.199 29.061 141.067L28.809 140.994L28.799 141.01C16.737 137.476 16.115 115.418 16.115 115.418C10.315 116.799 4.327 120.613 4.327 120.613C9.727 102.113 20.078 90.023 20.078 90.023C17.821 89.847 15.278 89.893 12.78 90.051L12.067 90.099C5.791 90.55 0 91.656 0 91.656C16.115 70.918 26.99 63.318 26.99 63.318C18.452 59.588 7.546 57.681 7.546 57.681C27.176 46.347 46.655 40.801 46.655 40.801C42.412 36.795 27.141 31.409 27.141 31.409C30.122 30.552 33.609 29.765 37.234 29.059L38.226 28.869C38.889 28.743 39.556 28.619 40.223 28.499L41.226 28.322C41.77 28.226 42.314 28.132 42.858 28.041L43.672 27.904L44.078 27.837L44.888 27.705C51.4613 26.6563 58.0609 25.7793 64.68 25.075C59.604 20.796 48.119 16.139 48.119 16.139C54.586 15.918 60.369 15.839 65.244 15.832H66.591C76.144 15.847 81.861 16.139 81.861 16.139C78.294 11.236 69.098 4.819 69.098 4.819C88.246 6.621 101.894 11.373 101.894 11.373C101.749 10.209 100.934 8.03 100.032 5.888L99.796 5.331C98.608 2.556 97.363 0 97.363 0ZM66.55 120.59C65.86 122.439 65.1345 124.274 64.374 126.095L64.082 126.787C61.585 132.665 58.662 138.337 55.528 138.832C55.3275 138.863 55.1249 138.879 54.922 138.879C52.434 138.879 50.202 136.583 48.118 131.869C51.785 126.697 59.062 120.675 66.55 120.59ZM124.696 102.114C122.643 109.809 122.369 117.539 122.15 123.748V123.754C122.008 127.769 121.886 131.236 121.313 133.759C120.545 137.139 118.863 138.853 116.313 138.853L116.226 138.852C113.766 138.812 111.151 136.704 108.286 132.431C109.974 122.757 116.657 110.401 124.696 102.114ZM238.903 26.566C247.096 26.566 255.107 30.173 260.478 36.003C265.841 41.826 269.159 49.868 269.159 58.744C269.159 67.62 265.841 75.661 260.478 81.484C255.108 87.312 247.096 90.92 238.903 90.92C232.902 90.92 226.605 89.062 222.218 84.92L222.231 104.658C222.242 121.254 209.288 118.738 206.288 118.569C205.268 118.512 204.47 118.293 203.916 117.748C203.361 117.202 203.083 116.419 203.083 115.412L203.042 29.866C203.042 28.837 203.327 28.026 203.898 27.466C204.468 26.902 205.287 26.622 206.337 26.622H217.603C218.653 26.622 219.471 26.902 220.041 27.465C220.613 28.026 220.885 28.829 220.898 29.866L220.94 33.136C223.42 31.0821 226.224 29.4549 229.237 28.321C232.328 27.1629 235.602 26.5685 238.903 26.566ZM461.327 26.484C462.181 26.484 462.909 26.714 463.467 27.146C464.024 27.578 464.434 28.239 464.78 29.052L480.872 66.693L492.415 29.158C492.662 28.258 493.097 27.643 493.69 27.19C494.265 26.747 495.003 26.484 495.869 26.484H509.185C510.318 26.484 511.12 26.812 511.593 27.411C512.063 28.032 512.126 28.901 511.777 30.057L493.867 86.269L486.956 108.079L484.315 116.464C484.022 117.396 483.541 118.05 482.885 118.417L482.694 118.512C481.977 118.803 481.214 118.762 480.317 118.542C477.415 117.825 463.954 116.312 469.339 100.592L472.531 91.266L471.807 89.454L468.307 81.136L446.387 30.209C445.906 29.152 446.079 28.189 446.51 27.533C446.958 26.85 447.746 26.504 448.854 26.483H461.327V26.484ZM41.496 78.924L26.484 101.52L40.63 88.587L41.496 78.924ZM377.31 26.574C377.974 26.582 378.51 26.831 378.903 27.234C379.482 27.824 379.757 28.624 379.757 29.655V44.555C379.757 45.566 379.545 46.325 379.097 46.829C378.667 47.333 378.027 47.588 377.194 47.588C375.43 47.5194 373.665 47.7104 371.957 48.155C370.29 48.595 368.772 49.355 367.447 50.385C366.123 51.438 365.061 52.852 364.284 54.575C363.5 56.323 363.101 58.446 363.09 60.973L363.002 76.863C362.91 93.46 350.059 90.946 347.059 90.775C346.036 90.717 345.241 90.502 344.687 89.955C344.131 89.408 343.852 88.628 343.852 87.619V29.779C343.852 28.77 344.131 27.991 344.687 27.443C345.243 26.896 346.034 26.623 347.059 26.623H359.88C360.908 26.623 361.699 26.896 362.253 27.443C362.811 27.991 363.09 28.769 363.09 29.779V32.956C364.63 30.268 368.143 26.451 377.31 26.574ZM415.542 26.484C430.027 26.484 442.157 35.261 445.995 47.94C446.74 50.012 445.501 51.355 443.396 51.355H429.78C428.17 51.355 427.054 50.623 426.065 49.282C423.837 46.234 419.999 44.526 415.542 44.526C407.495 44.526 401.305 50.257 401.305 58.668C401.305 67.081 407.495 72.81 415.542 72.81C419.999 72.81 423.837 71.104 426.065 68.178C427.054 66.715 428.043 65.983 429.78 65.983H443.396C445.501 65.983 446.74 67.324 445.996 69.397C442.156 82.076 430.027 90.854 415.542 90.854C396.725 90.854 382.734 76.833 382.734 58.668C382.734 40.503 396.724 26.484 415.542 26.484ZM307.531 26.514C312.056 26.534 316.211 27.343 319.996 28.944C323.7 30.4975 327.052 32.7848 329.849 35.668C332.624 38.566 334.784 41.947 336.306 45.836C337.828 49.726 338.611 53.979 338.631 58.596C338.631 59.387 338.611 60.156 338.547 60.886C338.504 61.6228 338.449 62.3588 338.384 63.094C338.261 64.066 337.89 64.774 337.315 65.221C336.739 65.667 335.977 65.889 335.051 65.889H293.832C294.612 68.279 295.704 70.223 297.142 71.722C298.547 73.1699 300.263 74.2783 302.161 74.963C304.075 75.652 306.111 75.975 308.271 75.975C310.019 75.955 311.705 75.692 313.311 75.146C314.894 74.599 316.271 73.869 317.403 72.937C317.948 72.4874 318.542 72.1003 319.173 71.783C319.77 71.5 320.448 71.358 321.229 71.358L333.077 71.237C334.209 71.257 335.031 71.581 335.525 72.209C335.998 72.837 336.018 73.647 335.545 74.639C333.921 78.164 331.76 81.121 329.067 83.491C326.372 85.881 323.245 87.662 319.686 88.879C316.128 90.073 312.242 90.682 308.025 90.682C302.882 90.66 298.254 89.831 294.141 88.21C290.007 86.59 286.489 84.342 283.569 81.424C280.626 78.529 278.385 75.124 276.822 71.257C275.259 67.367 274.476 63.154 274.456 58.597C274.476 54.039 275.279 49.826 276.883 45.938C278.487 42.069 280.749 38.666 283.692 35.769C286.613 32.853 290.109 30.604 294.141 28.984C298.172 27.364 302.635 26.534 307.531 26.514ZM84.496 61.61L50.49 77.85L78.834 70.917L84.497 61.61H84.496ZM54.074 57.681L27.141 77L49.084 67.341L54.074 57.682V57.681ZM238.668 44.398C230.768 44.398 224.366 50.744 224.366 58.572C224.366 66.402 230.768 72.749 238.668 72.749C246.565 72.749 252.968 66.403 252.968 58.572C252.968 50.744 246.565 44.398 238.668 44.398ZM115.002 52.016L84.792 55.27L106.876 56.563L115.002 52.016ZM307.408 42.676C303.93 42.696 301.01 43.486 298.708 45.086C296.382 46.666 294.738 48.996 293.771 52.034H320.201C319.543 49.744 318.556 47.901 317.238 46.524C315.985 45.1946 314.435 44.1812 312.714 43.567C311.012 42.9571 309.216 42.6553 307.408 42.676ZM81.862 43.151L51.652 46.403L73.852 48.518L81.862 43.151ZM124.413 39.364L101.894 44.139L119.416 43.151L124.413 39.364ZM73.245 31.408L96.664 37.401L106.876 34.01L73.245 31.408ZM97.363 19.862L116.314 28.69L125.385 26.814L97.363 19.862Z" fill="#5C007B"/>
</svg>
