<svg width="206" height="110" viewBox="0 0 206 110" fill="none" xmlns="http://www.w3.org/2000/svg">
<path d="M82.1243 0.241211H66.2324V82.9767H82.1243V0.241211Z" fill="black"/>
<path d="M32.5593 21.7832C24.1428 21.7832 18.6074 25.5051 15.3154 28.8884L15.3108 23.396H0L0 106.131H15.893V78.2036C18.6144 80.8321 24.0201 84.5887 32.6739 84.5887C49.0716 84.5887 61.4376 71.1135 61.4376 53.244C61.4376 35.3744 48.7521 21.7832 32.5593 21.7832ZM30.6042 70.7506C21.5325 70.7506 15.1962 63.5515 15.1962 53.244C15.1962 42.9364 21.6761 35.6225 30.6042 35.6225C39.5323 35.6225 46.2425 43.0338 46.2425 53.244C46.2425 63.4541 39.6654 70.7506 30.6042 70.7506Z" fill="black"/>
<path d="M189.502 54.9836C189.502 65.1324 182.404 69.6751 175.369 69.6751C167.767 69.6751 164.226 65.3527 164.226 56.0735V23.3965H148.326V58.4968C148.326 67.1904 150.428 73.8608 154.575 78.3235C158.464 82.5103 164 84.6321 171.032 84.6321C178.795 84.6321 184.686 82.3016 189.493 77.3101L189.502 80.6111C189.502 90.1013 184.647 95.5449 176.184 95.5449C170.444 95.5449 166.701 93.2121 164.926 88.6694H149.206C151.938 102.227 161.531 109.412 176.184 109.412C185.203 109.412 192.674 106.66 197.788 101.451C202.769 96.3809 205.401 89.132 205.401 80.4905V23.3965H189.501V54.9836H189.502Z" fill="black"/>
<path d="M117.139 60.8616C125.563 60.8616 132.122 59.1212 136.638 55.6892C141.299 52.1448 143.663 47.0443 143.663 40.5282C143.663 34.6915 141.454 30.0316 137.101 26.6784C132.886 23.4296 127.274 21.7832 120.422 21.7832C114.364 21.7832 108.693 23.9908 103.969 28.1765V23.396H88.6914V61.8413C88.6914 69.1413 91.0285 74.8493 95.6366 78.8077C100.166 82.6965 106.602 84.6676 114.763 84.6676C122.413 84.6676 128.73 82.9388 133.537 79.5289C138.563 75.9624 141.425 71.001 142.012 64.1255H126.533C125.992 66.5881 125.015 68.027 123.132 69.2943C121.131 70.6405 118.506 71.3234 115.329 71.3234C111.76 71.3234 108.969 70.521 107.034 68.9384C105.178 67.4195 104.277 65.358 104.277 62.6332V60.8593H117.139V60.8616ZM103.569 49.0096C103.481 44.6199 104.841 41.043 107.616 38.3739C109.65 36.419 113.227 34.0874 118.73 34.0874C122.955 33.9981 128.043 35.8637 128.436 41.3398C128.519 43.8071 127.661 45.6576 125.811 46.9945C123.964 48.3313 121.237 49.0084 117.705 49.0084H103.569V49.0096Z" fill="black"/>
</svg>
