<svg width="260" height="64" viewBox="0 0 260 64" fill="none" xmlns="http://www.w3.org/2000/svg">
<g clip-path="url(#clip0_5754_281472)">
<path fill-rule="evenodd" clip-rule="evenodd" d="M24.9998 0C27.0998 0 28.8998 1.6 28.9998 3.7L43.6998 5.9C44.3998 4.3 46.2998 3.6 47.8998 4.3C49.4998 5 50.1998 6.9 49.4998 8.5C49.0998 9.4 48.3998 10 47.4998 10.3V40.8C49.1998 41.3 50.1998 43.1 49.6998 44.7C49.1998 46.4 47.3998 47.4 45.7998 46.9C45.3998 46.8 45.0998 46.6 44.7998 46.4L28.7998 58.4C29.6998 60.4 28.7998 62.8 26.7998 63.7C24.7998 64.6 22.3998 63.7 21.4998 61.7C20.9998 60.7 20.9998 59.5 21.4998 58.4L5.4998 46.4C4.0998 47.5 2.0998 47.3 0.999802 45.9C-0.100198 44.5 0.0998018 42.5 1.4998 41.4C1.8998 41.1 2.2998 40.9 2.6998 40.8V10.3C0.799802 9.8 -0.200198 8.1 0.299802 6.4C0.799802 4.7 2.4998 3.7 4.1998 4.2C5.0998 4.5 5.7998 5.1 6.1998 6L20.9998 3.8C21.0998 1.7 22.8998 0 24.9998 0ZM12.5998 44.1L6.4998 44.2C6.4998 44.4 6.3998 44.7 6.2998 44.9L22.2998 56.9C22.3998 56.8 22.4998 56.7 22.5998 56.7L17.4998 47.1C15.5998 47.8 13.3998 46.8 12.6998 44.9C12.6998 44.7 12.6998 44.4 12.5998 44.1ZM4.5998 40.9L13.7998 26.5C12.1998 25.2 12.0998 22.8 13.3998 21.2C13.3998 21.1 13.4998 21.1 13.4998 21L4.8998 10C4.6998 10.1 4.4998 10.2 4.1998 10.3V40.7C4.3998 40.8 4.4998 40.8 4.5998 40.9V40.9ZM14.6998 27L5.4998 41.4C5.9998 41.9 6.3998 42.5 6.4998 43.2L12.5998 43.1C12.8998 41.1 14.6998 39.6 16.7998 39.9C17.6998 40 18.3998 40.4 18.9998 41L29.9998 34.6C29.7998 33.9 29.7998 33.2 29.9998 32.5L18.9998 26.1C17.8998 27.4 16.1998 27.7 14.6998 27V27ZM18.4998 46.6L23.5998 56.2C24.2998 55.9 25.0998 55.9 25.7998 56L31.9998 37C31.5998 36.8 31.1998 36.6 30.8998 36.2L19.8998 42.6C20.2998 44.1 19.6998 45.7 18.4998 46.6ZM32.8998 37.3L26.6998 56.4C26.9998 56.6 27.2998 56.7 27.5998 57L43.5998 45C43.1998 44.1 43.2998 43.1 43.6998 42.3L36.0998 36.3C35.2998 37.1 34.0998 37.5 32.8998 37.3V37.3ZM36.7998 35.5L44.3998 41.5C44.7998 41.2 45.1998 40.9 45.6998 40.8V10.3H45.5998L35.5998 30.5C37.2998 31.6 37.7998 33.8 36.7998 35.5ZM34.7998 30.1L44.7998 9.9C44.4998 9.7 44.2998 9.5 44.0998 9.2L37.1998 12.6C37.7998 14.6 36.7998 16.7 34.7998 17.3C33.3998 17.8 31.8998 17.4 30.8998 16.3L19.8998 22.7C20.0998 23.4 20.0998 24.1 19.8998 24.8L30.8998 31.2C31.8998 30 33.3998 29.6 34.7998 30.1ZM36.5998 11.6L43.4998 8.2C43.3998 8 43.3998 7.9 43.3998 7.7L28.6998 5.5C28.4998 5.9 28.2998 6.3 27.9998 6.7L31.4998 10.6L31.6998 10.5C33.3998 9.5 35.5998 10 36.5998 11.6V11.6ZM30.6998 11.2L27.1998 7.3C26.1998 8 24.8998 8.2 23.7998 7.8L18.1998 20.4C18.4998 20.6 18.6998 20.8 18.8998 21L29.8998 14.6C29.5998 13.5 29.8998 12.2 30.6998 11.2V11.2ZM17.2998 20.1L22.8998 7.5C22.0998 7 21.5998 6.3 21.1998 5.5L6.4998 7.7C6.4998 8.3 6.1998 8.9 5.6998 9.4L14.3998 20.4C15.2998 19.9 16.2998 19.8 17.2998 20.1V20.1Z" fill="#009DE6"/>
<path fill-rule="evenodd" clip-rule="evenodd" d="M77.9 17.9C76.4 14.9 73.3 14.1 70.3 14.1C66.7 14.1 62.8 15.8 62.8 19.7C62.8 24.1 66.4 25.1 70.4 25.5C73 25.8 74.9 26.5 74.9 28.4C74.9 30.5 72.7 31.3 70.4 31.3C68.1 31.3 65.8 30.4 65 28.2L62 29.8C63.5 33.3 66.5 34.6 70.4 34.6C74.7 34.6 78.5 32.7 78.5 28.4C78.5 23.8 74.7 22.7 70.7 22.2C68.4 21.9 66.4 21.5 66.4 19.8C66.4 18.3 67.7 17.2 70.4 17.2C72.5 17.2 74.3 18.3 75 19.4L77.9 17.9V17.9ZM96.7 34.1H100.7L92 14.7H88L79.3 34.1H83.3L85 30.5H95.1L96.7 34.1V34.1ZM93.6 27H86.4L90 18.7L93.6 27V27ZM106.7 34.1V26.9H116.4V23.5H106.7V18.2H116.9V14.7H103V34L106.7 34.1V34.1ZM134.9 30.5H124V26.1H134.5V22.7H124V18.2H134.9V14.7H120.4V34.1H134.9V30.5V30.5ZM160.4 17.2C158.5 15.3 156 14.3 153.3 14.3C147 14.3 143.2 18.7 143.2 24.5C143.2 29.7 146.4 34.4 153.3 34.4C156.2 34.5 158.9 33.3 160.8 31.1V23.4H152.5V25.5H158.5V30.1C157 31.4 155.2 32.1 153.2 32.1C147.9 32.1 145.5 28.5 145.5 24.5C145.5 20.2 148.2 16.5 153.2 16.5C155.3 16.5 157.4 17.3 158.9 18.8L160.4 17.2V17.2ZM183 34.1H186L179.6 26.9C183.6 26.6 185.2 23.8 185.2 20.9C185.2 17.7 183 14.7 178.6 14.7H169.8V34.1H172.2V27.1H176.9L183 34.1V34.1ZM178.6 24.9H172.3V16.8H178.7C180.9 16.7 182.8 18.4 182.8 20.6V20.9C182.8 23.2 181.5 24.9 178.6 24.9V24.9ZM201 14.7L192.3 34.1H194.9L196.7 29.8H207.8L209.7 34.1H212.3L203.6 14.7H201V14.7ZM206.9 27.6H197.7L202.3 17.1L206.9 27.6ZM222.6 27.9H229C237.9 27.9 237.9 14.8 229 14.8H220.2V34.2H222.6V27.9ZM229.1 25.6H222.7V17H229.1C234.8 17 234.8 25.6 229.1 25.6ZM257.5 34.1H259.9V14.7H257.5V23.1H246.5V14.7H244V34.1H246.4V25.3H257.5V34.1Z" fill="black"/>
</g>
<defs>
<clipPath id="clip0_5754_281472">
<rect width="260" height="64" fill="white"/>
</clipPath>
</defs>
</svg>
