<svg width="126" height="41" viewBox="0 0 126 41" fill="none" xmlns="http://www.w3.org/2000/svg">
<g clip-path="url(#clip0_5754_281519)">
<path d="M90.5329 40.0502C90.0189 40.0502 89.526 39.846 89.1626 39.4826C88.7991 39.1191 88.5949 38.6262 88.5949 38.1122V1.93818C88.5945 1.61929 88.6728 1.30523 88.823 1.02391C88.9731 0.742581 89.1905 0.502704 89.4557 0.325588C89.7208 0.148471 90.0257 0.0396017 90.343 0.00865196C90.6604 -0.0222977 90.9805 0.0256311 91.2749 0.14818C91.6289 0.294887 91.9315 0.543235 92.1443 0.861839C92.3572 1.18044 92.4709 1.555 92.4709 1.93818V38.1122C92.4709 38.6262 92.2668 39.1191 91.9033 39.4826C91.5399 39.846 91.0469 40.0502 90.5329 40.0502ZM123.675 34.9742C123.882 34.7315 124.026 34.4414 124.093 34.1297C124.161 33.818 124.151 33.4944 124.064 33.1877C123.976 32.8809 123.815 32.6005 123.593 32.3713C123.371 32.1422 123.096 31.9714 122.792 31.8742C122.427 31.7564 122.035 31.7497 121.667 31.8549C121.298 31.9602 120.969 32.1726 120.721 32.4652C118.719 34.8222 115.721 36.1752 112.496 36.1752C107.154 36.1752 102.807 31.8282 102.807 26.4852C102.807 21.1422 107.154 16.7962 112.496 16.7962C116.838 16.7962 120.464 19.9162 121.252 24.0312H109.395C108.881 24.0312 108.388 24.2353 108.025 24.5987C107.662 24.962 107.457 25.4548 107.457 25.9687C107.457 26.4825 107.662 26.9753 108.025 27.3387C108.388 27.7021 108.881 27.9062 109.395 27.9062H123.348C123.862 27.9057 124.354 27.7018 124.718 27.3392C124.898 27.1596 125.041 26.946 125.139 26.7109C125.236 26.4758 125.286 26.2237 125.286 25.9692V25.7092C125.286 18.6572 119.548 12.9192 112.495 12.9192C105.015 12.9192 98.9299 19.0052 98.9299 26.4852C98.9299 33.9652 105.016 40.0502 112.496 40.0502C116.861 40.0502 120.935 38.2002 123.675 34.9742ZM82.1349 38.1122V25.7102C82.1349 18.6572 76.3979 12.9202 69.3449 12.9202C61.8649 12.9202 55.7799 19.0052 55.7799 26.4862C55.7799 33.9662 61.8649 40.0512 69.3459 40.0512C69.6041 40.057 69.8608 40.0113 70.101 39.9165C70.3412 39.8218 70.56 39.68 70.7447 39.4995C70.9293 39.319 71.076 39.1035 71.1762 38.8655C71.2764 38.6275 71.328 38.3719 71.328 38.1137C71.328 37.8555 71.2764 37.5999 71.1762 37.3619C71.076 37.1239 70.9293 36.9083 70.7447 36.7278C70.56 36.5473 70.3412 36.4056 70.101 36.3108C69.8608 36.2161 69.6041 36.1703 69.3459 36.1762C64.0029 36.1762 59.6559 31.8292 59.6559 26.4862C59.6559 21.1432 64.0029 16.7972 69.3459 16.7972C74.2609 16.7972 78.2599 20.7962 78.2599 25.7112V38.1142C78.2597 38.3688 78.3096 38.6209 78.4069 38.8561C78.5042 39.0914 78.647 39.3051 78.827 39.4851C79.007 39.6652 79.2207 39.8079 79.456 39.9052C79.6912 40.0025 79.9434 40.0524 80.1979 40.0522C80.4525 40.0522 80.7046 40.002 80.9398 39.9046C81.175 39.8071 81.3887 39.6643 81.5687 39.4842C81.7486 39.3041 81.8914 39.0904 81.9887 38.8551C82.086 38.6199 82.1361 38.3678 82.1359 38.1132L82.1349 38.1122ZM23.4759 32.3002C23.4759 30.4082 22.7819 27.8282 19.4719 26.2782C17.4859 25.3482 14.9939 24.9662 12.5849 24.5962C6.93894 23.7312 4.93494 23.0072 4.93494 20.6722C4.93494 18.1282 8.46194 16.7962 11.9479 16.7962C14.1439 16.7962 17.3009 17.2392 19.8679 19.3502C20.0645 19.5118 20.291 19.6332 20.5345 19.7073C20.778 19.7814 21.0337 19.8069 21.287 19.7822C21.5403 19.7575 21.7863 19.6831 22.0109 19.5634C22.2355 19.4436 22.4343 19.2808 22.5959 19.0842C22.7576 18.8876 22.8789 18.6611 22.9531 18.4176C23.0272 18.1741 23.0526 17.9184 23.0279 17.6651C23.0032 17.4118 22.9289 17.1658 22.8091 16.9412C22.6893 16.7166 22.5265 16.5178 22.3299 16.3562C18.8769 13.5162 14.7779 12.9192 11.9479 12.9192C4.46694 12.9192 1.05794 16.9382 1.05794 20.6712C1.05794 22.5752 1.75594 25.1712 5.07794 26.7332C7.07594 27.6722 9.57794 28.0552 11.9979 28.4262C17.6089 29.2862 19.6019 30.0012 19.6019 32.2982C19.6019 34.6172 16.8339 36.1742 12.7159 36.1742C8.49994 36.1742 5.28594 34.4642 3.74594 33.4452C3.31747 33.1847 2.80477 33.1004 2.31546 33.2099C1.82614 33.3194 1.39826 33.6141 1.12163 34.0323C0.84499 34.4505 0.741106 34.9596 0.83178 35.4528C0.922454 35.9459 1.20064 36.3847 1.60794 36.6772C4.89294 38.8532 8.83794 40.0512 12.7149 40.0512C20.1489 40.0512 23.4759 36.1582 23.4759 32.3002ZM51.5759 34.3312C51.8604 33.903 51.9631 33.3793 51.8614 32.8754C51.7598 32.3715 51.4621 31.9286 51.0339 31.6442C50.6057 31.3597 50.0821 31.257 49.5782 31.3587C49.0743 31.4603 48.6314 31.758 48.3469 32.1862C47.5346 33.4134 46.4308 34.4201 45.1342 35.1162C43.8376 35.8123 42.3886 36.1762 40.9169 36.1752C35.5749 36.1752 31.2289 31.8282 31.2289 26.4852C31.2289 21.1432 35.5749 16.7962 40.9179 16.7962C43.9099 16.7962 46.6879 18.2872 48.3479 20.7862C48.4888 20.9981 48.6701 21.1801 48.8814 21.322C49.0926 21.4638 49.3298 21.5626 49.5792 21.6128C49.8287 21.663 50.0856 21.6636 50.3353 21.6145C50.585 21.5654 50.8225 21.4676 51.0344 21.3267C51.2463 21.1858 51.4284 21.0045 51.5702 20.7932C51.7121 20.582 51.8109 20.3448 51.8611 20.0954C51.9113 19.8459 51.9118 19.589 51.8627 19.3393C51.8136 19.0896 51.7158 18.8521 51.5749 18.6402C50.4096 16.8803 48.8263 15.4368 46.9665 14.4386C45.1068 13.4404 43.0286 12.9187 40.9179 12.9202C33.4379 12.9202 27.3519 19.0052 27.3519 26.4862C27.3519 33.9662 33.4379 40.0512 40.9179 40.0512C43.0286 40.0527 45.1068 39.5311 46.9666 38.5329C48.8263 37.5347 50.4097 36.0911 51.5749 34.3312H51.5759Z" fill="url(#paint0_linear_5754_281519)"/>
</g>
<defs>
<linearGradient id="paint0_linear_5754_281519" x1="125.286" y1="26.8652" x2="0.737936" y2="25.5762" gradientUnits="userSpaceOnUse">
<stop stop-color="#A12AEA"/>
<stop offset="0.464" stop-color="#DA44D6"/>
<stop offset="1" stop-color="#FD9C54"/>
</linearGradient>
<clipPath id="clip0_5754_281519">
<rect width="126" height="41" fill="white"/>
</clipPath>
</defs>
</svg>
