<svg width="100" height="50" viewBox="0 0 100 50" fill="none" xmlns="http://www.w3.org/2000/svg">
<path fill-rule="evenodd" clip-rule="evenodd" d="M45.7 36.5564C45.7 37.0277 45.5127 37.4798 45.1794 37.8131C44.8461 38.1464 44.3941 38.3336 43.9227 38.3336C43.4514 38.3336 42.9994 38.1464 42.6661 37.8131C42.3328 37.4798 42.1455 37.0277 42.1455 36.5564V18.8736C42.1455 18.4022 42.3328 17.9502 42.6661 17.6169C42.9994 17.2836 43.4514 17.0964 43.9227 17.0964C44.3941 17.0964 44.8461 17.2836 45.1794 17.6169C45.5127 17.9502 45.7 18.4022 45.7 18.8736V36.5564Z" fill="#050505"/>
<path d="M30.3115 31.6338H36.828C37.3155 31.5895 37.7673 31.3592 38.0895 30.9906C38.4117 30.622 38.5795 30.1435 38.5582 29.6544C38.5582 29.6215 38.5582 29.5933 38.5582 29.5604C38.2432 23.0721 34.0728 22.1318 32.1828 22.1318C30.2175 22.1318 25.7697 23.2931 25.7697 30.5101C25.8026 33.2229 26.3856 38.4088 32.0887 38.4088C37.016 38.4088 38.1209 35.5596 38.1209 34.8356C38.1209 33.7636 37.2276 32.8562 36.2403 33.1994C35.4222 33.4768 34.3032 35.1036 32.479 35.1036C29.8931 35.1036 29.5592 32.7528 29.5592 32.2356C29.5498 31.7936 29.7755 31.6338 30.3115 31.6338V31.6338ZM29.5404 28.4555C29.658 26.0012 31.5198 25.5969 32.3614 25.5969C33.203 25.5969 35.0649 26.0059 35.1824 28.4978C35.1824 28.6294 35.1119 28.7094 35.0319 28.7094H29.6956C29.611 28.6859 29.531 28.5965 29.5404 28.432V28.4555Z" fill="#050505"/>
<path d="M15.7365 36.1238L10.1838 24.7459C9.97186 24.3095 9.94193 23.8067 10.1006 23.3482C10.2594 22.8897 10.5937 22.513 11.0301 22.301C11.4666 22.0891 11.9693 22.0591 12.4278 22.2178C12.8863 22.3766 13.263 22.7109 13.475 23.1473L17.777 31.9535L20.4193 23.4059C20.5627 22.9433 20.884 22.5566 21.3125 22.3309C21.741 22.1052 22.2417 22.0589 22.7043 22.2023C23.1669 22.3457 23.5536 22.667 23.7793 23.0955C24.005 23.5241 24.0513 24.0247 23.9079 24.4873C23.9079 24.4873 20.9365 34.2103 19.1498 39.7958C18.5574 41.6482 17.0106 42.5651 14.688 42.5039C12.3654 42.4428 12.0316 41.0935 12.2902 40.2049C12.5676 39.2222 13.3904 38.926 14.1708 38.926C16.2489 38.9401 16.5169 37.6801 15.7365 36.1238V36.1238Z" fill="#050505"/>
<path d="M63.2558 29.4947C63.2558 27.1439 62.969 23.9656 60.0211 22.5645C59.1929 22.1682 58.2826 21.9739 57.3647 21.9976C56.4469 22.0213 55.5478 22.2624 54.7412 22.7009C54.4295 22.8814 54.1281 23.0791 53.8385 23.2933C53.7346 22.8723 53.4805 22.5038 53.1238 22.2571C52.7672 22.0105 52.3327 21.9028 51.9021 21.9542C51.4716 22.0056 51.0747 22.2127 50.7862 22.5364C50.4977 22.8601 50.3375 23.2781 50.3358 23.7117V41.3946C50.3358 41.8659 50.523 42.318 50.8563 42.6512C51.1896 42.9845 51.6416 43.1718 52.113 43.1718C52.5843 43.1718 53.0364 42.9845 53.3697 42.6512C53.7029 42.318 53.8902 41.8659 53.8902 41.3946V36.7541C54.2812 37.1972 54.7556 37.559 55.2864 37.8187C55.8173 38.0785 56.394 38.2312 56.9839 38.268C63.7307 38.4419 63.2887 31.1027 63.2558 29.4947V29.4947ZM59.7343 30.8441C59.7343 32.2546 59.7343 34.77 57.1813 34.77C54.6283 34.77 54.6283 32.2452 54.6283 30.8441V29.5606C54.6283 28.1501 54.6283 25.6347 57.1813 25.6347C59.7343 25.6347 59.7343 28.1548 59.7343 29.5606V30.8441Z" fill="#050505"/>
<path fill-rule="evenodd" clip-rule="evenodd" d="M68.8555 20.9566L75.0616 23.9844C75.3292 24.1081 75.5512 24.3124 75.6967 24.5688C75.8421 24.8252 75.9036 25.1206 75.8724 25.4137C75.8413 25.7068 75.7192 25.9828 75.5231 26.2029C75.3271 26.423 75.0671 26.5761 74.7795 26.6409L68.0797 28.3099C67.8828 28.3611 67.6772 28.3692 67.4769 28.3335C67.2766 28.2977 67.0865 28.2191 66.9194 28.103C66.7524 27.9869 66.6125 27.836 66.5092 27.6607C66.406 27.4854 66.3419 27.2899 66.3213 27.0875C66.1133 25.2923 66.3043 23.4733 66.8808 21.7606C66.9458 21.5691 67.0512 21.3938 67.1899 21.2467C67.3285 21.0995 67.4972 20.9839 67.6845 20.9076C67.8718 20.8314 68.0733 20.7963 68.2753 20.8047C68.4774 20.8132 68.6752 20.865 68.8555 20.9566V20.9566Z" fill="#D32323"/>
<path fill-rule="evenodd" clip-rule="evenodd" d="M71.3379 33.7309L75.9596 28.6014C76.1519 28.3777 76.4096 28.2199 76.6963 28.1502C76.983 28.0806 77.2843 28.1026 77.5578 28.2131C77.8314 28.3237 78.0634 28.5172 78.2211 28.7665C78.3789 29.0158 78.4545 29.3083 78.4374 29.6029L78.2023 36.5049C78.1974 36.7083 78.1485 36.9083 78.059 37.091C77.9695 37.2738 77.8416 37.435 77.6839 37.5636C77.5262 37.6922 77.3426 37.7852 77.1456 37.8362C76.9486 37.8872 76.7429 37.8949 76.5426 37.8589C74.767 37.5625 73.0774 36.8821 71.5918 35.8655C71.4215 35.7524 71.2777 35.6036 71.1706 35.4295C71.0634 35.2553 70.9954 35.0599 70.9713 34.8569C70.9471 34.6539 70.9674 34.448 71.0307 34.2536C71.094 34.0591 71.1989 33.8808 71.3379 33.7309V33.7309Z" fill="#D32323"/>
<path fill-rule="evenodd" clip-rule="evenodd" d="M82.288 26.904L88.8703 29.0386C89.0642 29.0992 89.2428 29.2011 89.3937 29.3371C89.5446 29.4732 89.6644 29.6403 89.7447 29.8269C89.8251 30.0135 89.8642 30.2153 89.8593 30.4185C89.8545 30.6216 89.8058 30.8213 89.7166 31.0039C88.9417 32.6377 87.8183 34.082 86.4255 35.2353C86.2701 35.366 86.0883 35.4617 85.8925 35.5156C85.6967 35.5696 85.4916 35.5807 85.2912 35.5481C85.0908 35.5155 84.8997 35.44 84.7311 35.3268C84.5626 35.2136 84.4204 35.0653 84.3144 34.8921L80.6519 29.0339C80.482 28.7882 80.3946 28.495 80.4021 28.1964C80.4096 27.8979 80.5116 27.6094 80.6936 27.3725C80.8755 27.1357 81.1279 26.9627 81.4145 26.8785C81.701 26.7943 82.0069 26.8033 82.288 26.904V26.904Z" fill="#D32323"/>
<path fill-rule="evenodd" clip-rule="evenodd" d="M88.9643 22.7009L82.3303 24.6051C82.0486 24.6929 81.7464 24.6902 81.4663 24.5974C81.1862 24.5045 80.9423 24.3261 80.7689 24.0873C80.5956 23.8485 80.5014 23.5613 80.4998 23.2662C80.4982 22.9711 80.5892 22.683 80.76 22.4423L84.62 16.7157C84.7317 16.5463 84.8787 16.4029 85.0509 16.2955C85.2231 16.188 85.4164 16.119 85.6177 16.0931C85.819 16.0672 86.0235 16.0851 86.2173 16.1455C86.4111 16.2059 86.5895 16.3074 86.7405 16.443C88.0922 17.6339 89.1632 19.1095 89.8764 20.7638C89.9597 20.9494 90.0018 21.1507 89.9999 21.3541C89.9981 21.5575 89.9522 21.758 89.8656 21.942C89.779 22.126 89.6536 22.2891 89.498 22.4201C89.3424 22.5511 89.1604 22.6468 88.9643 22.7009V22.7009Z" fill="#D32323"/>
<path fill-rule="evenodd" clip-rule="evenodd" d="M73.4584 6.61182C72.2862 6.92545 71.1453 7.34565 70.0497 7.86715C69.8712 7.9505 69.7122 8.07031 69.5828 8.21887C69.4534 8.36742 69.3566 8.54142 69.2986 8.72967C69.2406 8.91791 69.2226 9.11621 69.2459 9.31182C69.2692 9.50742 69.3332 9.69597 69.4338 9.86534L75.9173 21.0975C76.0666 21.3798 76.3072 21.603 76.5999 21.7308C76.8925 21.8585 77.2198 21.8832 77.5283 21.8007C77.8368 21.7183 78.1082 21.5336 78.2981 21.2769C78.488 21.0202 78.5852 20.7067 78.5737 20.3876V7.4158C78.5745 7.21982 78.5344 7.02584 78.456 6.84622C78.3776 6.66661 78.2626 6.5053 78.1184 6.37259C77.9742 6.23989 77.8039 6.13868 77.6184 6.07544C77.4329 6.01221 77.2362 5.98832 77.041 6.00531C75.8308 6.09789 74.6316 6.3009 73.4584 6.61182V6.61182Z" fill="#D32323"/>
</svg>
