<?xml version="1.0" encoding="utf-8"?>
<!-- Generator: Adobe Illustrator 16.0.0, SVG Export Plug-In . SVG Version: 6.00 Build 0)  -->
<!DOCTYPE svg PUBLIC "-//W3C//DTD SVG 1.1//EN" "http://www.w3.org/Graphics/SVG/1.1/DTD/svg11.dtd">
<svg version="1.1" id="Livello_1" xmlns="http://www.w3.org/2000/svg" xmlns:xlink="http://www.w3.org/1999/xlink" x="0px" y="0px"
	 width="76.854px" height="25.135px" viewBox="0 0 76.854 25.135" enable-background="new 0 0 76.854 25.135" xml:space="preserve">
<path fill-rule="evenodd" clip-rule="evenodd" fill="#FFFFFF" d="M16.787,19.428h4.917c0-3.638,0.005-7.235-0.013-10.833
	c-0.001-0.219-0.137-0.479-0.289-0.649c-0.731-0.814-1.788-0.844-2.736-0.896C17.548,6.99,16.399,7.16,15.46,7.94
	c-0.065,0.054-0.284-0.042-0.413-0.105c-0.367-0.177-0.706-0.438-1.089-0.55c-1.053-0.307-2.125-0.299-3.191-0.033
	c-0.219,0.054-0.432,0.137-0.645,0.215c-0.38,0.139-0.759,0.286-1.165,0.439C8.944,7.758,8.918,7.672,8.93,7.591
	C9,7.097,8.766,6.999,8.312,7.01C7.085,7.04,5.857,7.022,4.629,7.014C4.23,7.011,4.035,7.173,4.035,7.585
	c0.004,3.803,0.006,7.606-0.003,11.409c-0.001,0.363,0.134,0.479,0.48,0.473c0.938-0.013,1.875-0.004,2.813-0.004
	c0.522,0,1.044,0,1.603,0v-0.78v-7.624c0-0.893,0-0.893,0.913-0.891c0.693,0,0.696,0,0.696,0.712c0.001,2.66,0,5.32,0,7.98v0.577
	h4.894v-0.573c-0.001-2.507-0.016-5.014,0.003-7.521c0.01-1.347-0.286-1.183,1.233-1.16c0.027,0,0.054,0.035,0.119,0.078V19.428z"/>
<path fill-rule="evenodd" clip-rule="evenodd" fill="#FFFFFF" d="M72.673,10.658c0-0.702,0.013-1.348-0.004-1.991
	c-0.021-0.825-0.735-1.471-1.464-1.473c-2.746-0.007-5.491-0.01-8.236-0.004c-0.864,0.002-1.567,0.788-1.549,1.616
	c0.032,1.449-0.004,2.899,0.021,4.348c0.004,0.259,0.118,0.55,0.266,0.769c0.532,0.787,1.439,0.831,2.231,0.904
	c1.229,0.113,2.477,0.03,3.72,0.03v1.566h-1.239c0.096-0.658-0.25-0.729-0.754-0.718c-1.261,0.029-2.523,0.02-3.785,0.007
	c-0.329-0.003-0.466,0.107-0.455,0.441c0.016,0.478,0.032,0.957-0.002,1.433c-0.083,1.165,0.776,1.863,1.862,1.852
	c2.336-0.025,4.672-0.007,7.009-0.012c0.373-0.001,0.748-0.02,1.119-0.057c0.415-0.041,1.178-0.629,1.186-1.14
	c0.023-1.564,0.093-3.131,0.04-4.694c-0.031-0.938-0.786-1.555-1.662-1.635c-1.301-0.119-2.617-0.079-3.927-0.105
	c-0.195-0.004-0.392-0.001-0.581-0.001V9.978h1.258c0.023,0.239,0.044,0.451,0.067,0.68H72.673z"/>
<path fill-rule="evenodd" clip-rule="evenodd" fill="#FFFFFF" d="M53.826,2.986h-0.7c-7.641,0-15.282,0-22.924,0.001
	C22.1,2.987,13.999,2.983,5.897,3c-0.604,0-1.247,0.06-1.803,0.272c-0.903,0.344-1.76,0.802-2.507,1.461
	c-0.94,0.828-1.593,1.746-1.585,3.068C0.023,11.468,0.022,15.137,0,18.804c-0.006,0.922,0.266,1.719,0.873,2.379
	c1.426,1.553,3.174,2.461,5.319,2.477c2.081,0.015,4.162,0.005,6.243,0.003c0.147,0,0.294-0.017,0.424-0.025v-0.804
	c-2.037,0-4.032,0.024-6.026-0.014c-0.667-0.013-1.337-0.152-1.993-0.294c-0.314-0.068-0.634-0.228-0.892-0.425
	c-1.123-0.862-1.77-1.993-1.772-3.437c-0.006-3.582-0.005-7.165,0-10.747c0.001-1.156,0.421-2.174,1.238-2.963
	c0.881-0.852,2.034-1.129,3.229-1.129C22.061,3.816,37.48,3.819,52.899,3.819h0.927V2.986z"/>
<path fill-rule="evenodd" clip-rule="evenodd" fill="#FFFFFF" d="M63.91,23.664c2.162,0,4.275-0.03,6.388,0.011
	c1.438,0.027,2.729-0.373,3.943-1.096c0.739-0.44,1.357-0.999,1.889-1.689c0.632-0.82,0.723-1.742,0.721-2.713
	c-0.003-3.36,0.01-6.722-0.005-10.083c-0.002-0.488-0.007-1.023-0.197-1.455c-0.392-0.888-0.991-1.654-1.81-2.217
	c-1.29-0.889-2.664-1.47-4.282-1.447c-2.934,0.042-5.869,0.011-8.803,0.013c-0.165,0-0.33,0.015-0.493,0.022v0.81h0.49
	c2.047,0,4.095-0.021,6.141,0.008c1.165,0.017,2.329,0.11,3.492,0.178c0.809,0.047,1.465,0.452,2.012,0.997
	c0.863,0.858,1.242,1.931,1.24,3.149c-0.007,3.224-0.014,6.449,0.006,9.673c0.006,1.019-0.08,1.987-0.577,2.913
	c-0.48,0.897-1.208,1.516-2.134,1.773c-0.847,0.236-1.76,0.285-2.647,0.31c-1.602,0.045-3.206,0.011-4.81,0.01H63.91V23.664z"/>
<path fill-rule="evenodd" clip-rule="evenodd" fill="#FFFFFF" d="M16.787,19.428v-9.166c-0.065-0.043-0.092-0.078-0.119-0.078
	c-1.519-0.023-1.223-0.187-1.233,1.16c-0.02,2.507-0.004,5.014-0.003,7.521v0.573h-4.894V18.86c0-2.659,0.001-5.32,0-7.98
	c0-0.711-0.003-0.711-0.696-0.712c-0.913-0.001-0.913-0.001-0.913,0.891v7.624v0.78c-0.558,0-1.08,0-1.603,0
	c-0.938,0-1.875-0.009-2.813,0.004c-0.346,0.006-0.481-0.109-0.48-0.473c0.009-3.803,0.007-7.606,0.003-11.409
	c0-0.412,0.195-0.574,0.595-0.571C5.857,7.023,7.085,7.04,8.312,7.01C8.766,6.999,9,7.097,8.93,7.591
	C8.918,7.672,8.944,7.758,8.958,7.906c0.406-0.154,0.785-0.3,1.165-0.439c0.213-0.078,0.426-0.16,0.645-0.215
	c1.065-0.265,2.138-0.273,3.191,0.033c0.383,0.112,0.722,0.373,1.089,0.55c0.129,0.063,0.347,0.159,0.413,0.105
	c0.938-0.78,2.087-0.95,3.206-0.89c0.948,0.052,2.005,0.082,2.736,0.896c0.152,0.17,0.288,0.43,0.289,0.649
	c0.018,3.596,0.013,7.195,0.013,10.833H16.787z"/>
<path fill-rule="evenodd" clip-rule="evenodd" fill="#FFFFFF" d="M55.102,9.319V0.004h2.937c0.495,0,0.989,0.008,1.484-0.003
	c0.3-0.006,0.45,0.11,0.435,0.419c-0.006,0.119,0,0.239,0,0.358c0,6.004,0,12.01,0,18.015c0,0.674-0.001,0.676-0.682,0.674
	c-2.934-0.011-5.867-0.045-8.8-0.021c-1.145,0.01-1.886-0.964-1.861-1.881c0.058-2.113,0.059-4.231,0.001-6.346
	c-0.026-0.961,0.756-1.92,1.87-1.891c1.415,0.037,2.831,0.009,4.248,0.008C54.832,9.337,54.931,9.327,55.102,9.319 M53.747,14.435
	h-0.013c0,0.492-0.015,0.986,0.004,1.478c0.012,0.312-0.021,0.664,0.472,0.678c0.66,0.018,0.909-0.081,0.925-0.621
	c0.032-1.136,0.002-2.273-0.039-3.41c-0.021-0.581-0.505-0.339-0.818-0.39c-0.34-0.054-0.522,0.094-0.527,0.432
	C53.74,13.211,53.747,13.823,53.747,14.435"/>
<path fill-rule="evenodd" clip-rule="evenodd" fill="#FFFFFF" d="M34.504,13.286c0,1.365-0.025,2.73,0.009,4.095
	c0.022,0.849-0.306,1.486-1.013,1.9c-0.243,0.142-0.589,0.144-0.889,0.145c-2.49,0.012-4.981-0.009-7.471,0.018
	c-1.311,0.014-1.975-0.749-1.986-1.981c-0.024-2.679-0.021-5.357,0.004-8.036c0.004-0.487,0.149-0.976,0.262-1.457
	c0.112-0.478,0.582-0.552,0.941-0.714c0.204-0.092,0.468-0.068,0.705-0.069c2.508-0.004,5.016,0.029,7.522-0.017
	c1.103-0.021,1.959,0.771,1.924,1.92C34.471,10.488,34.504,11.887,34.504,13.286 M28.26,13.254c0,0.868-0.005,1.736,0.002,2.604
	c0.003,0.414,0.045,0.778,0.634,0.737c0.559-0.039,0.791-0.196,0.793-0.737c0.009-1.754,0.002-3.508,0.005-5.261
	c0-0.477-0.263-0.592-0.69-0.591c-0.43,0.001-0.771,0.005-0.751,0.591C28.282,11.482,28.261,12.368,28.26,13.254"/>
<path fill-rule="evenodd" clip-rule="evenodd" fill="#FFFFFF" d="M47.194,13.273c0,1.433-0.039,2.867,0.013,4.298
	c0.04,1.112-0.767,1.884-1.887,1.869c-2.473-0.033-4.945-0.008-7.419-0.003c-1.338,0.002-1.957-0.604-1.958-1.937
	c-0.002-2.849,0.026-5.697-0.014-8.545c-0.015-1.063,0.769-1.796,1.762-1.783c2.575,0.034,5.15,0.032,7.726,0.001
	c1.065-0.013,1.834,0.763,1.792,1.802C47.15,10.406,47.194,11.84,47.194,13.273 M42.388,13.227c0-0.852,0-1.702,0-2.554
	c0-0.417-0.075-0.713-0.626-0.672c-0.699,0.052-0.807,0.091-0.809,0.678c-0.006,1.702-0.005,3.404,0,5.107
	c0.002,0.619,0.165,0.794,0.705,0.801c0.594,0.007,0.719-0.11,0.728-0.755C42.396,14.964,42.388,14.095,42.388,13.227"/>
<path fill-rule="evenodd" clip-rule="evenodd" fill="#FFFFFF" d="M72.673,10.658h-4.88c-0.022-0.229-0.043-0.441-0.066-0.68h-1.258
	v1.816c0.189,0,0.386-0.003,0.582,0.001c1.309,0.026,2.625-0.014,3.926,0.105c0.876,0.08,1.631,0.697,1.662,1.635
	c0.053,1.563-0.017,3.13-0.04,4.694c-0.008,0.511-0.771,1.099-1.186,1.14c-0.371,0.038-0.746,0.056-1.119,0.057
	c-2.337,0.005-4.673-0.014-7.009,0.012c-1.086,0.012-1.945-0.686-1.862-1.852c0.034-0.476,0.018-0.955,0.002-1.433
	c-0.011-0.334,0.125-0.444,0.455-0.441c1.262,0.013,2.523,0.022,3.785-0.007c0.504-0.012,0.851,0.06,0.754,0.718h1.239v-1.566
	c-1.243,0-2.49,0.083-3.72-0.03c-0.792-0.073-1.699-0.117-2.23-0.904c-0.148-0.219-0.263-0.51-0.267-0.769
	c-0.025-1.449,0.012-2.899-0.021-4.348c-0.019-0.828,0.685-1.614,1.549-1.616c2.745-0.005,5.49-0.003,8.236,0.004
	c0.729,0.002,1.443,0.647,1.464,1.473C72.686,9.31,72.673,9.956,72.673,10.658"/>
<path fill-rule="evenodd" clip-rule="evenodd" fill="#FFFFFF" d="M53.825,2.986V3.82h-0.926c-15.419,0-30.839-0.003-46.258,0.006
	c-1.195,0-2.347,0.278-3.229,1.129C2.596,5.744,2.176,6.762,2.175,7.918c-0.004,3.582-0.005,7.164,0,10.746
	c0.002,1.443,0.649,2.574,1.772,3.438c0.257,0.196,0.578,0.355,0.892,0.424c0.656,0.142,1.326,0.281,1.994,0.294
	c1.993,0.038,3.988,0.014,6.025,0.014v0.804c-0.13,0.009-0.277,0.025-0.424,0.025c-2.081,0.002-4.162,0.012-6.242-0.003
	c-2.145-0.016-3.893-0.924-5.319-2.477C0.266,20.522-0.006,19.726,0,18.804c0.022-3.667,0.023-7.335,0.002-11.002
	c-0.008-1.322,0.645-2.24,1.585-3.068c0.747-0.658,1.604-1.116,2.507-1.46C4.65,3.061,5.292,3.001,5.897,3
	C13.999,2.983,22.1,2.987,30.202,2.987c7.642,0,15.283,0,22.924,0H53.825z"/>
<path fill-rule="evenodd" clip-rule="evenodd" fill="#FFFFFF" d="M63.91,23.664V22.83h0.563c1.604,0.001,3.208,0.035,4.81-0.01
	c0.888-0.024,1.801-0.073,2.647-0.31c0.926-0.258,1.653-0.876,2.134-1.773c0.497-0.926,0.583-1.895,0.577-2.913
	c-0.02-3.224-0.013-6.449-0.006-9.673c0.002-1.218-0.377-2.291-1.24-3.149c-0.547-0.544-1.203-0.95-2.012-0.997
	c-1.163-0.068-2.327-0.162-3.492-0.178c-2.046-0.029-4.094-0.008-6.141-0.008h-0.49V3.01c0.163-0.008,0.328-0.022,0.493-0.022
	c2.934-0.001,5.869,0.029,8.803-0.013c1.618-0.023,2.992,0.559,4.282,1.447c0.818,0.563,1.418,1.329,1.81,2.217
	c0.19,0.431,0.195,0.966,0.197,1.455c0.015,3.36,0.002,6.722,0.005,10.082c0.002,0.971-0.089,1.893-0.721,2.713
	c-0.53,0.69-1.149,1.249-1.889,1.689c-1.215,0.723-2.506,1.123-3.943,1.096C68.186,23.634,66.072,23.664,63.91,23.664"/>
<g>
	<path fill="#FFFFFF" d="M14.596,21.91h1.549v0.471h-1.034v0.494h0.925v0.475h-0.925v0.57h1.062v0.471h-1.577V21.91z"/>
	<path fill="#FFFFFF" d="M17.132,22.223v-0.398h0.969v2.17h0.573v0.396h-1.668v-0.396h0.59v-1.771H17.132z"/>
	<path fill="#FFFFFF" d="M20.444,23.875h0.538c-0.075,0.203-0.177,0.352-0.308,0.445c-0.131,0.092-0.303,0.139-0.516,0.139
		c-0.255,0-0.458-0.092-0.608-0.275C19.4,24,19.325,23.748,19.325,23.43s0.076-0.568,0.228-0.752s0.358-0.275,0.618-0.275
		c0.278,0,0.491,0.09,0.637,0.27c0.147,0.182,0.22,0.443,0.22,0.785c0,0.035,0,0.062-0.001,0.08c0,0.02-0.001,0.035-0.002,0.049
		h-1.198c0.013,0.145,0.051,0.256,0.113,0.336c0.063,0.078,0.145,0.119,0.245,0.119c0.058,0,0.11-0.016,0.155-0.043
		C20.384,23.969,20.419,23.928,20.444,23.875z M20.502,23.217c-0.006-0.125-0.038-0.223-0.096-0.291
		c-0.059-0.07-0.137-0.105-0.236-0.105c-0.092,0-0.169,0.037-0.231,0.111c-0.062,0.072-0.097,0.168-0.103,0.285H20.502z"/>
	<path fill="#FFFFFF" d="M22.892,23.705h0.501c-0.017,0.234-0.098,0.42-0.244,0.553c-0.146,0.135-0.34,0.201-0.583,0.201
		c-0.254,0-0.456-0.092-0.605-0.279c-0.149-0.186-0.224-0.434-0.224-0.744c0-0.314,0.078-0.566,0.233-0.754
		c0.156-0.186,0.365-0.279,0.628-0.279c0.233,0,0.419,0.062,0.56,0.186c0.14,0.125,0.218,0.299,0.235,0.52H22.89
		c-0.011-0.088-0.042-0.156-0.095-0.205c-0.053-0.049-0.122-0.074-0.207-0.074c-0.107,0-0.19,0.051-0.249,0.154
		c-0.059,0.105-0.088,0.252-0.088,0.443c0,0.193,0.029,0.342,0.087,0.445s0.142,0.154,0.25,0.154c0.08,0,0.149-0.029,0.206-0.09
		C22.851,23.877,22.883,23.799,22.892,23.705z"/>
	<path fill="#FFFFFF" d="M25.697,22.535v0.398h-0.613v0.674c0,0.164,0.029,0.279,0.087,0.344c0.058,0.064,0.154,0.096,0.288,0.096
		c0.045,0,0.087-0.002,0.125-0.004c0.039-0.002,0.076-0.006,0.112-0.01l-0.001,0.408c-0.091,0.006-0.169,0.01-0.234,0.014
		c-0.065,0.002-0.123,0.004-0.173,0.004c-0.262,0-0.445-0.049-0.55-0.146c-0.105-0.096-0.157-0.271-0.157-0.521v-0.857h-0.48v-0.398
		h0.48v-0.561h0.503v0.561H25.697z"/>
	<path fill="#FFFFFF" d="M26.612,22.471h0.515v0.326c0.057-0.133,0.131-0.232,0.223-0.295c0.092-0.064,0.203-0.098,0.334-0.098
		c0.178,0,0.31,0.059,0.393,0.172c0.084,0.113,0.126,0.291,0.126,0.531v0.031h-0.498v-0.01c0-0.102-0.021-0.18-0.063-0.232
		s-0.104-0.078-0.186-0.078c-0.118,0-0.202,0.043-0.252,0.131c-0.051,0.09-0.076,0.244-0.076,0.465v0.977h-0.515V22.471z"/>
	<path fill="#FFFFFF" d="M28.876,23.432c0-0.322,0.075-0.576,0.225-0.758s0.357-0.271,0.623-0.271c0.269,0,0.479,0.09,0.63,0.271
		c0.151,0.18,0.226,0.434,0.226,0.758s-0.075,0.576-0.225,0.758c-0.149,0.18-0.359,0.27-0.628,0.27c-0.268,0-0.477-0.09-0.626-0.27
		S28.876,23.758,28.876,23.432z M29.727,22.828c-0.106,0-0.188,0.051-0.249,0.154s-0.09,0.248-0.09,0.432
		c0,0.201,0.029,0.354,0.087,0.459c0.058,0.104,0.142,0.156,0.252,0.156c0.11,0,0.194-0.051,0.252-0.154
		c0.059-0.105,0.088-0.254,0.088-0.445c0-0.193-0.029-0.342-0.088-0.447C29.921,22.879,29.837,22.828,29.727,22.828z"/>
	<path fill="#FFFFFF" d="M31.331,22.471h0.512v0.293c0.062-0.127,0.134-0.217,0.218-0.273s0.188-0.086,0.314-0.086
		c0.201,0,0.343,0.055,0.424,0.16c0.082,0.107,0.122,0.326,0.122,0.66v1.166H32.41v-1.068c0-0.213-0.018-0.346-0.052-0.4
		c-0.035-0.057-0.096-0.084-0.184-0.084c-0.12,0-0.205,0.045-0.256,0.135c-0.05,0.09-0.076,0.244-0.076,0.463v0.955h-0.512V22.471z"
		/>
	<path fill="#FFFFFF" d="M35.404,23.994v0.396h-1.667v-0.396h0.611v-1.061h-0.464v-0.398h0.969v1.459H35.404z M34.349,21.824h0.505
		v0.484h-0.505V21.824z"/>
	<path fill="#FFFFFF" d="M37.25,23.705h0.502c-0.017,0.234-0.098,0.42-0.244,0.553c-0.146,0.135-0.34,0.201-0.582,0.201
		c-0.254,0-0.456-0.092-0.605-0.279c-0.149-0.186-0.224-0.434-0.224-0.744c0-0.314,0.078-0.566,0.233-0.754
		c0.156-0.186,0.365-0.279,0.628-0.279c0.233,0,0.42,0.062,0.561,0.186c0.14,0.125,0.218,0.299,0.234,0.52h-0.503
		c-0.011-0.088-0.042-0.156-0.095-0.205c-0.053-0.049-0.122-0.074-0.207-0.074c-0.107,0-0.19,0.051-0.249,0.154
		c-0.059,0.105-0.088,0.252-0.088,0.443c0,0.193,0.029,0.342,0.087,0.445s0.142,0.154,0.25,0.154c0.08,0,0.149-0.029,0.206-0.09
		C37.21,23.877,37.242,23.799,37.25,23.705z"/>
	<path fill="#FFFFFF" d="M40.928,21.91h0.863c0.253,0,0.441,0.062,0.566,0.188s0.188,0.312,0.188,0.566
		c0,0.164-0.026,0.303-0.077,0.41c-0.052,0.109-0.132,0.197-0.241,0.266c-0.06,0.035-0.129,0.062-0.209,0.076
		c-0.079,0.016-0.21,0.023-0.392,0.023H41.45v0.951h-0.522V21.91z M41.679,22.381H41.45v0.586h0.215c0.128,0,0.218-0.021,0.27-0.066
		c0.052-0.047,0.078-0.121,0.078-0.227s-0.024-0.182-0.073-0.227S41.804,22.381,41.679,22.381z"/>
	<path fill="#FFFFFF" d="M44.889,24.391h-0.512v-0.293c-0.062,0.125-0.135,0.217-0.22,0.273c-0.084,0.057-0.19,0.084-0.316,0.084
		c-0.202,0-0.344-0.053-0.425-0.158c-0.082-0.107-0.122-0.328-0.122-0.66v-1.166h0.512v1.041c0,0.227,0.018,0.369,0.053,0.426
		c0.036,0.057,0.098,0.086,0.187,0.086c0.12,0,0.205-0.045,0.256-0.135s0.076-0.244,0.076-0.463v-0.955h0.512V24.391z"/>
	<path fill="#FFFFFF" d="M46.952,22.967v-0.023c0-0.047-0.01-0.082-0.029-0.104s-0.05-0.033-0.089-0.033
		c-0.047,0-0.083,0.016-0.11,0.047c-0.026,0.031-0.04,0.074-0.04,0.129v1.408H46.28v-1.447c0-0.049-0.01-0.082-0.028-0.104
		s-0.048-0.033-0.087-0.033c-0.048,0-0.086,0.016-0.113,0.047s-0.041,0.074-0.041,0.129v1.408h-0.403v-1.92h0.369v0.203
		c0.03-0.088,0.071-0.154,0.124-0.201c0.052-0.047,0.112-0.07,0.18-0.07c0.077,0,0.143,0.023,0.198,0.074
		c0.055,0.049,0.093,0.117,0.112,0.205c0.053-0.096,0.109-0.166,0.171-0.211c0.061-0.047,0.128-0.068,0.201-0.068
		c0.141,0,0.242,0.047,0.303,0.145c0.061,0.096,0.091,0.27,0.091,0.518v1.326h-0.404V22.967z"/>
	<path fill="#FFFFFF" d="M48.073,22.467h0.512v0.297c0.067-0.129,0.139-0.223,0.215-0.277c0.077-0.057,0.17-0.084,0.281-0.084
		c0.204,0,0.368,0.092,0.491,0.277s0.185,0.436,0.185,0.75c0,0.312-0.062,0.564-0.185,0.75s-0.287,0.279-0.491,0.279
		c-0.111,0-0.205-0.027-0.282-0.086c-0.078-0.057-0.149-0.15-0.214-0.279v1.041h-0.512V22.467z M48.909,22.832
		c-0.11,0-0.196,0.051-0.258,0.152c-0.062,0.102-0.093,0.246-0.093,0.43c0,0.199,0.029,0.352,0.09,0.457
		c0.06,0.105,0.146,0.158,0.261,0.158c0.106,0,0.188-0.053,0.247-0.158c0.06-0.105,0.089-0.252,0.089-0.441
		c0-0.191-0.029-0.338-0.089-0.441C49.098,22.883,49.016,22.832,48.909,22.832z"/>
	<path fill="#FFFFFF" d="M52.829,21.91h0.91c0.246,0,0.433,0.061,0.562,0.182s0.193,0.299,0.193,0.531
		c0,0.162-0.027,0.291-0.081,0.391s-0.138,0.178-0.253,0.234c0.091,0.027,0.156,0.07,0.195,0.127c0.04,0.059,0.065,0.168,0.077,0.33
		l0.024,0.332c0.007,0.092,0.019,0.156,0.035,0.195s0.042,0.07,0.077,0.09v0.068h-0.57c-0.016-0.029-0.029-0.068-0.039-0.117
		s-0.019-0.123-0.025-0.219l-0.018-0.252c-0.012-0.164-0.045-0.271-0.1-0.32c-0.056-0.051-0.153-0.074-0.293-0.074H53.43h-0.078
		v0.982h-0.522V21.91z M53.352,22.381v0.553h0.259c0.131,0,0.221-0.021,0.27-0.064c0.048-0.043,0.072-0.117,0.072-0.223
		c0-0.096-0.023-0.164-0.071-0.205s-0.132-0.061-0.253-0.061H53.352z"/>
	<path fill="#FFFFFF" d="M55.202,23.432c0-0.322,0.074-0.576,0.225-0.758c0.149-0.182,0.356-0.271,0.622-0.271
		c0.27,0,0.479,0.09,0.63,0.271c0.15,0.18,0.227,0.434,0.227,0.758s-0.075,0.576-0.225,0.758c-0.15,0.18-0.359,0.27-0.628,0.27
		s-0.477-0.09-0.626-0.27C55.276,24.01,55.202,23.758,55.202,23.432z M56.053,22.828c-0.106,0-0.189,0.051-0.249,0.154
		c-0.061,0.104-0.09,0.248-0.09,0.432c0,0.201,0.028,0.354,0.086,0.459c0.058,0.104,0.142,0.156,0.253,0.156
		c0.109,0,0.193-0.051,0.252-0.154c0.059-0.105,0.088-0.254,0.088-0.445c0-0.193-0.029-0.342-0.088-0.447
		C56.246,22.879,56.162,22.828,56.053,22.828z"/>
	<path fill="#FFFFFF" d="M58.789,23.705h0.501c-0.016,0.234-0.098,0.42-0.243,0.553c-0.146,0.135-0.341,0.201-0.583,0.201
		c-0.254,0-0.455-0.092-0.604-0.279c-0.15-0.186-0.225-0.434-0.225-0.744c0-0.314,0.077-0.566,0.233-0.754
		c0.155-0.186,0.364-0.279,0.628-0.279c0.232,0,0.419,0.062,0.56,0.186c0.14,0.125,0.219,0.299,0.234,0.52h-0.503
		c-0.01-0.088-0.042-0.156-0.095-0.205s-0.122-0.074-0.207-0.074c-0.107,0-0.19,0.051-0.249,0.154
		c-0.059,0.105-0.088,0.252-0.088,0.443c0,0.193,0.028,0.342,0.087,0.445s0.142,0.154,0.25,0.154c0.08,0,0.148-0.029,0.206-0.09
		C58.748,23.877,58.781,23.799,58.789,23.705z"/>
	<path fill="#FFFFFF" d="M60.081,21.824h0.494v1.211l0.561-0.564h0.616l-0.716,0.711l0.74,1.209h-0.554L60.708,23.5l-0.133,0.141
		v0.75h-0.494V21.824z"/>
</g>
</svg>
