<?xml version="1.0" encoding="utf-8"?>
<!-- Generator: Adobe Illustrator 16.0.0, SVG Export Plug-In . SVG Version: 6.00 Build 0)  -->
<!DOCTYPE svg PUBLIC "-//W3C//DTD SVG 1.1//EN" "http://www.w3.org/Graphics/SVG/1.1/DTD/svg11.dtd">
<svg version="1.1" id="Capa_1" xmlns="http://www.w3.org/2000/svg" xmlns:xlink="http://www.w3.org/1999/xlink" x="0px" y="0px"
	 width="78.862px" height="103.859px" viewBox="53.798 169.592 78.862 103.859"
	 enable-background="new 53.798 169.592 78.862 103.859" xml:space="preserve">
<g>
	<g>
		<path fill="#fff" stroke="#fff" stroke-miterlimit="10" d="M57.24,272.952c-0.444,0-0.885-0.098-1.292-0.297
			c-1.011-0.49-1.65-1.521-1.65-2.645v-96.973c0-1.129,0.64-2.155,1.65-2.646c1.006-0.494,2.212-0.37,3.097,0.327l62.183,48.501
			c0.717,0.559,1.133,1.412,1.133,2.315c0,0.904-0.416,1.759-1.133,2.315l-62.183,48.486
			C58.517,272.743,57.882,272.952,57.24,272.952z M60.178,179.058V264l54.459-42.463L60.178,179.058z"/>
	</g>
	<g>
		<path fill="#fff" stroke="#fff" stroke-miterlimit="10" d="M129.219,272.952c-1.621,0-2.941-1.315-2.941-2.941v-96.973
			c0-1.626,1.32-2.941,2.941-2.941c1.624,0,2.941,1.315,2.941,2.941v96.977C132.16,271.64,130.846,272.952,129.219,272.952z"/>
	</g>
</g>
</svg>
