<?xml version="1.0" encoding="utf-8"?>
<!-- Generator: Adobe Illustrator 16.0.0, SVG Export Plug-In . SVG Version: 6.00 Build 0)  -->
<!DOCTYPE svg PUBLIC "-//W3C//DTD SVG 1.1//EN" "http://www.w3.org/Graphics/SVG/1.1/DTD/svg11.dtd">
<svg version="1.1" id="Capa_1" xmlns="http://www.w3.org/2000/svg" xmlns:xlink="http://www.w3.org/1999/xlink" x="0px" y="0px"
	 width="78.862px" height="103.859px" viewBox="53.798 169.592 78.862 103.859"
	 enable-background="new 53.798 169.592 78.862 103.859" xml:space="preserve">
<path stroke="#fff" fill="#fff" stroke-miterlimit="10" d="M121.881,221.521c0-0.138-0.051-0.257-0.148-0.355l-52.092-52.092
	c-0.098-0.098-0.22-0.148-0.359-0.148s-0.261,0.05-0.359,0.149l-4.195,4.195c-0.099,0.099-0.148,0.22-0.148,0.36
	c0,0.14,0.049,0.26,0.146,0.357l47.533,47.536L64.727,269.05c-0.199,0.199-0.2,0.523-0.002,0.721l4.197,4.197
	c0.202,0.201,0.519,0.2,0.718,0.001l52.09-52.091C121.83,221.777,121.881,221.659,121.881,221.521z"/>
</svg>
