<?xml version="1.0" encoding="utf-8"?>
<!-- Generator: Adobe Illustrator 16.0.0, SVG Export Plug-In . SVG Version: 6.00 Build 0)  -->
<!DOCTYPE svg PUBLIC "-//W3C//DTD SVG 1.1//EN" "http://www.w3.org/Graphics/SVG/1.1/DTD/svg11.dtd">
<svg version="1.1" id="Capa_1" xmlns="http://www.w3.org/2000/svg" xmlns:xlink="http://www.w3.org/1999/xlink" x="0px" y="0px"
	 width="78.862px" height="103.859px" viewBox="53.798 169.592 78.862 103.859"
	 enable-background="new 53.798 169.592 78.862 103.859" xml:space="preserve">
<g>
	<g>
		<path fill="#fff" stroke="#fff" stroke-miterlimit="10" d="M129.219,170.092c0.444,0,0.884,0.097,1.291,0.296
			c1.012,0.49,1.65,1.522,1.65,2.645v96.974c0,1.129-0.639,2.155-1.65,2.646c-1.004,0.494-2.211,0.37-3.096-0.326L65.23,223.825
			c-0.716-0.558-1.133-1.412-1.133-2.316c0-0.904,0.417-1.759,1.133-2.316l62.183-48.486
			C127.942,170.301,128.576,170.092,129.219,170.092z M126.281,263.985v-84.942l-54.459,42.462L126.281,263.985z"/>
	</g>
	<g>
		<path fill="#fff" stroke="#fff" stroke-miterlimit="10" d="M57.239,170.092c1.622,0,2.942,1.315,2.942,2.941v96.974
			c0,1.626-1.32,2.941-2.942,2.941c-1.623,0-2.941-1.315-2.941-2.941V173.03C54.298,171.403,55.613,170.092,57.239,170.092z"/>
	</g>
</g>
</svg>
